;TYPE=PLATED
;Layer: PTH_Through
;EasyEDA Pro v2.2.45.4, 2026-01-20 19:36:08
;Gerber Generator version 0.3
M48
METRIC,LZ,0000.00000
;Hole size 1 = 0.30000 METRIC
T01C0.30000
;Hole size 2 = 0.50000 METRIC
T02C0.50000
;Hole size 3 = 0.70000 METRIC
T03C0.70000
%
G05
G90
T01
X3.048Y1.143
X3.048Y2.3911
X3.048Y3.63921
X3.048Y4.88731
X3.048Y6.13541
X3.048Y7.38352
X3.048Y8.63162
X3.048Y9.87972
X3.048Y11.12783
X3.048Y12.37593
X3.048Y13.62403
X3.048Y14.87214
X3.048Y16.12024
X3.048Y17.36834
X3.048Y18.61645
X3.048Y19.86455
X3.048Y21.11266
X3.048Y22.36076
X3.048Y23.60886
X3.048Y24.85697
X3.048Y26.10507
X3.048Y27.35317
X3.048Y28.60128
X3.048Y29.84938
X3.048Y31.09748
X3.048Y32.34559
X3.048Y33.59369
X3.048Y34.84179
X3.048Y36.0899
X3.048Y37.338
T02
X79.2988Y27.686
X80.645Y27.686
X81.9912Y27.686
T03
X37.465Y7.493
X39.116Y7.493
X40.767Y7.493
X28.702Y3.937
X28.702Y2.286
X28.702Y0.635
X9.144Y-4.064
X10.541Y-4.064
X11.938Y-4.064
X13.335Y-4.064
X13.335Y-2.413
X11.938Y-2.413
X10.541Y-2.413
X9.144Y-2.413
X4.6422Y-2.7172
X6.0392Y-2.7172
X7.4362Y-2.7172
X3.2452Y-2.7172
M30