G04 Layer: TopLayer*
G04 EasyEDA Pro v2.2.45.4, 2026-01-20 19:36:07*
G04 Gerber Generator version 0.3*
G04 Scale: 100 percent, Rotated: No, Reflected: No*
G04 Dimensions in millimeters*
G04 Leading zeros omitted, absolute positions, 4 integers and 5 decimals*
G04 Generated by one-click*
%FSLAX45Y45*%
%MOMM*%
%ADD10C,1.0*%
%ADD11C,0.6096*%
%ADD12R,1.13254X1.37701*%
%ADD13R,1.0X2.0*%
%ADD14R,2.0X1.0*%
%ADD15R,3.7088X3.69999*%
%ADD16R,3.69999X3.69999*%
%ADD17R,0.5X0.3*%
%ADD18R,0.3X0.5*%
%ADD19R,1.41X1.35001*%
%ADD20R,0.85001X1.0*%
%ADD21R,1.55001X1.0*%
%ADD22C,0.7*%
%ADD23R,1.37701X1.13254*%
%ADD24R,1.35001X1.41*%
%ADD25R,1.5X0.8*%
%ADD26R,2.0X1.45001*%
%ADD27R,1.07X0.6*%
%ADD28R,1.0X1.0*%
G75*


G04 Image Start*
G36*
G01X1560820Y3885938D02*
G01X1560159Y3885816D01*
G01X1559891Y3885454D01*
G01X1559623Y3885092D01*
G01X1557064Y3884973D01*
G01X1554505Y3884855D01*
G01X1554028Y3884408D01*
G01X1553550Y3883961D01*
G01X1551525Y3883858D01*
G01X1549499Y3883755D01*
G01X1549014Y3883301D01*
G01X1548528Y3882848D01*
G01X1546758Y3882735D01*
G01X1544989Y3882623D01*
G01X1544511Y3882181D01*
G01X1544034Y3881739D01*
G01X1542637Y3881605D01*
G01X1541239Y3881471D01*
G01X1540919Y3881041D01*
G01X1540597Y3880611D01*
G01X1539081Y3880490D01*
G01X1537565Y3880369D01*
G01X1537078Y3879904D01*
G01X1536590Y3879438D01*
G01X1535787Y3879438D01*
G01X1534985Y3879438D01*
G01X1534313Y3878880D01*
G01X1533641Y3878322D01*
G01X1532726Y3878322D01*
G01X1531812Y3878322D01*
G01X1531182Y3877806D01*
G01X1530552Y3877291D01*
G01X1529509Y3877118D01*
G01X1528467Y3876944D01*
G01X1528241Y3876517D01*
G01X1528014Y3876089D01*
G01X1527137Y3876089D01*
G01X1526261Y3876089D01*
G01X1525589Y3875531D01*
G01X1524917Y3874973D01*
G01X1524229Y3874973D01*
G01X1523542Y3874973D01*
G01X1523089Y3874415D01*
G01X1522636Y3873857D01*
G01X1521904Y3873857D01*
G01X1521172Y3873857D01*
G01X1520841Y3873298D01*
G01X1520512Y3872740D01*
G01X1519817Y3872740D01*
G01X1519124Y3872740D01*
G01X1518452Y3872182D01*
G01X1517780Y3871624D01*
G01X1517262Y3871624D01*
G01X1516744Y3871624D01*
G01X1516072Y3871066D01*
G01X1515400Y3870508D01*
G01X1515029Y3870508D01*
G01X1514658Y3870508D01*
G01X1514090Y3869950D01*
G01X1513523Y3869392D01*
G01X1513151Y3869392D01*
G01X1512779Y3869392D01*
G01X1512107Y3868834D01*
G01X1511435Y3868275D01*
G01X1511012Y3868275D01*
G01X1510588Y3868275D01*
G01X1510135Y3867717D01*
G01X1509683Y3867159D01*
G01X1509210Y3867159D01*
G01X1508738Y3867159D01*
G01X1508285Y3866601D01*
G01X1507832Y3866043D01*
G01X1507362Y3866043D01*
G01X1506892Y3866043D01*
G01X1506363Y3865485D01*
G01X1505835Y3864927D01*
G01X1505474Y3864927D01*
G01X1505113Y3864927D01*
G01X1504441Y3864369D01*
G01X1503768Y3863810D01*
G01X1503482Y3863810D01*
G01X1503196Y3863810D01*
G01X1502865Y3863252D01*
G01X1502536Y3862694D01*
G01X1502070Y3862694D01*
G01X1501605Y3862694D01*
G01X1501076Y3862136D01*
G01X1500547Y3861578D01*
G01X1500298Y3861578D01*
G01X1500049Y3861578D01*
G01X1499704Y3861058D01*
G01X1499358Y3860537D01*
G01X1498499Y3860337D01*
G01X1497640Y3860138D01*
G01X1497640Y3859742D01*
G01X1497640Y3859346D01*
G01X1497246Y3859346D01*
G01X1496851Y3859346D01*
G01X1496521Y3858787D01*
G01X1496191Y3858229D01*
G01X1495748Y3858229D01*
G01X1495306Y3858229D01*
G01X1494596Y3857602D01*
G01X1493885Y3856973D01*
G01X1493457Y3856485D01*
G01X1493029Y3855997D01*
G01X1492757Y3855996D01*
G01X1492485Y3855996D01*
G01X1491692Y3855310D01*
G01X1490899Y3854625D01*
G01X1490279Y3854125D01*
G01X1489660Y3853625D01*
G01X1489222Y3853181D01*
G01X1488784Y3852738D01*
G01X1488321Y3852562D01*
G01X1487859Y3852386D01*
G01X1487859Y3851959D01*
G01X1487859Y3851532D01*
G01X1487483Y3851532D01*
G01X1487106Y3851532D01*
G01X1486321Y3850834D01*
G01X1485536Y3850137D01*
G01X1485243Y3850137D01*
G01X1484951Y3850137D01*
G01X1484951Y3849718D01*
G01X1484951Y3849299D01*
G01X1484714Y3849299D01*
G01X1484478Y3849299D01*
G01X1483219Y3848044D01*
G01X1481959Y3846788D01*
G01X1481737Y3846788D01*
G01X1481514Y3846788D01*
G01X1481514Y3846370D01*
G01X1481514Y3845950D01*
G01X1481131Y3845950D01*
G01X1480748Y3845950D01*
G01X1480536Y3845581D01*
G01X1480325Y3845212D01*
G01X1477475Y3842512D01*
G01X1474625Y3839812D01*
G01X1473774Y3838767D01*
G01X1472923Y3837723D01*
G01X1471998Y3836620D01*
G01X1471072Y3835517D01*
G01X1470478Y3834911D01*
G01X1469883Y3834306D01*
G01X1469883Y3833989D01*
G01X1469883Y3833672D01*
G01X1469478Y3833672D01*
G01X1469073Y3833672D01*
G01X1468901Y3833198D01*
G01X1468728Y3832723D01*
G01X1467719Y3831744D01*
G01X1466710Y3830765D01*
G01X1466710Y3830405D01*
G01X1466710Y3830044D01*
G01X1466314Y3830044D01*
G01X1465918Y3830044D01*
G01X1465918Y3829617D01*
G01X1465918Y3829190D01*
G01X1465533Y3829034D01*
G01X1465149Y3828878D01*
G01X1464614Y3827996D01*
G01X1464079Y3827114D01*
G01X1463743Y3826593D01*
G01X1463406Y3826073D01*
G01X1462414Y3824919D01*
G01X1461421Y3823765D01*
G01X1461047Y3823345D01*
G01X1460673Y3822924D01*
G01X1460491Y3822159D01*
G01X1460309Y3821393D01*
G01X1459946Y3821393D01*
G01X1459583Y3821393D01*
G01X1459417Y3820696D01*
G01X1459251Y3819998D01*
G01X1458884Y3819998D01*
G01X1458516Y3819998D01*
G01X1458516Y3819601D01*
G01X1458516Y3819203D01*
G01X1457854Y3818375D01*
G01X1457194Y3817545D01*
G01X1457194Y3817267D01*
G01X1457194Y3816988D01*
G01X1456820Y3816836D01*
G01X1456446Y3816685D01*
G01X1456037Y3815900D01*
G01X1455627Y3815115D01*
G01X1455217Y3814208D01*
G01X1454807Y3813301D01*
G01X1454552Y3813301D01*
G01X1454296Y3813301D01*
G01X1454135Y3812624D01*
G01X1453974Y3811946D01*
G01X1453469Y3811464D01*
G01X1452964Y3810982D01*
G01X1452964Y3810467D01*
G01X1452964Y3809952D01*
G01X1452589Y3809952D01*
G01X1452213Y3809952D01*
G01X1452025Y3809045D01*
G01X1451836Y3808138D01*
G01X1451342Y3807774D01*
G01X1450850Y3807409D01*
G01X1450850Y3806910D01*
G01X1450850Y3806411D01*
G01X1450320Y3805905D01*
G01X1449792Y3805401D01*
G01X1449792Y3804916D01*
G01X1449792Y3804430D01*
G01X1449410Y3804276D01*
G01X1449028Y3804121D01*
G01X1448852Y3803129D01*
G01X1448676Y3802138D01*
G01X1448312Y3802138D01*
G01X1447948Y3802138D01*
G01X1447778Y3801022D01*
G01X1447609Y3799906D01*
G01X1447268Y3799906D01*
G01X1446926Y3799906D01*
G01X1446742Y3798999D01*
G01X1446558Y3798092D01*
G01X1446060Y3797593D01*
G01X1445562Y3797093D01*
G01X1445562Y3796469D01*
G01X1445562Y3795844D01*
G01X1445034Y3795366D01*
G01X1444505Y3794889D01*
G01X1444505Y3794079D01*
G01X1444505Y3793268D01*
G01X1444134Y3793118D01*
G01X1443762Y3792967D01*
G01X1443570Y3792041D01*
G01X1443378Y3791115D01*
G01X1442884Y3790450D01*
G01X1442390Y3789784D01*
G01X1442390Y3788913D01*
G01X1442390Y3788040D01*
G01X1441861Y3787692D01*
G01X1441332Y3787344D01*
G01X1441332Y3786470D01*
G01X1441332Y3785596D01*
G01X1440919Y3785276D01*
G01X1440505Y3784957D01*
G01X1440350Y3783738D01*
G01X1440195Y3782519D01*
G01X1439706Y3782004D01*
G01X1439218Y3781488D01*
G01X1439218Y3780625D01*
G01X1439218Y3779762D01*
G01X1438689Y3779052D01*
G01X1438160Y3778343D01*
G01X1438160Y3777378D01*
G01X1438160Y3776413D01*
G01X1437632Y3775704D01*
G01X1437103Y3774994D01*
G01X1437103Y3773890D01*
G01X1437103Y3772786D01*
G01X1436574Y3772076D01*
G01X1436046Y3771367D01*
G01X1436046Y3770110D01*
G01X1436046Y3768852D01*
G01X1435598Y3768506D01*
G01X1435149Y3768160D01*
G01X1435034Y3766247D01*
G01X1434919Y3764334D01*
G01X1434505Y3764014D01*
G01X1434092Y3763696D01*
G01X1433982Y3761778D01*
G01X1433872Y3759861D01*
G01X1433439Y3759343D01*
G01X1433006Y3758826D01*
G01X1432914Y3756274D01*
G01X1432823Y3753722D01*
G01X1432386Y3753205D01*
G01X1431948Y3752688D01*
G01X1431858Y3749438D01*
G01X1431768Y3746188D01*
G01X1431508Y3746019D01*
G01X1431249Y3745850D01*
G01X1431010Y3744763D01*
G01X1430771Y3743675D01*
G01X1430765Y3738778D01*
G01X1430759Y3733881D01*
G01X1430428Y3733532D01*
G01X1430098Y3733183D01*
G01X1430098Y3725565D01*
G01X1430098Y3717948D01*
G01X1430418Y3717277D01*
G01X1430738Y3716607D01*
G01X1430815Y3711124D01*
G01X1430891Y3705642D01*
G01X1431353Y3705103D01*
G01X1431816Y3704563D01*
G01X1431816Y3702143D01*
G01X1431816Y3699723D01*
G01X1431455Y3699723D01*
G01X1431094Y3699723D01*
G01X1430422Y3699166D01*
G01X1429750Y3698607D01*
G01X1429197Y3698607D01*
G01X1428644Y3698607D01*
G01X1428115Y3698049D01*
G01X1427586Y3697491D01*
G01X1426791Y3697491D01*
G01X1425995Y3697491D01*
G01X1425543Y3696933D01*
G01X1425090Y3696375D01*
G01X1424391Y3696375D01*
G01X1423692Y3696375D01*
G01X1423062Y3695853D01*
G01X1422431Y3695331D01*
G01X1421554Y3695129D01*
G01X1420678Y3694927D01*
G01X1420545Y3694562D01*
G01X1420412Y3694197D01*
G01X1419491Y3694015D01*
G01X1418571Y3693832D01*
G01X1418424Y3693429D01*
G01X1418277Y3693026D01*
G01X1417645Y3693026D01*
G01X1417012Y3693026D01*
G01X1416483Y3692468D01*
G01X1415955Y3691910D01*
G01X1415594Y3691910D01*
G01X1415233Y3691910D01*
G01X1414561Y3691352D01*
G01X1413889Y3690793D01*
G01X1413509Y3690793D01*
G01X1413129Y3690793D01*
G01X1412651Y3690235D01*
G01X1412172Y3689678D01*
G01X1411686Y3689678D01*
G01X1411201Y3689678D01*
G01X1410871Y3689119D01*
G01X1410541Y3688561D01*
G01X1409954Y3688561D01*
G01X1409367Y3688561D01*
G01X1408893Y3688026D01*
G01X1408421Y3687490D01*
G01X1407673Y3687292D01*
G01X1406924Y3687094D01*
G01X1406794Y3686737D01*
G01X1406664Y3686379D01*
G01X1406022Y3686209D01*
G01X1405381Y3686039D01*
G01X1405381Y3685657D01*
G01X1405381Y3685275D01*
G01X1404455Y3685091D01*
G01X1403531Y3684908D01*
G01X1403531Y3684502D01*
G01X1403531Y3684096D01*
G01X1403106Y3684096D01*
G01X1402681Y3684096D01*
G01X1401896Y3683399D01*
G01X1401110Y3682701D01*
G01X1400734Y3682701D01*
G01X1400358Y3682701D01*
G01X1400358Y3682312D01*
G01X1400358Y3681924D01*
G01X1399697Y3681749D01*
G01X1399036Y3681574D01*
G01X1399036Y3681192D01*
G01X1399036Y3680810D01*
G01X1398111Y3680627D01*
G01X1397186Y3680443D01*
G01X1397186Y3680037D01*
G01X1397186Y3679632D01*
G01X1396792Y3679632D01*
G01X1396397Y3679632D01*
G01X1396067Y3679073D01*
G01X1395737Y3678515D01*
G01X1395470Y3678514D01*
G01X1395203Y3678514D01*
G01X1394435Y3677817D01*
G01X1393667Y3677120D01*
G01X1393311Y3677120D01*
G01X1392956Y3677120D01*
G01X1392956Y3676701D01*
G01X1392956Y3676282D01*
G01X1392562Y3676282D01*
G01X1392167Y3676282D01*
G01X1391837Y3675724D01*
G01X1391507Y3675166D01*
G01X1391269Y3675166D01*
G01X1391030Y3675166D01*
G01X1389638Y3673911D01*
G01X1388246Y3672655D01*
G01X1387957Y3672655D01*
G01X1387669Y3672655D01*
G01X1387669Y3672236D01*
G01X1387669Y3671818D01*
G01X1387426Y3671818D01*
G01X1387184Y3671818D01*
G01X1386118Y3670736D01*
G01X1385052Y3669655D01*
G01X1384642Y3669490D01*
G01X1384233Y3669323D01*
G01X1384233Y3668928D01*
G01X1384233Y3668534D01*
G01X1383704Y3668388D01*
G01X1383175Y3668242D01*
G01X1383175Y3667797D01*
G01X1383175Y3667353D01*
G01X1382814Y3667353D01*
G01X1382451Y3667353D01*
G01X1378775Y3663515D01*
G01X1375098Y3659678D01*
G01X1373850Y3658217D01*
G01X1372601Y3656756D01*
G01X1372601Y3656473D01*
G01X1372601Y3656190D01*
G01X1372204Y3656190D01*
G01X1371808Y3656190D01*
G01X1371808Y3655956D01*
G01X1371808Y3655721D01*
G01X1370618Y3654391D01*
G01X1369429Y3653062D01*
G01X1369429Y3652812D01*
G01X1369429Y3652563D01*
G01X1369032Y3652563D01*
G01X1368636Y3652563D01*
G01X1368636Y3652254D01*
G01X1368636Y3651945D01*
G01X1367975Y3651116D01*
G01X1367314Y3650287D01*
G01X1367314Y3649890D01*
G01X1367314Y3649493D01*
G01X1366909Y3649493D01*
G01X1366504Y3649493D01*
G01X1366331Y3649004D01*
G01X1366159Y3648516D01*
G01X1365679Y3648151D01*
G01X1365199Y3647787D01*
G01X1365199Y3647384D01*
G01X1365199Y3646981D01*
G01X1364803Y3646981D01*
G01X1364406Y3646981D01*
G01X1364406Y3646584D01*
G01X1364406Y3646187D01*
G01X1363745Y3645358D01*
G01X1363084Y3644528D01*
G01X1363084Y3644287D01*
G01X1363084Y3644046D01*
G01X1362556Y3643698D01*
G01X1362027Y3643349D01*
G01X1362027Y3643072D01*
G01X1362027Y3642796D01*
G01X1361498Y3642237D01*
G01X1360970Y3641679D01*
G01X1360970Y3641121D01*
G01X1360970Y3640563D01*
G01X1360578Y3640563D01*
G01X1360187Y3640563D01*
G01X1360021Y3639865D01*
G01X1359855Y3639167D01*
G01X1359499Y3639167D01*
G01X1359143Y3639167D01*
G01X1358970Y3638191D01*
G01X1358795Y3637214D01*
G01X1358447Y3637214D01*
G01X1358097Y3637214D01*
G01X1357921Y3636629D01*
G01X1357745Y3636043D01*
G01X1357242Y3635512D01*
G01X1356740Y3634982D01*
G01X1356740Y3634490D01*
G01X1356740Y3634000D01*
G01X1356211Y3633651D01*
G01X1355682Y3633303D01*
G01X1355682Y3633000D01*
G01X1355682Y3632697D01*
G01X1355154Y3631988D01*
G01X1354625Y3631279D01*
G01X1354625Y3630758D01*
G01X1354625Y3630238D01*
G01X1354249Y3630238D01*
G01X1353874Y3630238D01*
G01X1353685Y3629331D01*
G01X1353497Y3628424D01*
G01X1353003Y3628059D01*
G01X1352510Y3627695D01*
G01X1352510Y3627075D01*
G01X1352510Y3626455D01*
G01X1351982Y3625977D01*
G01X1351453Y3625499D01*
G01X1351453Y3625052D01*
G01X1351453Y3624605D01*
G01X1350924Y3623895D01*
G01X1350396Y3623186D01*
G01X1350396Y3622794D01*
G01X1350396Y3622401D01*
G01X1349866Y3621802D01*
G01X1349338Y3621202D01*
G01X1349338Y3620811D01*
G01X1349338Y3620419D01*
G01X1348810Y3619710D01*
G01X1348280Y3619000D01*
G01X1348280Y3618454D01*
G01X1348280Y3617907D01*
G01X1347752Y3617198D01*
G01X1347223Y3616489D01*
G01X1347223Y3615756D01*
G01X1347223Y3615023D01*
G01X1346694Y3614675D01*
G01X1346166Y3614327D01*
G01X1346166Y3613483D01*
G01X1346166Y3612640D01*
G01X1345776Y3612481D01*
G01X1345387Y3612324D01*
G01X1345214Y3611305D01*
G01X1345042Y3610285D01*
G01X1344667Y3609832D01*
G01X1344293Y3609378D01*
G01X1344134Y3608297D01*
G01X1343976Y3607215D01*
G01X1343485Y3606716D01*
G01X1342994Y3606217D01*
G01X1342994Y3605365D01*
G01X1342994Y3604513D01*
G01X1342465Y3603803D01*
G01X1341936Y3603094D01*
G01X1341936Y3602015D01*
G01X1341936Y3600936D01*
G01X1341714Y3600936D01*
G01X1341492Y3600936D01*
G01X1341185Y3600225D01*
G01X1340878Y3599515D01*
G01X1340878Y3598551D01*
G01X1340878Y3597588D01*
G01X1340657Y3597588D01*
G01X1340435Y3597588D01*
G01X1340128Y3596877D01*
G01X1339821Y3596166D01*
G01X1339821Y3594938D01*
G01X1339821Y3593709D01*
G01X1339390Y3593454D01*
G01X1338958Y3593198D01*
G01X1338828Y3591696D01*
G01X1338699Y3590193D01*
G01X1338280Y3589689D01*
G01X1337862Y3589184D01*
G01X1337755Y3587316D01*
G01X1337648Y3585449D01*
G01X1337218Y3584936D01*
G01X1336789Y3584422D01*
G01X1336687Y3582291D01*
G01X1336585Y3580159D01*
G01X1336168Y3579836D01*
G01X1335751Y3579515D01*
G01X1335643Y3576761D01*
G01X1335534Y3574008D01*
G01X1335107Y3573498D01*
G01X1334680Y3572988D01*
G01X1334576Y3569172D01*
G01X1334472Y3565356D01*
G01X1334201Y3565176D01*
G01X1333930Y3564995D01*
G01X1333719Y3563641D01*
G01X1333508Y3562287D01*
G01X1333504Y3548194D01*
G01X1333500Y3534102D01*
G01X1333723Y3532882D01*
G01X1333947Y3531662D01*
G01X1334210Y3531486D01*
G01X1334473Y3531311D01*
G01X1334575Y3527358D01*
G01X1334676Y3523405D01*
G01X1335109Y3522893D01*
G01X1335541Y3522381D01*
G01X1335632Y3519777D01*
G01X1335724Y3517174D01*
G01X1336156Y3516840D01*
G01X1336588Y3516507D01*
G01X1336687Y3514187D01*
G01X1336787Y3511867D01*
G01X1337212Y3511539D01*
G01X1337637Y3511211D01*
G01X1337752Y3509298D01*
G01X1337868Y3507384D01*
G01X1338316Y3507038D01*
G01X1338764Y3506692D01*
G01X1338764Y3505296D01*
G01X1338764Y3503899D01*
G01X1339256Y3503234D01*
G01X1339747Y3502568D01*
G01X1339882Y3501056D01*
G01X1340016Y3499544D01*
G01X1340407Y3499242D01*
G01X1340796Y3498940D01*
G01X1340943Y3497562D01*
G01X1341089Y3496184D01*
G01X1341512Y3495857D01*
G01X1341936Y3495530D01*
G01X1341936Y3494552D01*
G01X1341936Y3493574D01*
G01X1342465Y3492864D01*
G01X1342994Y3492155D01*
G01X1342994Y3491289D01*
G01X1342994Y3490423D01*
G01X1343522Y3489946D01*
G01X1344051Y3489468D01*
G01X1344051Y3488850D01*
G01X1344051Y3488233D01*
G01X1344303Y3487532D01*
G01X1344556Y3486831D01*
G01X1345543Y3486635D01*
G01X1346532Y3486440D01*
G01X1347208Y3486894D01*
G01X1347884Y3487347D01*
G01X1348611Y3487659D01*
G01X1349338Y3487972D01*
G01X1349338Y3488332D01*
G01X1349338Y3488693D01*
G01X1350234Y3488870D01*
G01X1351130Y3489047D01*
G01X1351288Y3489668D01*
G01X1351446Y3490289D01*
G01X1351449Y3490880D01*
G01X1351453Y3491470D01*
G01X1350962Y3492135D01*
G01X1350470Y3492801D01*
G01X1350335Y3494313D01*
G01X1350200Y3495824D01*
G01X1349807Y3496128D01*
G01X1349414Y3496431D01*
G01X1349288Y3498031D01*
G01X1349163Y3499629D01*
G01X1348754Y3500122D01*
G01X1348346Y3500615D01*
G01X1348213Y3502687D01*
G01X1348080Y3504759D01*
G01X1347689Y3505060D01*
G01X1347298Y3505362D01*
G01X1347170Y3508402D01*
G01X1347042Y3511441D01*
G01X1346558Y3511815D01*
G01X1346074Y3512188D01*
G01X1346074Y3526697D01*
G01X1346074Y3541207D01*
G01X1346556Y3541770D01*
G01X1347039Y3542332D01*
G01X1347162Y3545193D01*
G01X1347286Y3548054D01*
G01X1347710Y3548563D01*
G01X1348133Y3549072D01*
G01X1348235Y3551075D01*
G01X1348337Y3553078D01*
G01X1348756Y3553576D01*
G01X1349173Y3554075D01*
G01X1349287Y3555739D01*
G01X1349402Y3557403D01*
G01X1349591Y3557403D01*
G01X1349782Y3557403D01*
G01X1350089Y3558114D01*
G01X1350396Y3558825D01*
G01X1350396Y3559928D01*
G01X1350396Y3561031D01*
G01X1350924Y3561589D01*
G01X1351453Y3562147D01*
G01X1351453Y3563249D01*
G01X1351453Y3564352D01*
G01X1351858Y3564591D01*
G01X1352262Y3564831D01*
G01X1352427Y3565930D01*
G01X1352591Y3567031D01*
G01X1353079Y3567696D01*
G01X1353568Y3568362D01*
G01X1353568Y3569162D01*
G01X1353568Y3569961D01*
G01X1354096Y3570519D01*
G01X1354625Y3571077D01*
G01X1354625Y3571914D01*
G01X1354625Y3572752D01*
G01X1355019Y3572752D01*
G01X1355412Y3572752D01*
G01X1355578Y3573851D01*
G01X1355745Y3574950D01*
G01X1356095Y3575092D01*
G01X1356447Y3575234D01*
G01X1356619Y3576206D01*
G01X1356792Y3577178D01*
G01X1357138Y3577318D01*
G01X1357483Y3577458D01*
G01X1357667Y3578343D01*
G01X1357851Y3579227D01*
G01X1358353Y3579757D01*
G01X1358855Y3580286D01*
G01X1358855Y3580782D01*
G01X1358855Y3581278D01*
G01X1359383Y3581756D01*
G01X1359912Y3582234D01*
G01X1359912Y3582905D01*
G01X1359912Y3583575D01*
G01X1360286Y3583726D01*
G01X1360660Y3583878D01*
G01X1361069Y3584664D01*
G01X1361479Y3585449D01*
G01X1361889Y3586355D01*
G01X1362299Y3587263D01*
G01X1362554Y3587263D01*
G01X1362810Y3587263D01*
G01X1362971Y3587940D01*
G01X1363132Y3588616D01*
G01X1363637Y3589099D01*
G01X1364142Y3589581D01*
G01X1364142Y3589943D01*
G01X1364142Y3590304D01*
G01X1364473Y3590527D01*
G01X1364804Y3590751D01*
G01X1365530Y3591882D01*
G01X1366256Y3593013D01*
G01X1366256Y3593185D01*
G01X1366256Y3593356D01*
G01X1367248Y3594478D01*
G01X1368239Y3595598D01*
G01X1368834Y3596338D01*
G01X1369429Y3597077D01*
G01X1369429Y3597462D01*
G01X1369429Y3597847D01*
G01X1369957Y3598146D01*
G01X1370486Y3598445D01*
G01X1370486Y3598679D01*
G01X1370486Y3598913D01*
G01X1372072Y3600634D01*
G01X1373658Y3602356D01*
G01X1373658Y3602623D01*
G01X1373658Y3602890D01*
G01X1374055Y3602890D01*
G01X1374451Y3602890D01*
G01X1374451Y3603335D01*
G01X1374451Y3603779D01*
G01X1374980Y3603925D01*
G01X1375509Y3604071D01*
G01X1375509Y3604331D01*
G01X1375509Y3604591D01*
G01X1376818Y3605973D01*
G01X1378127Y3607355D01*
G01X1378404Y3607355D01*
G01X1378681Y3607355D01*
G01X1378681Y3607774D01*
G01X1378681Y3608192D01*
G01X1378907Y3608192D01*
G01X1379133Y3608192D01*
G01X1380737Y3609828D01*
G01X1382341Y3611464D01*
G01X1382758Y3611633D01*
G01X1383175Y3611802D01*
G01X1383175Y3612229D01*
G01X1383175Y3612657D01*
G01X1383467Y3612657D01*
G01X1383759Y3612657D01*
G01X1384591Y3613344D01*
G01X1385422Y3614032D01*
G01X1385885Y3614461D01*
G01X1386347Y3614889D01*
G01X1386597Y3614889D01*
G01X1386846Y3614889D01*
G01X1387191Y3615396D01*
G01X1387537Y3615903D01*
G01X1387999Y3616085D01*
G01X1388462Y3616267D01*
G01X1388462Y3616694D01*
G01X1388462Y3617122D01*
G01X1388991Y3617122D01*
G01X1389519Y3617122D01*
G01X1390048Y3617680D01*
G01X1390577Y3618238D01*
G01X1390827Y3618238D01*
G01X1391076Y3618238D01*
G01X1391433Y3618776D01*
G01X1391790Y3619315D01*
G01X1392527Y3619510D01*
G01X1393263Y3619705D01*
G01X1393402Y3620088D01*
G01X1393541Y3620471D01*
G01X1393907Y3620471D01*
G01X1394273Y3620471D01*
G01X1394603Y3621029D01*
G01X1394934Y3621587D01*
G01X1395399Y3621587D01*
G01X1395864Y3621587D01*
G01X1396393Y3622145D01*
G01X1396921Y3622703D01*
G01X1397268Y3622703D01*
G01X1397615Y3622703D01*
G01X1398182Y3623261D01*
G01X1398750Y3623820D01*
G01X1399155Y3623820D01*
G01X1399561Y3623820D01*
G01X1399891Y3624377D01*
G01X1400221Y3624935D01*
G01X1400808Y3624935D01*
G01X1401395Y3624935D01*
G01X1401868Y3625461D01*
G01X1402341Y3625987D01*
G01X1403200Y3626181D01*
G01X1404059Y3626375D01*
G01X1404059Y3626772D01*
G01X1404059Y3627168D01*
G01X1404855Y3627168D01*
G01X1405650Y3627168D01*
G01X1406103Y3627726D01*
G01X1406555Y3628284D01*
G01X1407157Y3628284D01*
G01X1407760Y3628284D01*
G01X1408289Y3628843D01*
G01X1408817Y3629400D01*
G01X1409334Y3629400D01*
G01X1409850Y3629400D01*
G01X1410523Y3629724D01*
G01X1411197Y3630048D01*
G01X1411197Y3630282D01*
G01X1411197Y3630517D01*
G01X1411791Y3630521D01*
G01X1412386Y3630524D01*
G01X1412981Y3630693D01*
G01X1413576Y3630861D01*
G01X1413576Y3631212D01*
G01X1413576Y3631562D01*
G01X1414942Y3631700D01*
G01X1416308Y3631839D01*
G01X1416594Y3632251D01*
G01X1416880Y3632662D01*
G01X1418186Y3632817D01*
G01X1419491Y3632972D01*
G01X1419801Y3633418D01*
G01X1420110Y3633866D01*
G01X1421007Y3633870D01*
G01X1421903Y3633873D01*
G01X1422497Y3634041D01*
G01X1423092Y3634210D01*
G01X1423092Y3634564D01*
G01X1423092Y3634919D01*
G01X1424972Y3635031D01*
G01X1426851Y3635143D01*
G01X1427154Y3635581D01*
G01X1427457Y3636019D01*
G01X1429633Y3636151D01*
G01X1431809Y3636284D01*
G01X1432275Y3636717D01*
G01X1432741Y3637150D01*
G01X1435709Y3637273D01*
G01X1438677Y3637395D01*
G01X1439166Y3637863D01*
G01X1439656Y3638331D01*
G01X1451510Y3638331D01*
G01X1463364Y3638331D01*
G01X1463869Y3637849D01*
G01X1464374Y3637366D01*
G01X1467194Y3637261D01*
G01X1470015Y3637156D01*
G01X1470481Y3636720D01*
G01X1470947Y3636284D01*
G01X1473123Y3636151D01*
G01X1475299Y3636019D01*
G01X1475599Y3635585D01*
G01X1475899Y3635152D01*
G01X1477682Y3635032D01*
G01X1479465Y3634912D01*
G01X1479961Y3634389D01*
G01X1480457Y3633866D01*
G01X1481779Y3633866D01*
G01X1483100Y3633866D01*
G01X1483100Y3633632D01*
G01X1483100Y3633397D01*
G01X1483774Y3633073D01*
G01X1484447Y3632749D01*
G01X1485141Y3632749D01*
G01X1485834Y3632749D01*
G01X1486297Y3632307D01*
G01X1486760Y3631865D01*
G01X1487878Y3631706D01*
G01X1488996Y3631548D01*
G01X1489485Y3631033D01*
G01X1489974Y3630517D01*
G01X1490840Y3630517D01*
G01X1491707Y3630517D01*
G01X1492159Y3629959D01*
G01X1492612Y3629400D01*
G01X1493349Y3629400D01*
G01X1494086Y3629400D01*
G01X1494538Y3628843D01*
G01X1494991Y3628284D01*
G01X1495654Y3628284D01*
G01X1496318Y3628284D01*
G01X1496847Y3627726D01*
G01X1497375Y3627168D01*
G01X1497904Y3627168D01*
G01X1498433Y3627168D01*
G01X1498961Y3626610D01*
G01X1499490Y3626052D01*
G01X1500151Y3626052D01*
G01X1500812Y3626052D01*
G01X1500812Y3625655D01*
G01X1500812Y3625259D01*
G01X1501671Y3625065D01*
G01X1502530Y3624870D01*
G01X1503003Y3624345D01*
G01X1503476Y3623820D01*
G01X1504099Y3623820D01*
G01X1504721Y3623820D01*
G01X1504864Y3623425D01*
G01X1505008Y3623030D01*
G01X1505752Y3622597D01*
G01X1506495Y3622165D01*
G01X1507355Y3621733D01*
G01X1508214Y3621300D01*
G01X1508214Y3621030D01*
G01X1508214Y3620761D01*
G01X1508855Y3620590D01*
G01X1509497Y3620421D01*
G01X1509954Y3619888D01*
G01X1510411Y3619354D01*
G01X1510899Y3619354D01*
G01X1511386Y3619354D01*
G01X1511386Y3618936D01*
G01X1511386Y3618517D01*
G01X1511679Y3618517D01*
G01X1511971Y3618517D01*
G01X1512756Y3617820D01*
G01X1513542Y3617122D01*
G01X1513854Y3617122D01*
G01X1514167Y3617122D01*
G01X1514497Y3616564D01*
G01X1514827Y3616006D01*
G01X1515074Y3616006D01*
G01X1515322Y3616006D01*
G01X1516328Y3615023D01*
G01X1517334Y3614040D01*
G01X1517929Y3613876D01*
G01X1518523Y3613713D01*
G01X1518523Y3613324D01*
G01X1518523Y3612936D01*
G01X1518746Y3612936D01*
G01X1518968Y3612936D01*
G01X1520228Y3611680D01*
G01X1521487Y3610424D01*
G01X1521724Y3610424D01*
G01X1521961Y3610424D01*
G01X1521961Y3610006D01*
G01X1521961Y3609587D01*
G01X1522291Y3609583D01*
G01X1522621Y3609580D01*
G01X1526521Y3605423D01*
G01X1530419Y3601266D01*
G01X1530419Y3600962D01*
G01X1530419Y3600657D01*
G01X1530816Y3600657D01*
G01X1531213Y3600657D01*
G01X1531213Y3600297D01*
G01X1531213Y3599937D01*
G01X1532270Y3598911D01*
G01X1533327Y3597884D01*
G01X1533327Y3597606D01*
G01X1533327Y3597328D01*
G01X1533856Y3597030D01*
G01X1534385Y3596731D01*
G01X1534385Y3596336D01*
G01X1534385Y3595942D01*
G01X1535039Y3595160D01*
G01X1535692Y3594378D01*
G01X1536053Y3593960D01*
G01X1536414Y3593542D01*
G01X1536581Y3593053D01*
G01X1536747Y3592565D01*
G01X1537153Y3592565D01*
G01X1537557Y3592565D01*
G01X1537557Y3592007D01*
G01X1537557Y3591448D01*
G01X1538086Y3590890D01*
G01X1538615Y3590332D01*
G01X1538615Y3590069D01*
G01X1538615Y3589806D01*
G01X1539079Y3589441D01*
G01X1539544Y3589076D01*
G01X1539806Y3588262D01*
G01X1540069Y3587448D01*
G01X1540807Y3587188D01*
G01X1541545Y3586929D01*
G01X1542195Y3587101D01*
G01X1542844Y3587273D01*
G01X1542844Y3587686D01*
G01X1542844Y3588099D01*
G01X1543505Y3588099D01*
G01X1544166Y3588099D01*
G01X1544695Y3588658D01*
G01X1545223Y3589216D01*
G01X1545620Y3589216D01*
G01X1546016Y3589216D01*
G01X1546545Y3589774D01*
G01X1547074Y3590332D01*
G01X1547434Y3590332D01*
G01X1547795Y3590332D01*
G01X1548426Y3590852D01*
G01X1549056Y3591372D01*
G01X1549651Y3591568D01*
G01X1550246Y3591765D01*
G01X1550246Y3592165D01*
G01X1550246Y3592565D01*
G01X1550910Y3592565D01*
G01X1551573Y3592565D01*
G01X1552026Y3593123D01*
G01X1552479Y3593681D01*
G01X1552948Y3593681D01*
G01X1553418Y3593681D01*
G01X1553921Y3594211D01*
G01X1554424Y3594742D01*
G01X1555006Y3594937D01*
G01X1555588Y3595132D01*
G01X1555491Y3597172D01*
G01X1555393Y3599213D01*
G01X1554895Y3599793D01*
G01X1554398Y3600373D01*
G01X1554402Y3607538D01*
G01X1554406Y3614704D01*
G01X1554882Y3615070D01*
G01X1555357Y3615437D01*
G01X1555477Y3616977D01*
G01X1555599Y3618517D01*
G01X1555959Y3618517D01*
G01X1556320Y3618517D01*
G01X1556487Y3619616D01*
G01X1556653Y3620715D01*
G01X1557004Y3620857D01*
G01X1557354Y3620999D01*
G01X1557530Y3621991D01*
G01X1557707Y3622982D01*
G01X1558053Y3622982D01*
G01X1558399Y3622982D01*
G01X1558573Y3623816D01*
G01X1558746Y3624650D01*
G01X1559717Y3625796D01*
G01X1560688Y3626941D01*
G01X1563067Y3629451D01*
G01X1565446Y3631961D01*
G01X1565865Y3632355D01*
G01X1566284Y3632749D01*
G01X1566582Y3632749D01*
G01X1566882Y3632749D01*
G01X1567164Y3633308D01*
G01X1567448Y3633866D01*
G01X1567956Y3633866D01*
G01X1568466Y3633866D01*
G01X1568938Y3634391D01*
G01X1569412Y3634917D01*
G01X1570270Y3635111D01*
G01X1571130Y3635305D01*
G01X1571130Y3635701D01*
G01X1571130Y3636098D01*
G01X1572045Y3636098D01*
G01X1572960Y3636098D01*
G01X1573432Y3636621D01*
G01X1573906Y3637145D01*
G01X1575465Y3637276D01*
G01X1577025Y3637407D01*
G01X1577345Y3637869D01*
G01X1577665Y3638331D01*
G01X1578116Y3638331D01*
G01X1578567Y3638331D01*
G01X1579078Y3638620D01*
G01X1579589Y3638908D01*
G01X1579584Y3647340D01*
G01X1579580Y3655772D01*
G01X1578884Y3656469D01*
G01X1578188Y3657167D01*
G01X1573667Y3657263D01*
G01X1569147Y3657358D01*
G01X1568686Y3657794D01*
G01X1568224Y3658229D01*
G01X1565514Y3658366D01*
G01X1562805Y3658504D01*
G01X1562520Y3658915D01*
G01X1562235Y3659328D01*
G01X1560272Y3659468D01*
G01X1558309Y3659608D01*
G01X1557842Y3660039D01*
G01X1557375Y3660470D01*
G01X1555861Y3660603D01*
G01X1554346Y3660736D01*
G01X1554064Y3661142D01*
G01X1553783Y3661549D01*
G01X1552477Y3661695D01*
G01X1551171Y3661842D01*
G01X1550729Y3662249D01*
G01X1550287Y3662656D01*
G01X1549143Y3662813D01*
G01X1547999Y3662971D01*
G01X1547368Y3663488D01*
G01X1546738Y3664004D01*
G01X1545980Y3664004D01*
G01X1545223Y3664004D01*
G01X1544695Y3664562D01*
G01X1544166Y3665120D01*
G01X1543480Y3665120D01*
G01X1542796Y3665120D01*
G01X1542123Y3665678D01*
G01X1541451Y3666236D01*
G01X1540752Y3666236D01*
G01X1540053Y3666236D01*
G01X1539601Y3666794D01*
G01X1539148Y3667353D01*
G01X1538417Y3667353D01*
G01X1537684Y3667353D01*
G01X1537354Y3667911D01*
G01X1537024Y3668469D01*
G01X1536297Y3668469D01*
G01X1535570Y3668469D01*
G01X1535239Y3669027D01*
G01X1534909Y3669585D01*
G01X1534118Y3669585D01*
G01X1533327Y3669585D01*
G01X1533327Y3669985D01*
G01X1533327Y3670385D01*
G01X1532733Y3670581D01*
G01X1532138Y3670778D01*
G01X1531508Y3671298D01*
G01X1530877Y3671818D01*
G01X1530516Y3671818D01*
G01X1530155Y3671818D01*
G01X1529627Y3672376D01*
G01X1529098Y3672934D01*
G01X1528597Y3672934D01*
G01X1528097Y3672934D01*
G01X1527954Y3673329D01*
G01X1527810Y3673723D01*
G01X1527066Y3674156D01*
G01X1526322Y3674588D01*
G01X1525487Y3675010D01*
G01X1524652Y3675431D01*
G01X1524562Y3675648D01*
G01X1524471Y3675864D01*
G01X1523400Y3676632D01*
G01X1522328Y3677399D01*
G01X1522075Y3677399D01*
G01X1521823Y3677399D01*
G01X1521493Y3677957D01*
G01X1521163Y3678515D01*
G01X1520916Y3678515D01*
G01X1520668Y3678515D01*
G01X1519662Y3679498D01*
G01X1518656Y3680481D01*
G01X1518061Y3680645D01*
G01X1517466Y3680808D01*
G01X1517466Y3681197D01*
G01X1517466Y3681585D01*
G01X1517216Y3681585D01*
G01X1516965Y3681585D01*
G01X1516252Y3682282D01*
G01X1515539Y3682980D01*
G01X1515313Y3682980D01*
G01X1515087Y3682980D01*
G01X1515087Y3683399D01*
G01X1515087Y3683817D01*
G01X1514787Y3683817D01*
G01X1514487Y3683817D01*
G01X1513901Y3684445D01*
G01X1513315Y3685073D01*
G01X1512549Y3685682D01*
G01X1511783Y3686291D01*
G01X1510669Y3687426D01*
G01X1509556Y3688561D01*
G01X1509312Y3688561D01*
G01X1509069Y3688561D01*
G01X1508930Y3689119D01*
G01X1508792Y3689678D01*
G01X1508371Y3689678D01*
G01X1507949Y3689678D01*
G01X1507949Y3689967D01*
G01X1507949Y3690257D01*
G01X1506874Y3691432D01*
G01X1505799Y3692608D01*
G01X1505222Y3693416D01*
G01X1504645Y3694225D01*
G01X1504050Y3694844D01*
G01X1503455Y3695462D01*
G01X1503455Y3695779D01*
G01X1503455Y3696096D01*
G01X1503059Y3696096D01*
G01X1502663Y3696096D01*
G01X1502663Y3696352D01*
G01X1502663Y3696608D01*
G01X1501605Y3697770D01*
G01X1500547Y3698932D01*
G01X1500547Y3699119D01*
G01X1500547Y3699305D01*
G01X1499906Y3700142D01*
G01X1499264Y3700979D01*
G01X1498849Y3701468D01*
G01X1498433Y3701956D01*
G01X1498433Y3702233D01*
G01X1498433Y3702510D01*
G01X1497904Y3702858D01*
G01X1497375Y3703206D01*
G01X1497375Y3703473D01*
G01X1497375Y3703740D01*
G01X1496649Y3704871D01*
G01X1495921Y3706002D01*
G01X1495717Y3706098D01*
G01X1495512Y3706193D01*
G01X1495113Y3707075D01*
G01X1494713Y3707956D01*
G01X1494303Y3708741D01*
G01X1493894Y3709527D01*
G01X1493520Y3709678D01*
G01X1493146Y3709829D01*
G01X1493146Y3710358D01*
G01X1493146Y3710886D01*
G01X1492617Y3711444D01*
G01X1492088Y3712002D01*
G01X1492088Y3712368D01*
G01X1492088Y3712734D01*
G01X1491603Y3713284D01*
G01X1491117Y3713835D01*
G01X1490937Y3714593D01*
G01X1490756Y3715351D01*
G01X1490365Y3715351D01*
G01X1489974Y3715351D01*
G01X1489974Y3716186D01*
G01X1489974Y3717021D01*
G01X1489445Y3717369D01*
G01X1488916Y3717717D01*
G01X1488916Y3718348D01*
G01X1488916Y3718979D01*
G01X1488387Y3719536D01*
G01X1487859Y3720095D01*
G01X1487859Y3720795D01*
G01X1487859Y3721496D01*
G01X1487330Y3721973D01*
G01X1486801Y3722451D01*
G01X1486801Y3723189D01*
G01X1486801Y3723926D01*
G01X1486311Y3724592D01*
G01X1485820Y3725257D01*
G01X1485643Y3726277D01*
G01X1485465Y3727297D01*
G01X1485076Y3727454D01*
G01X1484686Y3727612D01*
G01X1484686Y3728560D01*
G01X1484686Y3729507D01*
G01X1484197Y3730173D01*
G01X1483708Y3730838D01*
G01X1483559Y3732047D01*
G01X1483410Y3733254D01*
G01X1483024Y3733721D01*
G01X1482639Y3734188D01*
G01X1482500Y3735566D01*
G01X1482361Y3736944D01*
G01X1481975Y3737241D01*
G01X1481591Y3737539D01*
G01X1481465Y3739138D01*
G01X1481339Y3740737D01*
G01X1480931Y3741230D01*
G01X1480522Y3741722D01*
G01X1480389Y3743794D01*
G01X1480257Y3745866D01*
G01X1479828Y3746197D01*
G01X1479400Y3746528D01*
G01X1479398Y3748589D01*
G01X1479397Y3750652D01*
G01X1479122Y3751698D01*
G01X1478846Y3752745D01*
G01X1478636Y3752745D01*
G01X1478427Y3752745D01*
G01X1478200Y3759512D01*
G01X1477972Y3766279D01*
G01X1477972Y3768372D01*
G01X1477972Y3770465D01*
G01X1478200Y3777232D01*
G01X1478427Y3784000D01*
G01X1478636Y3784000D01*
G01X1478846Y3784000D01*
G01X1479122Y3785046D01*
G01X1479397Y3786092D01*
G01X1479398Y3788164D01*
G01X1479400Y3790234D01*
G01X1479851Y3790761D01*
G01X1480302Y3791286D01*
G01X1480408Y3793155D01*
G01X1480515Y3795023D01*
G01X1480927Y3795515D01*
G01X1481339Y3796008D01*
G01X1481465Y3797607D01*
G01X1481591Y3799205D01*
G01X1481990Y3799514D01*
G01X1482390Y3799822D01*
G01X1482513Y3801399D01*
G01X1482637Y3802976D01*
G01X1482827Y3802976D01*
G01X1483015Y3802976D01*
G01X1483322Y3803687D01*
G01X1483629Y3804397D01*
G01X1483629Y3805130D01*
G01X1483629Y3805862D01*
G01X1484048Y3806351D01*
G01X1484467Y3806839D01*
G01X1484615Y3808001D01*
G01X1484762Y3809163D01*
G01X1485114Y3809306D01*
G01X1485465Y3809448D01*
G01X1485643Y3810467D01*
G01X1485820Y3811487D01*
G01X1486311Y3812152D01*
G01X1486801Y3812818D01*
G01X1486801Y3813556D01*
G01X1486801Y3814293D01*
G01X1487330Y3814771D01*
G01X1487859Y3815249D01*
G01X1487859Y3815949D01*
G01X1487859Y3816649D01*
G01X1488387Y3817207D01*
G01X1488916Y3817766D01*
G01X1488916Y3818396D01*
G01X1488916Y3819026D01*
G01X1489445Y3819375D01*
G01X1489974Y3819724D01*
G01X1489974Y3820492D01*
G01X1489974Y3821259D01*
G01X1490502Y3821608D01*
G01X1491031Y3821956D01*
G01X1491031Y3822384D01*
G01X1491031Y3822812D01*
G01X1491560Y3823411D01*
G01X1492088Y3824011D01*
G01X1492088Y3824376D01*
G01X1492088Y3824742D01*
G01X1492617Y3825300D01*
G01X1493146Y3825859D01*
G01X1493146Y3826387D01*
G01X1493146Y3826915D01*
G01X1493520Y3827066D01*
G01X1493894Y3827218D01*
G01X1494303Y3828003D01*
G01X1494713Y3828789D01*
G01X1495113Y3829670D01*
G01X1495512Y3830551D01*
G01X1495717Y3830647D01*
G01X1495921Y3830742D01*
G01X1496649Y3831873D01*
G01X1497375Y3833004D01*
G01X1497375Y3833271D01*
G01X1497375Y3833538D01*
G01X1497904Y3833886D01*
G01X1498433Y3834235D01*
G01X1498433Y3834512D01*
G01X1498433Y3834788D01*
G01X1498849Y3835277D01*
G01X1499264Y3835765D01*
G01X1499906Y3836602D01*
G01X1500547Y3837439D01*
G01X1500547Y3837626D01*
G01X1500547Y3837812D01*
G01X1501605Y3838974D01*
G01X1502663Y3840136D01*
G01X1502663Y3840392D01*
G01X1502663Y3840649D01*
G01X1503059Y3840649D01*
G01X1503455Y3840649D01*
G01X1503455Y3841076D01*
G01X1503455Y3841503D01*
G01X1503860Y3841667D01*
G01X1504265Y3841831D01*
G01X1504587Y3842478D01*
G01X1504909Y3843125D01*
G01X1506429Y3844810D01*
G01X1507949Y3846494D01*
G01X1507949Y3846781D01*
G01X1507949Y3847067D01*
G01X1508371Y3847067D01*
G01X1508792Y3847067D01*
G01X1508930Y3847625D01*
G01X1509069Y3848183D01*
G01X1509309Y3848183D01*
G01X1509549Y3848183D01*
G01X1511145Y3849788D01*
G01X1512741Y3851393D01*
G01X1513354Y3851732D01*
G01X1513967Y3852073D01*
G01X1514122Y3852500D01*
G01X1514277Y3852927D01*
G01X1514682Y3852927D01*
G01X1515087Y3852927D01*
G01X1515087Y3853346D01*
G01X1515087Y3853764D01*
G01X1515330Y3853764D01*
G01X1515573Y3853764D01*
G01X1516673Y3854881D01*
G01X1517774Y3855997D01*
G01X1517951Y3855997D01*
G01X1518127Y3855998D01*
G01X1518920Y3856674D01*
G01X1519713Y3857352D01*
G01X1520176Y3857790D01*
G01X1520639Y3858229D01*
G01X1520900Y3858229D01*
G01X1521163Y3858229D01*
G01X1521493Y3858787D01*
G01X1521823Y3859346D01*
G01X1522075Y3859346D01*
G01X1522328Y3859346D01*
G01X1523400Y3860113D01*
G01X1524471Y3860881D01*
G01X1524562Y3861097D01*
G01X1524652Y3861313D01*
G01X1525487Y3861735D01*
G01X1526322Y3862156D01*
G01X1527066Y3862588D01*
G01X1527810Y3863021D01*
G01X1527954Y3863416D01*
G01X1528097Y3863810D01*
G01X1528597Y3863810D01*
G01X1529098Y3863810D01*
G01X1529627Y3864369D01*
G01X1530155Y3864927D01*
G01X1530502Y3864927D01*
G01X1530849Y3864927D01*
G01X1531416Y3865485D01*
G01X1531983Y3866043D01*
G01X1532389Y3866043D01*
G01X1532794Y3866043D01*
G01X1533125Y3866601D01*
G01X1533454Y3867159D01*
G01X1534182Y3867159D01*
G01X1534909Y3867159D01*
G01X1535239Y3867717D01*
G01X1535570Y3868275D01*
G01X1536297Y3868275D01*
G01X1537024Y3868275D01*
G01X1537354Y3868834D01*
G01X1537684Y3869392D01*
G01X1538417Y3869392D01*
G01X1539148Y3869392D01*
G01X1539601Y3869950D01*
G01X1540053Y3870508D01*
G01X1540752Y3870508D01*
G01X1541451Y3870508D01*
G01X1542082Y3871026D01*
G01X1542712Y3871543D01*
G01X1543678Y3871731D01*
G01X1544643Y3871918D01*
G01X1544779Y3872289D01*
G01X1544913Y3872661D01*
G01X1546014Y3872816D01*
G01X1547115Y3872972D01*
G01X1547557Y3873377D01*
G01X1547999Y3873783D01*
G01X1549143Y3873936D01*
G01X1550287Y3874088D01*
G01X1550729Y3874495D01*
G01X1551171Y3874902D01*
G01X1552477Y3875048D01*
G01X1553783Y3875195D01*
G01X1554064Y3875602D01*
G01X1554346Y3876009D01*
G01X1555870Y3876142D01*
G01X1557393Y3876275D01*
G01X1557719Y3876715D01*
G01X1558044Y3877155D01*
G01X1559941Y3877258D01*
G01X1561839Y3877361D01*
G01X1562321Y3877812D01*
G01X1562803Y3878264D01*
G01X1563332Y3878366D01*
G01X1563860Y3878468D01*
G01X1563934Y3881855D01*
G01X1564008Y3885241D01*
G01X1563585Y3885688D01*
G01X1563161Y3886135D01*
G01X1562321Y3886097D01*
G01X1561481Y3886059D01*
G01X1560820Y3885938D01*
G37*
G36*
G01X1603555Y3885721D02*
G01X1603101Y3885241D01*
G01X1603175Y3881855D01*
G01X1603249Y3878468D01*
G01X1603771Y3878362D01*
G01X1604293Y3878256D01*
G01X1604584Y3877836D01*
G01X1604875Y3877417D01*
G01X1606837Y3877277D01*
G01X1608800Y3877136D01*
G01X1609267Y3876705D01*
G01X1609733Y3876274D01*
G01X1611248Y3876141D01*
G01X1612763Y3876009D01*
G01X1613050Y3875594D01*
G01X1613337Y3875179D01*
G01X1614770Y3875037D01*
G01X1616202Y3874894D01*
G01X1616832Y3874375D01*
G01X1617463Y3873857D01*
G01X1618245Y3873857D01*
G01X1619026Y3873857D01*
G01X1619698Y3873298D01*
G01X1620371Y3872740D01*
G01X1621260Y3872740D01*
G01X1622150Y3872740D01*
G01X1622679Y3872182D01*
G01X1623207Y3871624D01*
G01X1623879Y3871624D01*
G01X1624551Y3871624D01*
G01X1625118Y3871066D01*
G01X1625686Y3870508D01*
G01X1626498Y3870508D01*
G01X1627310Y3870508D01*
G01X1627640Y3869950D01*
G01X1627970Y3869392D01*
G01X1628629Y3869392D01*
G01X1629287Y3869392D01*
G01X1629816Y3868834D01*
G01X1630345Y3868275D01*
G01X1630873Y3868275D01*
G01X1631402Y3868275D01*
G01X1631931Y3867717D01*
G01X1632459Y3867159D01*
G01X1633057Y3867159D01*
G01X1633654Y3867159D01*
G01X1633985Y3866601D01*
G01X1634315Y3866043D01*
G01X1634800Y3866043D01*
G01X1635285Y3866043D01*
G01X1635764Y3865485D01*
G01X1636243Y3864927D01*
G01X1636598Y3864927D01*
G01X1636953Y3864927D01*
G01X1637483Y3864369D01*
G01X1638011Y3863810D01*
G01X1638540Y3863810D01*
G01X1639069Y3863810D01*
G01X1639069Y3863578D01*
G01X1639069Y3863346D01*
G01X1640361Y3862462D01*
G01X1641654Y3861578D01*
G01X1641934Y3861578D01*
G01X1642215Y3861578D01*
G01X1642426Y3861229D01*
G01X1642637Y3860879D01*
G01X1643709Y3860112D01*
G01X1644780Y3859346D01*
G01X1645033Y3859346D01*
G01X1645286Y3859346D01*
G01X1645616Y3858787D01*
G01X1645946Y3858229D01*
G01X1646340Y3858229D01*
G01X1646735Y3858229D01*
G01X1646735Y3857978D01*
G01X1646735Y3857726D01*
G01X1647594Y3857147D01*
G01X1648453Y3856568D01*
G01X1648946Y3856212D01*
G01X1649439Y3855858D01*
G01X1650488Y3854811D01*
G01X1651536Y3853764D01*
G01X1651779Y3853764D01*
G01X1652022Y3853764D01*
G01X1652022Y3853346D01*
G01X1652022Y3852927D01*
G01X1652322Y3852927D01*
G01X1652622Y3852927D01*
G01X1653201Y3852299D01*
G01X1653780Y3851671D01*
G01X1654547Y3851114D01*
G01X1655313Y3850555D01*
G01X1656420Y3849369D01*
G01X1657526Y3848183D01*
G01X1657783Y3848183D01*
G01X1658040Y3848183D01*
G01X1658179Y3847625D01*
G01X1658317Y3847067D01*
G01X1658738Y3847067D01*
G01X1659159Y3847067D01*
G01X1659159Y3846777D01*
G01X1659159Y3846488D01*
G01X1660235Y3845312D01*
G01X1661310Y3844137D01*
G01X1661887Y3843328D01*
G01X1662464Y3842519D01*
G01X1663059Y3841900D01*
G01X1663653Y3841282D01*
G01X1663653Y3840966D01*
G01X1663653Y3840649D01*
G01X1664050Y3840649D01*
G01X1664446Y3840649D01*
G01X1664446Y3840392D01*
G01X1664446Y3840136D01*
G01X1665438Y3839029D01*
G01X1666429Y3837922D01*
G01X1666766Y3837402D01*
G01X1667102Y3836881D01*
G01X1667651Y3835974D01*
G01X1668199Y3835068D01*
G01X1668438Y3835068D01*
G01X1668676Y3835068D01*
G01X1668676Y3834651D01*
G01X1668676Y3834235D01*
G01X1669205Y3833886D01*
G01X1669733Y3833538D01*
G01X1669733Y3833271D01*
G01X1669733Y3833004D01*
G01X1670460Y3831873D01*
G01X1671187Y3830742D01*
G01X1671392Y3830647D01*
G01X1671597Y3830551D01*
G01X1671997Y3829670D01*
G01X1672396Y3828789D01*
G01X1672805Y3828003D01*
G01X1673215Y3827218D01*
G01X1673589Y3827066D01*
G01X1673963Y3826915D01*
G01X1673963Y3826387D01*
G01X1673963Y3825859D01*
G01X1674492Y3825300D01*
G01X1675020Y3824742D01*
G01X1675020Y3824367D01*
G01X1675020Y3823992D01*
G01X1675549Y3823486D01*
G01X1676078Y3822981D01*
G01X1676078Y3822469D01*
G01X1676078Y3821956D01*
G01X1676607Y3821608D01*
G01X1677135Y3821259D01*
G01X1677135Y3820492D01*
G01X1677135Y3819724D01*
G01X1677664Y3819375D01*
G01X1678193Y3819026D01*
G01X1678193Y3818259D01*
G01X1678193Y3817492D01*
G01X1678721Y3817143D01*
G01X1679250Y3816794D01*
G01X1679250Y3816022D01*
G01X1679250Y3815249D01*
G01X1679779Y3814771D01*
G01X1680308Y3814293D01*
G01X1680308Y3813556D01*
G01X1680308Y3812818D01*
G01X1680836Y3812109D01*
G01X1681365Y3811399D01*
G01X1681365Y3810673D01*
G01X1681365Y3809947D01*
G01X1681894Y3809469D01*
G01X1682422Y3808991D01*
G01X1682422Y3808113D01*
G01X1682422Y3807236D01*
G01X1682912Y3806571D01*
G01X1683401Y3805905D01*
G01X1683550Y3804698D01*
G01X1683700Y3803490D01*
G01X1684084Y3803023D01*
G01X1684470Y3802557D01*
G01X1684609Y3801179D01*
G01X1684748Y3799800D01*
G01X1685133Y3799503D01*
G01X1685518Y3799205D01*
G01X1685644Y3797607D01*
G01X1685770Y3796008D01*
G01X1686178Y3795515D01*
G01X1686586Y3795023D01*
G01X1686719Y3792950D01*
G01X1686853Y3790878D01*
G01X1687243Y3790577D01*
G01X1687633Y3790276D01*
G01X1687763Y3787416D01*
G01X1687893Y3784556D01*
G01X1688295Y3784068D01*
G01X1688697Y3783581D01*
G01X1688918Y3776883D01*
G01X1689140Y3770186D01*
G01X1689140Y3768372D01*
G01X1689140Y3766558D01*
G01X1688918Y3759861D01*
G01X1688697Y3753163D01*
G01X1688295Y3752676D01*
G01X1687893Y3752189D01*
G01X1687763Y3749328D01*
G01X1687633Y3746468D01*
G01X1687243Y3746167D01*
G01X1686853Y3745866D01*
G01X1686719Y3743794D01*
G01X1686586Y3741722D01*
G01X1686178Y3741230D01*
G01X1685770Y3740737D01*
G01X1685644Y3739138D01*
G01X1685518Y3737539D01*
G01X1685133Y3737241D01*
G01X1684748Y3736944D01*
G01X1684609Y3735566D01*
G01X1684470Y3734188D01*
G01X1684084Y3733721D01*
G01X1683700Y3733254D01*
G01X1683550Y3732047D01*
G01X1683401Y3730838D01*
G01X1682912Y3730173D01*
G01X1682422Y3729507D01*
G01X1682422Y3728630D01*
G01X1682422Y3727753D01*
G01X1681894Y3727276D01*
G01X1681365Y3726798D01*
G01X1681365Y3726071D01*
G01X1681365Y3725345D01*
G01X1680836Y3724636D01*
G01X1680308Y3723926D01*
G01X1680308Y3723189D01*
G01X1680308Y3722451D01*
G01X1679779Y3721973D01*
G01X1679250Y3721496D01*
G01X1679250Y3720723D01*
G01X1679250Y3719950D01*
G01X1678721Y3719601D01*
G01X1678193Y3719253D01*
G01X1678193Y3718485D01*
G01X1678193Y3717717D01*
G01X1677664Y3717369D01*
G01X1677135Y3717021D01*
G01X1677135Y3716186D01*
G01X1677135Y3715351D01*
G01X1676744Y3715351D01*
G01X1676352Y3715351D01*
G01X1676172Y3714593D01*
G01X1675992Y3713835D01*
G01X1675506Y3713284D01*
G01X1675020Y3712734D01*
G01X1675020Y3712368D01*
G01X1675020Y3712002D01*
G01X1674492Y3711444D01*
G01X1673963Y3710886D01*
G01X1673963Y3710358D01*
G01X1673963Y3709829D01*
G01X1673589Y3709678D01*
G01X1673215Y3709527D01*
G01X1672805Y3708741D01*
G01X1672396Y3707956D01*
G01X1671997Y3707075D01*
G01X1671597Y3706193D01*
G01X1671392Y3706098D01*
G01X1671187Y3706002D01*
G01X1670460Y3704871D01*
G01X1669733Y3703740D01*
G01X1669733Y3703473D01*
G01X1669733Y3703206D01*
G01X1669205Y3702858D01*
G01X1668676Y3702510D01*
G01X1668676Y3702093D01*
G01X1668676Y3701677D01*
G01X1668279Y3701677D01*
G01X1667883Y3701677D01*
G01X1667883Y3701302D01*
G01X1667883Y3700926D01*
G01X1667223Y3700116D01*
G01X1666562Y3699305D01*
G01X1666561Y3698956D01*
G01X1666561Y3698607D01*
G01X1666165Y3698607D01*
G01X1665768Y3698607D01*
G01X1665768Y3698343D01*
G01X1665768Y3698078D01*
G01X1665107Y3697325D01*
G01X1664446Y3696573D01*
G01X1664446Y3696334D01*
G01X1664446Y3696096D01*
G01X1664050Y3696096D01*
G01X1663653Y3696096D01*
G01X1663653Y3695779D01*
G01X1663653Y3695462D01*
G01X1663059Y3694844D01*
G01X1662464Y3694225D01*
G01X1661887Y3693416D01*
G01X1661310Y3692608D01*
G01X1660235Y3691432D01*
G01X1659159Y3690257D01*
G01X1659159Y3689967D01*
G01X1659159Y3689678D01*
G01X1658738Y3689678D01*
G01X1658317Y3689678D01*
G01X1658179Y3689119D01*
G01X1658040Y3688561D01*
G01X1657797Y3688561D01*
G01X1657553Y3688561D01*
G01X1656439Y3687426D01*
G01X1655326Y3686291D01*
G01X1654560Y3685682D01*
G01X1653794Y3685073D01*
G01X1653208Y3684445D01*
G01X1652622Y3683817D01*
G01X1652322Y3683817D01*
G01X1652022Y3683817D01*
G01X1652022Y3683399D01*
G01X1652022Y3682980D01*
G01X1651779Y3682980D01*
G01X1651536Y3682980D01*
G01X1650436Y3681864D01*
G01X1649335Y3680747D01*
G01X1649158Y3680747D01*
G01X1648982Y3680747D01*
G01X1648214Y3680049D01*
G01X1647446Y3679352D01*
G01X1647090Y3679352D01*
G01X1646735Y3679352D01*
G01X1646735Y3678934D01*
G01X1646735Y3678515D01*
G01X1646340Y3678515D01*
G01X1645946Y3678515D01*
G01X1645616Y3677957D01*
G01X1645286Y3677399D01*
G01X1645033Y3677399D01*
G01X1644780Y3677399D01*
G01X1643709Y3676632D01*
G01X1642637Y3675866D01*
G01X1642426Y3675516D01*
G01X1642215Y3675166D01*
G01X1641934Y3675166D01*
G01X1641654Y3675166D01*
G01X1640361Y3674282D01*
G01X1639069Y3673398D01*
G01X1639069Y3673166D01*
G01X1639069Y3672934D01*
G01X1638540Y3672934D01*
G01X1638011Y3672934D01*
G01X1637483Y3672376D01*
G01X1636953Y3671818D01*
G01X1636598Y3671818D01*
G01X1636243Y3671818D01*
G01X1635792Y3671291D01*
G01X1635341Y3670765D01*
G01X1634561Y3670601D01*
G01X1633781Y3670437D01*
G01X1633781Y3670011D01*
G01X1633781Y3669585D01*
G01X1632990Y3669585D01*
G01X1632200Y3669585D01*
G01X1631869Y3669027D01*
G01X1631540Y3668469D01*
G01X1630942Y3668469D01*
G01X1630345Y3668469D01*
G01X1629816Y3667911D01*
G01X1629287Y3667353D01*
G01X1628624Y3667353D01*
G01X1627960Y3667353D01*
G01X1627508Y3666794D01*
G01X1627055Y3666236D01*
G01X1626370Y3666236D01*
G01X1625686Y3666236D01*
G01X1625166Y3665725D01*
G01X1624646Y3665213D01*
G01X1623611Y3665036D01*
G01X1622577Y3664859D01*
G01X1622350Y3664431D01*
G01X1622123Y3664004D01*
G01X1621247Y3664004D01*
G01X1620371Y3664004D01*
G01X1619698Y3663446D01*
G01X1619026Y3662888D01*
G01X1618245Y3662888D01*
G01X1617463Y3662888D01*
G01X1616832Y3662369D01*
G01X1616202Y3661850D01*
G01X1614770Y3661707D01*
G01X1613337Y3661565D01*
G01X1613050Y3661150D01*
G01X1612763Y3660736D01*
G01X1611248Y3660603D01*
G01X1609733Y3660470D01*
G01X1609267Y3660039D01*
G01X1608800Y3659608D01*
G01X1606837Y3659468D01*
G01X1604875Y3659328D01*
G01X1604590Y3658915D01*
G01X1604304Y3658504D01*
G01X1601595Y3658366D01*
G01X1598885Y3658229D01*
G01X1598424Y3657794D01*
G01X1597962Y3657358D01*
G01X1593441Y3657263D01*
G01X1588920Y3657167D01*
G01X1588225Y3656469D01*
G01X1587529Y3655772D01*
G01X1587524Y3647340D01*
G01X1587520Y3638908D01*
G01X1588031Y3638620D01*
G01X1588543Y3638331D01*
G01X1588994Y3638331D01*
G01X1589444Y3638331D01*
G01X1589764Y3637869D01*
G01X1590084Y3637407D01*
G01X1591644Y3637276D01*
G01X1593204Y3637145D01*
G01X1593676Y3636621D01*
G01X1594149Y3636098D01*
G01X1595064Y3636098D01*
G01X1595979Y3636098D01*
G01X1595979Y3635701D01*
G01X1595979Y3635305D01*
G01X1596838Y3635111D01*
G01X1597698Y3634917D01*
G01X1598170Y3634391D01*
G01X1598643Y3633866D01*
G01X1599152Y3633866D01*
G01X1599662Y3633866D01*
G01X1599944Y3633308D01*
G01X1600227Y3632749D01*
G01X1600526Y3632749D01*
G01X1600825Y3632749D01*
G01X1601244Y3632355D01*
G01X1601663Y3631961D01*
G01X1604042Y3629466D01*
G01X1606421Y3626972D01*
G01X1607016Y3626209D01*
G01X1607611Y3625446D01*
G01X1607611Y3625191D01*
G01X1607611Y3624935D01*
G01X1607978Y3624935D01*
G01X1608345Y3624935D01*
G01X1608518Y3623959D01*
G01X1608692Y3622982D01*
G01X1609047Y3622982D01*
G01X1609402Y3622982D01*
G01X1609578Y3621991D01*
G01X1609754Y3620999D01*
G01X1610106Y3620857D01*
G01X1610456Y3620715D01*
G01X1610623Y3619616D01*
G01X1610789Y3618517D01*
G01X1611150Y3618517D01*
G01X1611511Y3618517D01*
G01X1611631Y3616977D01*
G01X1611752Y3615437D01*
G01X1612223Y3615074D01*
G01X1612693Y3614711D01*
G01X1612697Y3607536D01*
G01X1612700Y3600361D01*
G01X1612204Y3599783D01*
G01X1611708Y3599204D01*
G01X1611708Y3597244D01*
G01X1611708Y3595283D01*
G01X1612237Y3594970D01*
G01X1612765Y3594657D01*
G01X1612971Y3594320D01*
G01X1613176Y3593983D01*
G01X1614095Y3593800D01*
G01X1615012Y3593619D01*
G01X1615012Y3593253D01*
G01X1615012Y3592888D01*
G01X1615871Y3592689D01*
G01X1616731Y3592489D01*
G01X1617076Y3591969D01*
G01X1617422Y3591448D01*
G01X1617894Y3591448D01*
G01X1618367Y3591448D01*
G01X1618845Y3590890D01*
G01X1619324Y3590332D01*
G01X1619783Y3590332D01*
G01X1620243Y3590332D01*
G01X1620382Y3589949D01*
G01X1620521Y3589567D01*
G01X1621269Y3589369D01*
G01X1622018Y3589171D01*
G01X1622491Y3588635D01*
G01X1622964Y3588099D01*
G01X1623506Y3588099D01*
G01X1624048Y3588099D01*
G01X1624520Y3587484D01*
G01X1624993Y3586868D01*
G01X1626017Y3587135D01*
G01X1627041Y3587402D01*
G01X1627293Y3588309D01*
G01X1627546Y3589216D01*
G01X1627870Y3589216D01*
G01X1628195Y3589216D01*
G01X1628371Y3589802D01*
G01X1628547Y3590387D01*
G01X1629049Y3590918D01*
G01X1629552Y3591448D01*
G01X1629552Y3592007D01*
G01X1629552Y3592565D01*
G01X1629957Y3592565D01*
G01X1630361Y3592565D01*
G01X1630528Y3593053D01*
G01X1630695Y3593542D01*
G01X1631056Y3593960D01*
G01X1631417Y3594378D01*
G01X1632071Y3595160D01*
G01X1632724Y3595942D01*
G01X1632724Y3596336D01*
G01X1632724Y3596731D01*
G01X1633253Y3597030D01*
G01X1633781Y3597328D01*
G01X1633781Y3597606D01*
G01X1633781Y3597884D01*
G01X1634839Y3598911D01*
G01X1635896Y3599937D01*
G01X1635896Y3600297D01*
G01X1635896Y3600657D01*
G01X1636293Y3600657D01*
G01X1636689Y3600657D01*
G01X1636689Y3600968D01*
G01X1636689Y3601280D01*
G01X1640624Y3605433D01*
G01X1644559Y3609587D01*
G01X1644854Y3609587D01*
G01X1645149Y3609587D01*
G01X1645149Y3610006D01*
G01X1645149Y3610424D01*
G01X1645385Y3610424D01*
G01X1645622Y3610424D01*
G01X1646881Y3611680D01*
G01X1648141Y3612936D01*
G01X1648363Y3612936D01*
G01X1648585Y3612936D01*
G01X1648585Y3613355D01*
G01X1648585Y3613773D01*
G01X1648915Y3613774D01*
G01X1649246Y3613774D01*
G01X1650014Y3614471D01*
G01X1650782Y3615168D01*
G01X1651137Y3615168D01*
G01X1651493Y3615168D01*
G01X1651493Y3615587D01*
G01X1651493Y3616006D01*
G01X1651875Y3616006D01*
G01X1652256Y3616006D01*
G01X1652602Y3616494D01*
G01X1652947Y3616982D01*
G01X1653674Y3617378D01*
G01X1654401Y3617774D01*
G01X1654401Y3618006D01*
G01X1654401Y3618238D01*
G01X1654800Y3618238D01*
G01X1655199Y3618238D01*
G01X1655652Y3618797D01*
G01X1656105Y3619354D01*
G01X1656401Y3619354D01*
G01X1656698Y3619354D01*
G01X1657177Y3619912D01*
G01X1657655Y3620471D01*
G01X1658013Y3620471D01*
G01X1658372Y3620471D01*
G01X1658824Y3621029D01*
G01X1659277Y3621587D01*
G01X1659565Y3621587D01*
G01X1659853Y3621587D01*
G01X1660374Y3622100D01*
G01X1660895Y3622613D01*
G01X1661614Y3622802D01*
G01X1662331Y3622993D01*
G01X1662331Y3623406D01*
G01X1662331Y3623820D01*
G01X1662995Y3623820D01*
G01X1663658Y3623820D01*
G01X1664111Y3624377D01*
G01X1664564Y3624935D01*
G01X1665034Y3624935D01*
G01X1665504Y3624935D01*
G01X1666033Y3625494D01*
G01X1666561Y3626052D01*
G01X1667090Y3626052D01*
G01X1667619Y3626052D01*
G01X1668147Y3626610D01*
G01X1668676Y3627168D01*
G01X1669205Y3627168D01*
G01X1669733Y3627168D01*
G01X1670262Y3627726D01*
G01X1670791Y3628284D01*
G01X1671454Y3628284D01*
G01X1672118Y3628284D01*
G01X1672570Y3628843D01*
G01X1673023Y3629400D01*
G01X1673760Y3629400D01*
G01X1674497Y3629400D01*
G01X1674950Y3629959D01*
G01X1675403Y3630517D01*
G01X1676269Y3630517D01*
G01X1677135Y3630517D01*
G01X1677624Y3631033D01*
G01X1678112Y3631548D01*
G01X1679230Y3631706D01*
G01X1680349Y3631865D01*
G01X1680811Y3632307D01*
G01X1681274Y3632749D01*
G01X1681968Y3632749D01*
G01X1682662Y3632749D01*
G01X1683335Y3633073D01*
G01X1684008Y3633397D01*
G01X1684008Y3633597D01*
G01X1684008Y3633796D01*
G01X1685502Y3633927D01*
G01X1686996Y3634058D01*
G01X1687290Y3634483D01*
G01X1687584Y3634908D01*
G01X1689397Y3635030D01*
G01X1691210Y3635152D01*
G01X1691510Y3635585D01*
G01X1691810Y3636019D01*
G01X1693986Y3636151D01*
G01X1696162Y3636284D01*
G01X1696628Y3636720D01*
G01X1697094Y3637156D01*
G01X1699914Y3637261D01*
G01X1702735Y3637366D01*
G01X1703239Y3637849D01*
G01X1703744Y3638331D01*
G01X1715599Y3638331D01*
G01X1727453Y3638331D01*
G01X1727942Y3637863D01*
G01X1728432Y3637395D01*
G01X1731400Y3637273D01*
G01X1734368Y3637150D01*
G01X1734834Y3636717D01*
G01X1735299Y3636284D01*
G01X1737475Y3636151D01*
G01X1739652Y3636019D01*
G01X1739955Y3635581D01*
G01X1740258Y3635143D01*
G01X1742137Y3635031D01*
G01X1744017Y3634919D01*
G01X1744017Y3634564D01*
G01X1744017Y3634210D01*
G01X1744611Y3634041D01*
G01X1745206Y3633873D01*
G01X1746102Y3633870D01*
G01X1746998Y3633866D01*
G01X1747308Y3633418D01*
G01X1747618Y3632972D01*
G01X1748923Y3632817D01*
G01X1750229Y3632662D01*
G01X1750515Y3632251D01*
G01X1750801Y3631839D01*
G01X1752167Y3631700D01*
G01X1753533Y3631562D01*
G01X1753533Y3631191D01*
G01X1753533Y3630821D01*
G01X1754525Y3630629D01*
G01X1755516Y3630436D01*
G01X1756146Y3629918D01*
G01X1756777Y3629400D01*
G01X1757534Y3629400D01*
G01X1758291Y3629400D01*
G01X1758821Y3628843D01*
G01X1759349Y3628284D01*
G01X1759951Y3628284D01*
G01X1760553Y3628284D01*
G01X1761006Y3627726D01*
G01X1761458Y3627168D01*
G01X1762254Y3627168D01*
G01X1763050Y3627168D01*
G01X1763050Y3626772D01*
G01X1763050Y3626375D01*
G01X1763909Y3626181D01*
G01X1764768Y3625987D01*
G01X1765241Y3625461D01*
G01X1765714Y3624935D01*
G01X1766301Y3624935D01*
G01X1766888Y3624935D01*
G01X1767218Y3624377D01*
G01X1767548Y3623820D01*
G01X1768034Y3623820D01*
G01X1768519Y3623820D01*
G01X1768998Y3623261D01*
G01X1769477Y3622703D01*
G01X1769964Y3622703D01*
G01X1770452Y3622703D01*
G01X1770452Y3622307D01*
G01X1770452Y3621911D01*
G01X1771311Y3621711D01*
G01X1772170Y3621512D01*
G01X1772515Y3620991D01*
G01X1772861Y3620471D01*
G01X1773214Y3620471D01*
G01X1773567Y3620471D01*
G01X1773706Y3620088D01*
G01X1773845Y3619705D01*
G01X1774582Y3619510D01*
G01X1775318Y3619315D01*
G01X1775676Y3618776D01*
G01X1776033Y3618238D01*
G01X1776283Y3618238D01*
G01X1776532Y3618238D01*
G01X1777061Y3617680D01*
G01X1777589Y3617122D01*
G01X1778118Y3617122D01*
G01X1778647Y3617122D01*
G01X1778647Y3616694D01*
G01X1778647Y3616267D01*
G01X1779109Y3616092D01*
G01X1779572Y3615917D01*
G01X1780010Y3615473D01*
G01X1780448Y3615029D01*
G01X1781068Y3614538D01*
G01X1781687Y3614047D01*
G01X1782518Y3613352D01*
G01X1783349Y3612657D01*
G01X1783641Y3612657D01*
G01X1783934Y3612657D01*
G01X1783934Y3612238D01*
G01X1783934Y3611820D01*
G01X1784164Y3611820D01*
G01X1784395Y3611820D01*
G01X1786191Y3610006D01*
G01X1787987Y3608192D01*
G01X1788207Y3608192D01*
G01X1788428Y3608192D01*
G01X1788428Y3607774D01*
G01X1788428Y3607355D01*
G01X1788712Y3607355D01*
G01X1788997Y3607355D01*
G01X1789770Y3606539D01*
G01X1790543Y3605723D01*
G01X1790543Y3605456D01*
G01X1790543Y3605187D01*
G01X1791071Y3605041D01*
G01X1791600Y3604896D01*
G01X1791600Y3604483D01*
G01X1791600Y3604071D01*
G01X1792129Y3603925D01*
G01X1792657Y3603779D01*
G01X1792657Y3603335D01*
G01X1792657Y3602890D01*
G01X1793054Y3602890D01*
G01X1793451Y3602890D01*
G01X1793451Y3602623D01*
G01X1793451Y3602356D01*
G01X1795037Y3600634D01*
G01X1796623Y3598913D01*
G01X1796623Y3598679D01*
G01X1796623Y3598445D01*
G01X1797151Y3598146D01*
G01X1797680Y3597847D01*
G01X1797680Y3597462D01*
G01X1797680Y3597077D01*
G01X1798275Y3596338D01*
G01X1798870Y3595598D01*
G01X1799861Y3594478D01*
G01X1800852Y3593356D01*
G01X1800852Y3593185D01*
G01X1800852Y3593013D01*
G01X1801579Y3591882D01*
G01X1802305Y3590751D01*
G01X1802636Y3590527D01*
G01X1802967Y3590304D01*
G01X1802967Y3589943D01*
G01X1802967Y3589581D01*
G01X1803496Y3589076D01*
G01X1804024Y3588572D01*
G01X1804024Y3588216D01*
G01X1804024Y3587861D01*
G01X1804469Y3587392D01*
G01X1804913Y3586923D01*
G01X1805379Y3586046D01*
G01X1805845Y3585170D01*
G01X1806150Y3584402D01*
G01X1806455Y3583635D01*
G01X1806826Y3583635D01*
G01X1807197Y3583635D01*
G01X1807197Y3582934D01*
G01X1807197Y3582234D01*
G01X1807726Y3581756D01*
G01X1808254Y3581278D01*
G01X1808254Y3580782D01*
G01X1808254Y3580286D01*
G01X1808783Y3579728D01*
G01X1809312Y3579170D01*
G01X1809312Y3578611D01*
G01X1809312Y3578054D01*
G01X1809814Y3577524D01*
G01X1810315Y3576994D01*
G01X1810500Y3576110D01*
G01X1810683Y3575225D01*
G01X1811024Y3575087D01*
G01X1811364Y3574950D01*
G01X1811530Y3573851D01*
G01X1811697Y3572752D01*
G01X1812091Y3572752D01*
G01X1812484Y3572752D01*
G01X1812484Y3571914D01*
G01X1812484Y3571077D01*
G01X1812972Y3570562D01*
G01X1813461Y3570046D01*
G01X1813616Y3568827D01*
G01X1813771Y3567609D01*
G01X1814185Y3567289D01*
G01X1814598Y3566969D01*
G01X1814598Y3566270D01*
G01X1814598Y3565572D01*
G01X1815128Y3564861D01*
G01X1815656Y3564152D01*
G01X1815656Y3563150D01*
G01X1815656Y3562147D01*
G01X1816185Y3561589D01*
G01X1816714Y3561031D01*
G01X1816714Y3559928D01*
G01X1816714Y3558825D01*
G01X1817020Y3558114D01*
G01X1817327Y3557403D01*
G01X1817549Y3557403D01*
G01X1817771Y3557403D01*
G01X1817771Y3555906D01*
G01X1817771Y3554409D01*
G01X1818263Y3553743D01*
G01X1818755Y3553078D01*
G01X1818887Y3550870D01*
G01X1819019Y3548663D01*
G01X1819452Y3548328D01*
G01X1819886Y3547993D01*
G01X1819886Y3545789D01*
G01X1819886Y3543586D01*
G01X1820145Y3542630D01*
G01X1820405Y3541676D01*
G01X1820717Y3541472D01*
G01X1821030Y3541268D01*
G01X1821027Y3526724D01*
G01X1821025Y3512181D01*
G01X1820546Y3511811D01*
G01X1820067Y3511441D01*
G01X1819939Y3508402D01*
G01X1819811Y3505362D01*
G01X1819392Y3505039D01*
G01X1818974Y3504716D01*
G01X1818872Y3502596D01*
G01X1818770Y3500475D01*
G01X1818577Y3500475D01*
G01X1818384Y3500475D01*
G01X1818078Y3499765D01*
G01X1817771Y3499054D01*
G01X1817771Y3497772D01*
G01X1817771Y3496490D01*
G01X1817340Y3496158D01*
G01X1816909Y3495824D01*
G01X1816774Y3494313D01*
G01X1816639Y3492801D01*
G01X1816148Y3492135D01*
G01X1815656Y3491470D01*
G01X1815660Y3490880D01*
G01X1815664Y3490289D01*
G01X1815819Y3489678D01*
G01X1815974Y3489065D01*
G01X1816803Y3488874D01*
G01X1817632Y3488681D01*
G01X1817904Y3488288D01*
G01X1818177Y3487894D01*
G01X1818833Y3487498D01*
G01X1819489Y3487102D01*
G01X1820064Y3486777D01*
G01X1820639Y3486452D01*
G01X1821596Y3486641D01*
G01X1822553Y3486831D01*
G01X1822806Y3487532D01*
G01X1823058Y3488233D01*
G01X1823058Y3488850D01*
G01X1823058Y3489468D01*
G01X1823586Y3489946D01*
G01X1824116Y3490423D01*
G01X1824116Y3491311D01*
G01X1824116Y3492199D01*
G01X1824534Y3492688D01*
G01X1824953Y3493177D01*
G01X1825106Y3494384D01*
G01X1825258Y3495592D01*
G01X1825639Y3495887D01*
G01X1826019Y3496184D01*
G01X1826166Y3497562D01*
G01X1826313Y3498940D01*
G01X1826703Y3499242D01*
G01X1827092Y3499544D01*
G01X1827227Y3501056D01*
G01X1827362Y3502568D01*
G01X1827854Y3503234D01*
G01X1828345Y3503899D01*
G01X1828345Y3505296D01*
G01X1828345Y3506692D01*
G01X1828793Y3507038D01*
G01X1829241Y3507384D01*
G01X1829357Y3509298D01*
G01X1829472Y3511211D01*
G01X1829897Y3511539D01*
G01X1830321Y3511867D01*
G01X1830412Y3514194D01*
G01X1830503Y3516521D01*
G01X1830932Y3516873D01*
G01X1831361Y3517224D01*
G01X1831468Y3519942D01*
G01X1831575Y3522661D01*
G01X1832009Y3523178D01*
G01X1832442Y3523695D01*
G01X1832533Y3527503D01*
G01X1832623Y3531311D01*
G01X1833062Y3531829D01*
G01X1833500Y3532346D01*
G01X1833500Y3548166D01*
G01X1833500Y3563986D01*
G01X1833069Y3564679D01*
G01X1832639Y3565372D01*
G01X1832533Y3569230D01*
G01X1832426Y3573088D01*
G01X1831999Y3573418D01*
G01X1831572Y3573747D01*
G01X1831479Y3576430D01*
G01X1831385Y3579112D01*
G01X1830950Y3579629D01*
G01X1830515Y3580146D01*
G01X1830417Y3582285D01*
G01X1830320Y3584422D01*
G01X1829890Y3584936D01*
G01X1829461Y3585449D01*
G01X1829354Y3587316D01*
G01X1829247Y3589184D01*
G01X1828829Y3589689D01*
G01X1828410Y3590193D01*
G01X1828281Y3591696D01*
G01X1828152Y3593198D01*
G01X1827720Y3593454D01*
G01X1827288Y3593709D01*
G01X1827288Y3595052D01*
G01X1827288Y3596396D01*
G01X1826759Y3597106D01*
G01X1826230Y3597816D01*
G01X1826230Y3598780D01*
G01X1826230Y3599745D01*
G01X1825702Y3600455D01*
G01X1825173Y3601164D01*
G01X1825173Y3602156D01*
G01X1825173Y3603147D01*
G01X1824680Y3603647D01*
G01X1824188Y3604145D01*
G01X1824039Y3605379D01*
G01X1823889Y3606612D01*
G01X1823473Y3606858D01*
G01X1823058Y3607104D01*
G01X1823058Y3607774D01*
G01X1823058Y3608445D01*
G01X1822751Y3609156D01*
G01X1822444Y3609866D01*
G01X1822257Y3609866D01*
G01X1822070Y3609866D01*
G01X1821922Y3611030D01*
G01X1821774Y3612194D01*
G01X1821359Y3612439D01*
G01X1820943Y3612685D01*
G01X1820943Y3613369D01*
G01X1820943Y3614053D01*
G01X1820414Y3614610D01*
G01X1819886Y3615168D01*
G01X1819886Y3615829D01*
G01X1819886Y3616489D01*
G01X1819357Y3617198D01*
G01X1818828Y3617907D01*
G01X1818828Y3618454D01*
G01X1818828Y3619000D01*
G01X1818300Y3619710D01*
G01X1817771Y3620419D01*
G01X1817771Y3620820D01*
G01X1817771Y3621221D01*
G01X1817242Y3621726D01*
G01X1816714Y3622232D01*
G01X1816714Y3622708D01*
G01X1816714Y3623186D01*
G01X1816185Y3623895D01*
G01X1815656Y3624605D01*
G01X1815656Y3625052D01*
G01X1815656Y3625499D01*
G01X1815128Y3625977D01*
G01X1814598Y3626455D01*
G01X1814598Y3626951D01*
G01X1814598Y3627447D01*
G01X1814097Y3627977D01*
G01X1813595Y3628507D01*
G01X1813415Y3629372D01*
G01X1813235Y3630238D01*
G01X1812859Y3630238D01*
G01X1812484Y3630238D01*
G01X1812484Y3630758D01*
G01X1812484Y3631279D01*
G01X1811955Y3631988D01*
G01X1811426Y3632697D01*
G01X1811426Y3633000D01*
G01X1811426Y3633303D01*
G01X1810898Y3633651D01*
G01X1810369Y3634000D01*
G01X1810369Y3634490D01*
G01X1810369Y3634982D01*
G01X1809866Y3635512D01*
G01X1809364Y3636043D01*
G01X1809188Y3636629D01*
G01X1809012Y3637214D01*
G01X1808663Y3637214D01*
G01X1808313Y3637214D01*
G01X1808140Y3638191D01*
G01X1807966Y3639167D01*
G01X1807610Y3639167D01*
G01X1807254Y3639167D01*
G01X1807089Y3639865D01*
G01X1806923Y3640563D01*
G01X1806531Y3640563D01*
G01X1806140Y3640563D01*
G01X1806140Y3641121D01*
G01X1806140Y3641679D01*
G01X1805611Y3642237D01*
G01X1805082Y3642796D01*
G01X1805082Y3643072D01*
G01X1805082Y3643349D01*
G01X1804553Y3643698D01*
G01X1804024Y3644046D01*
G01X1804024Y3644287D01*
G01X1804024Y3644528D01*
G01X1803364Y3645358D01*
G01X1802703Y3646187D01*
G01X1802703Y3646584D01*
G01X1802703Y3646981D01*
G01X1802306Y3646981D01*
G01X1801910Y3646981D01*
G01X1801910Y3647384D01*
G01X1801910Y3647787D01*
G01X1801430Y3648151D01*
G01X1800950Y3648516D01*
G01X1800777Y3649004D01*
G01X1800604Y3649493D01*
G01X1800200Y3649493D01*
G01X1799795Y3649493D01*
G01X1799795Y3649890D01*
G01X1799795Y3650287D01*
G01X1799134Y3651116D01*
G01X1798473Y3651945D01*
G01X1798473Y3652254D01*
G01X1798473Y3652563D01*
G01X1798077Y3652563D01*
G01X1797680Y3652563D01*
G01X1797680Y3652812D01*
G01X1797680Y3653062D01*
G01X1796491Y3654391D01*
G01X1795301Y3655721D01*
G01X1795301Y3655956D01*
G01X1795301Y3656190D01*
G01X1794904Y3656190D01*
G01X1794508Y3656190D01*
G01X1794508Y3656473D01*
G01X1794508Y3656756D01*
G01X1793252Y3658213D01*
G01X1791997Y3659670D01*
G01X1788346Y3663511D01*
G01X1784696Y3667353D01*
G01X1784315Y3667353D01*
G01X1783934Y3667353D01*
G01X1783934Y3667797D01*
G01X1783934Y3668242D01*
G01X1783405Y3668388D01*
G01X1782877Y3668534D01*
G01X1782877Y3668928D01*
G01X1782877Y3669323D01*
G01X1782467Y3669490D01*
G01X1782057Y3669655D01*
G01X1780991Y3670736D01*
G01X1779926Y3671818D01*
G01X1779682Y3671818D01*
G01X1779440Y3671818D01*
G01X1779440Y3672236D01*
G01X1779440Y3672655D01*
G01X1779053Y3672655D01*
G01X1778665Y3672655D01*
G01X1778384Y3673210D01*
G01X1778103Y3673764D01*
G01X1777443Y3673939D01*
G01X1776783Y3674114D01*
G01X1776516Y3674640D01*
G01X1776249Y3675166D01*
G01X1775925Y3675166D01*
G01X1775602Y3675166D01*
G01X1775271Y3675724D01*
G01X1774941Y3676282D01*
G01X1774547Y3676282D01*
G01X1774153Y3676282D01*
G01X1774153Y3676701D01*
G01X1774153Y3677120D01*
G01X1773861Y3677120D01*
G01X1773569Y3677120D01*
G01X1772783Y3677817D01*
G01X1771998Y3678515D01*
G01X1771685Y3678515D01*
G01X1771372Y3678515D01*
G01X1771042Y3679073D01*
G01X1770711Y3679632D01*
G01X1770318Y3679632D01*
G01X1769923Y3679632D01*
G01X1769923Y3680028D01*
G01X1769923Y3680424D01*
G01X1769128Y3680609D01*
G01X1768333Y3680793D01*
G01X1768061Y3681328D01*
G01X1767789Y3681864D01*
G01X1767271Y3681864D01*
G01X1766751Y3681864D01*
G01X1766751Y3682282D01*
G01X1766751Y3682701D01*
G01X1766375Y3682701D01*
G01X1765998Y3682701D01*
G01X1765213Y3683399D01*
G01X1764427Y3684096D01*
G01X1764194Y3684096D01*
G01X1763961Y3684096D01*
G01X1763508Y3684655D01*
G01X1763055Y3685212D01*
G01X1762392Y3685212D01*
G01X1761728Y3685212D01*
G01X1761728Y3685625D01*
G01X1761728Y3686039D01*
G01X1761086Y3686209D01*
G01X1760445Y3686379D01*
G01X1760314Y3686737D01*
G01X1760185Y3687094D01*
G01X1759437Y3687292D01*
G01X1758688Y3687490D01*
G01X1758215Y3688026D01*
G01X1757743Y3688561D01*
G01X1757091Y3688561D01*
G01X1756441Y3688561D01*
G01X1756441Y3688987D01*
G01X1756441Y3689412D01*
G01X1755662Y3689577D01*
G01X1754882Y3689741D01*
G01X1754431Y3690268D01*
G01X1753980Y3690793D01*
G01X1753520Y3690793D01*
G01X1753061Y3690793D01*
G01X1752918Y3691186D01*
G01X1752776Y3691578D01*
G01X1751938Y3691772D01*
G01X1751100Y3691967D01*
G01X1750599Y3692496D01*
G01X1750097Y3693026D01*
G01X1749464Y3693026D01*
G01X1748831Y3693026D01*
G01X1748685Y3693429D01*
G01X1748539Y3693832D01*
G01X1747618Y3694015D01*
G01X1746696Y3694197D01*
G01X1746564Y3694562D01*
G01X1746432Y3694927D01*
G01X1745554Y3695129D01*
G01X1744677Y3695331D01*
G01X1744047Y3695853D01*
G01X1743416Y3696375D01*
G01X1742718Y3696375D01*
G01X1742020Y3696375D01*
G01X1741567Y3696933D01*
G01X1741114Y3697491D01*
G01X1740186Y3697491D01*
G01X1739258Y3697491D01*
G01X1739258Y3697897D01*
G01X1739258Y3698303D01*
G01X1738267Y3698496D01*
G01X1737275Y3698688D01*
G01X1736645Y3699206D01*
G01X1736014Y3699723D01*
G01X1735654Y3699723D01*
G01X1735293Y3699723D01*
G01X1735293Y3702105D01*
G01X1735293Y3704487D01*
G01X1735755Y3705232D01*
G01X1736218Y3705976D01*
G01X1736294Y3711431D01*
G01X1736371Y3716886D01*
G01X1736691Y3717556D01*
G01X1737011Y3718226D01*
G01X1737011Y3725397D01*
G01X1737011Y3732568D01*
G01X1736691Y3733238D01*
G01X1736370Y3733908D01*
G01X1736294Y3739530D01*
G01X1736218Y3745152D01*
G01X1735782Y3745670D01*
G01X1735346Y3746187D01*
G01X1735252Y3749438D01*
G01X1735159Y3752688D01*
G01X1734727Y3753205D01*
G01X1734295Y3753722D01*
G01X1734184Y3756291D01*
G01X1734074Y3758860D01*
G01X1733655Y3759360D01*
G01X1733237Y3759861D01*
G01X1733127Y3761778D01*
G01X1733017Y3763696D01*
G01X1732603Y3764014D01*
G01X1732190Y3764334D01*
G01X1732075Y3766247D01*
G01X1731959Y3768160D01*
G01X1731511Y3768506D01*
G01X1731063Y3768852D01*
G01X1731063Y3770110D01*
G01X1731063Y3771367D01*
G01X1730535Y3772076D01*
G01X1730006Y3772786D01*
G01X1730006Y3773890D01*
G01X1730006Y3774994D01*
G01X1729477Y3775704D01*
G01X1728948Y3776413D01*
G01X1728948Y3777378D01*
G01X1728948Y3778343D01*
G01X1728420Y3779052D01*
G01X1727891Y3779762D01*
G01X1727891Y3780625D01*
G01X1727891Y3781488D01*
G01X1727402Y3782004D01*
G01X1726914Y3782519D01*
G01X1726759Y3783738D01*
G01X1726605Y3784957D01*
G01X1726190Y3785276D01*
G01X1725776Y3785596D01*
G01X1725776Y3786332D01*
G01X1725776Y3787069D01*
G01X1725248Y3787627D01*
G01X1724719Y3788185D01*
G01X1724719Y3788985D01*
G01X1724719Y3789784D01*
G01X1724224Y3790450D01*
G01X1723730Y3791115D01*
G01X1723538Y3792041D01*
G01X1723347Y3792967D01*
G01X1723007Y3793105D01*
G01X1722666Y3793243D01*
G01X1722500Y3794342D01*
G01X1722333Y3795441D01*
G01X1721974Y3795441D01*
G01X1721614Y3795441D01*
G01X1721445Y3796557D01*
G01X1721276Y3797673D01*
G01X1720916Y3797673D01*
G01X1720557Y3797673D01*
G01X1720388Y3798790D01*
G01X1720218Y3799906D01*
G01X1719859Y3799906D01*
G01X1719499Y3799906D01*
G01X1719330Y3801022D01*
G01X1719161Y3802138D01*
G01X1718797Y3802138D01*
G01X1718433Y3802138D01*
G01X1718257Y3803129D01*
G01X1718081Y3804121D01*
G01X1717699Y3804276D01*
G01X1717317Y3804430D01*
G01X1717317Y3804916D01*
G01X1717317Y3805401D01*
G01X1716788Y3805905D01*
G01X1716260Y3806411D01*
G01X1716260Y3806910D01*
G01X1716260Y3807409D01*
G01X1715766Y3807774D01*
G01X1715273Y3808138D01*
G01X1715085Y3809045D01*
G01X1714896Y3809952D01*
G01X1714520Y3809952D01*
G01X1714145Y3809952D01*
G01X1714145Y3810467D01*
G01X1714145Y3810982D01*
G01X1713616Y3811487D01*
G01X1713088Y3811992D01*
G01X1713088Y3812370D01*
G01X1713088Y3812748D01*
G01X1712558Y3813226D01*
G01X1712030Y3813704D01*
G01X1712030Y3813975D01*
G01X1712030Y3814248D01*
G01X1711304Y3815379D01*
G01X1710577Y3816510D01*
G01X1710246Y3816733D01*
G01X1709915Y3816957D01*
G01X1709915Y3817251D01*
G01X1709915Y3817545D01*
G01X1709254Y3818375D01*
G01X1708594Y3819203D01*
G01X1708594Y3819601D01*
G01X1708594Y3819998D01*
G01X1708225Y3819998D01*
G01X1707857Y3819998D01*
G01X1707692Y3820696D01*
G01X1707526Y3821393D01*
G01X1707163Y3821393D01*
G01X1706800Y3821393D01*
G01X1706618Y3822159D01*
G01X1706436Y3822924D01*
G01X1706062Y3823345D01*
G01X1705688Y3823765D01*
G01X1704629Y3824974D01*
G01X1703570Y3826183D01*
G01X1703570Y3826329D01*
G01X1703570Y3826475D01*
G01X1702912Y3827353D01*
G01X1702254Y3828230D01*
G01X1701789Y3828885D01*
G01X1701324Y3829540D01*
G01X1699829Y3831195D01*
G01X1698335Y3832850D01*
G01X1698185Y3833261D01*
G01X1698036Y3833672D01*
G01X1697631Y3833672D01*
G01X1697226Y3833672D01*
G01X1697226Y3834077D01*
G01X1697226Y3834482D01*
G01X1696866Y3834705D01*
G01X1696506Y3834928D01*
G01X1695178Y3836602D01*
G01X1693849Y3838277D01*
G01X1692424Y3839811D01*
G01X1690999Y3841346D01*
G01X1689162Y3843020D01*
G01X1687324Y3844695D01*
G01X1686759Y3845323D01*
G01X1686195Y3845950D01*
G01X1685895Y3845950D01*
G01X1685594Y3845950D01*
G01X1685594Y3846378D01*
G01X1685594Y3846805D01*
G01X1685185Y3846971D01*
G01X1684776Y3847137D01*
G01X1683710Y3848218D01*
G01X1682644Y3849299D01*
G01X1682401Y3849299D01*
G01X1682158Y3849299D01*
G01X1682158Y3849718D01*
G01X1682158Y3850137D01*
G01X1681858Y3850137D01*
G01X1681558Y3850137D01*
G01X1680945Y3850834D01*
G01X1680333Y3851532D01*
G01X1679791Y3851532D01*
G01X1679250Y3851532D01*
G01X1679250Y3851959D01*
G01X1679250Y3852386D01*
G01X1678788Y3852569D01*
G01X1678325Y3852751D01*
G01X1677980Y3853257D01*
G01X1677634Y3853764D01*
G01X1677252Y3853764D01*
G01X1676871Y3853764D01*
G01X1676871Y3854183D01*
G01X1676871Y3854602D01*
G01X1676494Y3854602D01*
G01X1676118Y3854602D01*
G01X1675333Y3855299D01*
G01X1674548Y3855997D01*
G01X1674319Y3855997D01*
G01X1674090Y3855997D01*
G01X1673760Y3856555D01*
G01X1673430Y3857113D01*
G01X1673168Y3857113D01*
G01X1672906Y3857113D01*
G01X1672377Y3857671D01*
G01X1671848Y3858229D01*
G01X1671320Y3858229D01*
G01X1670791Y3858229D01*
G01X1670791Y3858642D01*
G01X1670791Y3859056D01*
G01X1670130Y3859231D01*
G01X1669469Y3859406D01*
G01X1669469Y3859782D01*
G01X1669469Y3860157D01*
G01X1668544Y3860341D01*
G01X1667619Y3860524D01*
G01X1667619Y3860893D01*
G01X1667619Y3861261D01*
G01X1667064Y3861447D01*
G01X1666509Y3861633D01*
G01X1666006Y3862164D01*
G01X1665504Y3862694D01*
G01X1665039Y3862694D01*
G01X1664574Y3862694D01*
G01X1664243Y3863252D01*
G01X1663913Y3863810D01*
G01X1663627Y3863810D01*
G01X1663340Y3863810D01*
G01X1662668Y3864369D01*
G01X1661996Y3864927D01*
G01X1661503Y3864927D01*
G01X1661010Y3864927D01*
G01X1661010Y3865323D01*
G01X1661010Y3865720D01*
G01X1660151Y3865919D01*
G01X1659291Y3866118D01*
G01X1658946Y3866638D01*
G01X1658600Y3867159D01*
G01X1658013Y3867159D01*
G01X1657426Y3867159D01*
G01X1656974Y3867717D01*
G01X1656521Y3868275D01*
G01X1656030Y3868275D01*
G01X1655541Y3868275D01*
G01X1655062Y3868834D01*
G01X1654583Y3869392D01*
G01X1654204Y3869392D01*
G01X1653824Y3869392D01*
G01X1653152Y3869950D01*
G01X1652479Y3870508D01*
G01X1652094Y3870508D01*
G01X1651708Y3870508D01*
G01X1651036Y3871066D01*
G01X1650364Y3871624D01*
G01X1649847Y3871624D01*
G01X1649330Y3871624D01*
G01X1648658Y3872182D01*
G01X1647985Y3872740D01*
G01X1647291Y3872740D01*
G01X1646598Y3872740D01*
G01X1646267Y3873298D01*
G01X1645937Y3873857D01*
G01X1645205Y3873857D01*
G01X1644473Y3873857D01*
G01X1644021Y3874415D01*
G01X1643568Y3874973D01*
G01X1642880Y3874973D01*
G01X1642192Y3874973D01*
G01X1641520Y3875531D01*
G01X1640848Y3876089D01*
G01X1640090Y3876089D01*
G01X1639333Y3876089D01*
G01X1638804Y3876647D01*
G01X1638275Y3877205D01*
G01X1637350Y3877205D01*
G01X1636425Y3877205D01*
G01X1636425Y3877439D01*
G01X1636425Y3877674D01*
G01X1635752Y3877998D01*
G01X1635078Y3878322D01*
G01X1634385Y3878322D01*
G01X1633691Y3878322D01*
G01X1633228Y3878764D01*
G01X1632765Y3879206D01*
G01X1631621Y3879359D01*
G01X1630477Y3879511D01*
G01X1630010Y3879941D01*
G01X1629544Y3880369D01*
G01X1628058Y3880499D01*
G01X1626572Y3880629D01*
G01X1626080Y3881150D01*
G01X1625587Y3881671D01*
G01X1624352Y3881671D01*
G01X1623117Y3881671D01*
G01X1622618Y3882147D01*
G01X1622120Y3882623D01*
G01X1620351Y3882735D01*
G01X1618581Y3882848D01*
G01X1618095Y3883301D01*
G01X1617609Y3883755D01*
G01X1615590Y3883863D01*
G01X1613570Y3883970D01*
G01X1613263Y3884414D01*
G01X1612956Y3884858D01*
G01X1610217Y3884963D01*
G01X1607478Y3885069D01*
G01X1607190Y3885455D01*
G01X1606902Y3885841D01*
G01X1605455Y3886020D01*
G01X1604008Y3886200D01*
G01X1603555Y3885721D01*
G37*
G36*
G01X1559065Y3587402D02*
G01X1558913Y3586984D01*
G01X1558448Y3586984D01*
G01X1557984Y3586984D01*
G01X1557353Y3586464D01*
G01X1556723Y3585944D01*
G01X1556128Y3585747D01*
G01X1555533Y3585551D01*
G01X1555533Y3585150D01*
G01X1555533Y3584751D01*
G01X1554869Y3584751D01*
G01X1554206Y3584751D01*
G01X1553753Y3584193D01*
G01X1553301Y3583635D01*
G01X1552830Y3583635D01*
G01X1552361Y3583635D01*
G01X1551832Y3583077D01*
G01X1551303Y3582519D01*
G01X1550948Y3582519D01*
G01X1550592Y3582519D01*
G01X1550114Y3581961D01*
G01X1549635Y3581402D01*
G01X1549163Y3581402D01*
G01X1548690Y3581402D01*
G01X1548345Y3580882D01*
G01X1547999Y3580361D01*
G01X1547167Y3580168D01*
G01X1546334Y3579975D01*
G01X1546179Y3579363D01*
G01X1546024Y3578752D01*
G01X1546020Y3577603D01*
G01X1546016Y3576454D01*
G01X1546545Y3575745D01*
G01X1547074Y3575035D01*
G01X1547074Y3574495D01*
G01X1547074Y3573954D01*
G01X1547570Y3573480D01*
G01X1548068Y3573005D01*
G01X1548236Y3571891D01*
G01X1548405Y3570777D01*
G01X1548797Y3570618D01*
G01X1549189Y3570459D01*
G01X1549189Y3569652D01*
G01X1549189Y3568844D01*
G01X1549677Y3568329D01*
G01X1550166Y3567813D01*
G01X1550320Y3566595D01*
G01X1550475Y3565376D01*
G01X1550847Y3565087D01*
G01X1551218Y3564798D01*
G01X1551371Y3563591D01*
G01X1551523Y3562383D01*
G01X1551908Y3561916D01*
G01X1552294Y3561450D01*
G01X1552433Y3560071D01*
G01X1552571Y3558693D01*
G01X1552957Y3558395D01*
G01X1553342Y3558098D01*
G01X1553468Y3556499D01*
G01X1553593Y3554901D01*
G01X1554002Y3554408D01*
G01X1554410Y3553915D01*
G01X1554543Y3551843D01*
G01X1554676Y3549771D01*
G01X1555069Y3549467D01*
G01X1555462Y3549164D01*
G01X1555578Y3546622D01*
G01X1555693Y3544079D01*
G01X1556101Y3543416D01*
G01X1556509Y3542753D01*
G01X1556666Y3537653D01*
G01X1556822Y3532554D01*
G01X1557235Y3531681D01*
G01X1557648Y3530807D01*
G01X1557648Y3526986D01*
G01X1557648Y3523165D01*
G01X1557232Y3522286D01*
G01X1556818Y3521407D01*
G01X1556662Y3516174D01*
G01X1556506Y3510940D01*
G01X1556114Y3510635D01*
G01X1555721Y3510330D01*
G01X1555588Y3507427D01*
G01X1555456Y3504523D01*
G01X1555066Y3504222D01*
G01X1554676Y3503921D01*
G01X1554536Y3501849D01*
G01X1554396Y3499777D01*
G01X1553992Y3499466D01*
G01X1553590Y3499155D01*
G01X1553469Y3497407D01*
G01X1553349Y3495659D01*
G01X1552855Y3495136D01*
G01X1552361Y3494615D01*
G01X1552361Y3493373D01*
G01X1552361Y3492131D01*
G01X1551936Y3491880D01*
G01X1551512Y3491630D01*
G01X1551369Y3490291D01*
G01X1551226Y3488952D01*
G01X1550736Y3488434D01*
G01X1550246Y3487917D01*
G01X1550246Y3487172D01*
G01X1550246Y3486426D01*
G01X1549838Y3485951D01*
G01X1549430Y3485475D01*
G01X1549272Y3484394D01*
G01X1549114Y3483313D01*
G01X1548622Y3482813D01*
G01X1548131Y3482315D01*
G01X1548131Y3481628D01*
G01X1548131Y3480941D01*
G01X1547603Y3480383D01*
G01X1547074Y3479825D01*
G01X1547074Y3479157D01*
G01X1547074Y3478489D01*
G01X1546692Y3478334D01*
G01X1546310Y3478179D01*
G01X1546137Y3477208D01*
G01X1545965Y3476235D01*
G01X1545619Y3476095D01*
G01X1545273Y3475956D01*
G01X1545089Y3475071D01*
G01X1544905Y3474187D01*
G01X1544403Y3473657D01*
G01X1543901Y3473128D01*
G01X1543901Y3472631D01*
G01X1543901Y3472135D01*
G01X1543373Y3471657D01*
G01X1542844Y3471180D01*
G01X1542844Y3470479D01*
G01X1542844Y3469779D01*
G01X1542474Y3469779D01*
G01X1542103Y3469779D01*
G01X1541798Y3469011D01*
G01X1541492Y3468244D01*
G01X1541026Y3467367D01*
G01X1540560Y3466491D01*
G01X1540116Y3466022D01*
G01X1539672Y3465552D01*
G01X1539672Y3465154D01*
G01X1539672Y3464755D01*
G01X1539452Y3464755D01*
G01X1539233Y3464755D01*
G01X1538857Y3463988D01*
G01X1538482Y3463220D01*
G01X1538020Y3462856D01*
G01X1537557Y3462491D01*
G01X1537557Y3462228D01*
G01X1537557Y3461965D01*
G01X1537029Y3461407D01*
G01X1536500Y3460849D01*
G01X1536500Y3460291D01*
G01X1536500Y3459732D01*
G01X1536103Y3459732D01*
G01X1535707Y3459732D01*
G01X1535707Y3459468D01*
G01X1535707Y3459203D01*
G01X1535112Y3458504D01*
G01X1534517Y3457806D01*
G01X1534052Y3457164D01*
G01X1533587Y3456523D01*
G01X1532928Y3455646D01*
G01X1532270Y3454768D01*
G01X1532270Y3454460D01*
G01X1532270Y3454151D01*
G01X1531865Y3454151D01*
G01X1531461Y3454151D01*
G01X1531285Y3453669D01*
G01X1531110Y3453188D01*
G01X1526137Y3447949D01*
G01X1521163Y3442710D01*
G01X1520901Y3442710D01*
G01X1520639Y3442710D01*
G01X1520639Y3442291D01*
G01X1520639Y3441873D01*
G01X1520346Y3441873D01*
G01X1520054Y3441873D01*
G01X1519223Y3441177D01*
G01X1518391Y3440482D01*
G01X1517784Y3439992D01*
G01X1517177Y3439501D01*
G01X1516515Y3438873D01*
G01X1515853Y3438245D01*
G01X1515602Y3438245D01*
G01X1515351Y3438245D01*
G01X1515351Y3437827D01*
G01X1515351Y3437407D01*
G01X1515035Y3437407D01*
G01X1514719Y3437407D01*
G01X1513647Y3436641D01*
G01X1512575Y3435875D01*
G01X1512365Y3435525D01*
G01X1512153Y3435175D01*
G01X1511811Y3435175D01*
G01X1511468Y3435175D01*
G01X1511011Y3434642D01*
G01X1510554Y3434109D01*
G01X1509913Y3433939D01*
G01X1509271Y3433769D01*
G01X1509271Y3433508D01*
G01X1509271Y3433248D01*
G01X1508346Y3432785D01*
G01X1507421Y3432321D01*
G01X1507421Y3432074D01*
G01X1507421Y3431827D01*
G01X1506894Y3431827D01*
G01X1506368Y3431827D01*
G01X1506038Y3431268D01*
G01X1505708Y3430710D01*
G01X1505243Y3430710D01*
G01X1504777Y3430710D01*
G01X1504249Y3430152D01*
G01X1503720Y3429594D01*
G01X1503359Y3429594D01*
G01X1502998Y3429594D01*
G01X1502326Y3429036D01*
G01X1501654Y3428478D01*
G01X1501274Y3428478D01*
G01X1500894Y3428478D01*
G01X1500415Y3427919D01*
G01X1499937Y3427361D01*
G01X1499485Y3427361D01*
G01X1499033Y3427361D01*
G01X1498361Y3426804D01*
G01X1497688Y3426245D01*
G01X1497171Y3426245D01*
G01X1496654Y3426245D01*
G01X1496023Y3425723D01*
G01X1495393Y3425202D01*
G01X1494516Y3425000D01*
G01X1493639Y3424797D01*
G01X1493496Y3424405D01*
G01X1493354Y3424013D01*
G01X1492589Y3424013D01*
G01X1491824Y3424013D01*
G01X1491336Y3423497D01*
G01X1490847Y3422982D01*
G01X1489692Y3422818D01*
G01X1488538Y3422654D01*
G01X1488235Y3422217D01*
G01X1487932Y3421781D01*
G01X1487138Y3421781D01*
G01X1486344Y3421781D01*
G01X1485714Y3421263D01*
G01X1485083Y3420745D01*
G01X1483817Y3420598D01*
G01X1482550Y3420451D01*
G01X1482098Y3420034D01*
G01X1481646Y3419616D01*
G01X1480250Y3419483D01*
G01X1478852Y3419349D01*
G01X1478531Y3418921D01*
G01X1478210Y3418494D01*
G01X1476410Y3418354D01*
G01X1474610Y3418214D01*
G01X1474295Y3417792D01*
G01X1473980Y3417370D01*
G01X1471674Y3417254D01*
G01X1469369Y3417137D01*
G01X1468899Y3416702D01*
G01X1468429Y3416267D01*
G01X1464656Y3416131D01*
G01X1460884Y3415996D01*
G01X1460405Y3415539D01*
G01X1459928Y3415083D01*
G01X1451445Y3415083D01*
G01X1442963Y3415083D01*
G01X1442866Y3415388D01*
G01X1442770Y3415693D01*
G01X1441589Y3415934D01*
G01X1440408Y3416175D01*
G01X1437521Y3416187D01*
G01X1434634Y3416199D01*
G01X1434122Y3416687D01*
G01X1433612Y3417176D01*
G01X1431326Y3417268D01*
G01X1429040Y3417359D01*
G01X1428705Y3417817D01*
G01X1428369Y3418274D01*
G01X1426492Y3418386D01*
G01X1424615Y3418498D01*
G01X1424118Y3419023D01*
G01X1423621Y3419548D01*
G01X1422395Y3419548D01*
G01X1421168Y3419548D01*
G01X1420859Y3419995D01*
G01X1420549Y3420442D01*
G01X1419243Y3420596D01*
G01X1417937Y3420751D01*
G01X1417657Y3421154D01*
G01X1417377Y3421558D01*
G01X1416071Y3421713D01*
G01X1414765Y3421868D01*
G01X1414500Y3422249D01*
G01X1414235Y3422630D01*
G01X1413179Y3422803D01*
G01X1412122Y3422975D01*
G01X1411649Y3423494D01*
G01X1411176Y3424013D01*
G01X1410261Y3424013D01*
G01X1409346Y3424013D01*
G01X1409346Y3424428D01*
G01X1409346Y3424844D01*
G01X1408305Y3425019D01*
G01X1407264Y3425195D01*
G01X1407133Y3425554D01*
G01X1407002Y3425914D01*
G01X1406125Y3426116D01*
G01X1405249Y3426318D01*
G01X1404618Y3426840D01*
G01X1403988Y3427361D01*
G01X1403523Y3427361D01*
G01X1403058Y3427361D01*
G01X1402912Y3427764D01*
G01X1402765Y3428168D01*
G01X1401844Y3428350D01*
G01X1400923Y3428533D01*
G01X1400794Y3428888D01*
G01X1400665Y3429243D01*
G01X1399917Y3429441D01*
G01X1399169Y3429639D01*
G01X1398695Y3430175D01*
G01X1398223Y3430710D01*
G01X1397636Y3430710D01*
G01X1397048Y3430710D01*
G01X1396719Y3431268D01*
G01X1396388Y3431827D01*
G01X1396022Y3431827D01*
G01X1395656Y3431827D01*
G01X1395517Y3432209D01*
G01X1395378Y3432592D01*
G01X1394646Y3432785D01*
G01X1393914Y3432980D01*
G01X1393629Y3433392D01*
G01X1393344Y3433803D01*
G01X1392687Y3434199D01*
G01X1392031Y3434595D01*
G01X1391370Y3434951D01*
G01X1390709Y3435306D01*
G01X1390363Y3435799D01*
G01X1390018Y3436292D01*
G01X1389637Y3436292D01*
G01X1389255Y3436292D01*
G01X1389255Y3436585D01*
G01X1389255Y3436878D01*
G01X1388362Y3437272D01*
G01X1387469Y3437666D01*
G01X1387313Y3438095D01*
G01X1387157Y3438524D01*
G01X1386816Y3438524D01*
G01X1386474Y3438524D01*
G01X1386145Y3439082D01*
G01X1385814Y3439640D01*
G01X1385420Y3439640D01*
G01X1385025Y3439640D01*
G01X1385025Y3440059D01*
G01X1385025Y3440477D01*
G01X1384738Y3440477D01*
G01X1384449Y3440477D01*
G01X1383057Y3441733D01*
G01X1381664Y3442989D01*
G01X1381362Y3442989D01*
G01X1381060Y3442989D01*
G01X1381060Y3443416D01*
G01X1381060Y3443843D01*
G01X1380664Y3444004D01*
G01X1380268Y3444164D01*
G01X1376991Y3447624D01*
G01X1373714Y3451082D01*
G01X1373563Y3451501D01*
G01X1373411Y3451918D01*
G01X1373006Y3451918D01*
G01X1372601Y3451918D01*
G01X1372601Y3452364D01*
G01X1372601Y3452808D01*
G01X1372091Y3452949D01*
G01X1371580Y3453090D01*
G01X1371438Y3453481D01*
G01X1371296Y3453872D01*
G01X1370618Y3453872D01*
G01X1369941Y3453872D01*
G01X1369789Y3453453D01*
G01X1369636Y3453035D01*
G01X1369172Y3453035D01*
G01X1368707Y3453035D01*
G01X1368076Y3452515D01*
G01X1367446Y3451996D01*
G01X1366851Y3451798D01*
G01X1366256Y3451602D01*
G01X1366256Y3451202D01*
G01X1366256Y3450803D01*
G01X1365865Y3450803D01*
G01X1365473Y3450803D01*
G01X1365297Y3450058D01*
G01X1365119Y3449313D01*
G01X1365624Y3448872D01*
G01X1366128Y3448430D01*
G01X1366391Y3447826D01*
G01X1366653Y3447222D01*
G01X1367578Y3446058D01*
G01X1368503Y3444893D01*
G01X1369462Y3443816D01*
G01X1370420Y3442738D01*
G01X1370576Y3442305D01*
G01X1370734Y3441873D01*
G01X1371139Y3441873D01*
G01X1371543Y3441873D01*
G01X1371543Y3441554D01*
G01X1371543Y3441235D01*
G01X1372788Y3439670D01*
G01X1374033Y3438105D01*
G01X1375035Y3437102D01*
G01X1376037Y3436098D01*
G01X1376037Y3435809D01*
G01X1376037Y3435519D01*
G01X1376566Y3435374D01*
G01X1377095Y3435228D01*
G01X1377095Y3434815D01*
G01X1377095Y3434403D01*
G01X1377623Y3434257D01*
G01X1378152Y3434111D01*
G01X1378152Y3433699D01*
G01X1378152Y3433287D01*
G01X1378681Y3433141D01*
G01X1379210Y3432995D01*
G01X1379210Y3432550D01*
G01X1379210Y3432105D01*
G01X1379477Y3432105D01*
G01X1379745Y3432105D01*
G01X1381757Y3430002D01*
G01X1383770Y3427898D01*
G01X1384497Y3427500D01*
G01X1385226Y3427103D01*
G01X1385382Y3426674D01*
G01X1385538Y3426245D01*
G01X1385943Y3426245D01*
G01X1386347Y3426245D01*
G01X1386347Y3425827D01*
G01X1386347Y3425408D01*
G01X1386569Y3425408D01*
G01X1386792Y3425408D01*
G01X1388009Y3424222D01*
G01X1389226Y3423036D01*
G01X1389925Y3422408D01*
G01X1390622Y3421781D01*
G01X1390987Y3421781D01*
G01X1391351Y3421781D01*
G01X1391635Y3421222D01*
G01X1391917Y3420664D01*
G01X1392151Y3420664D01*
G01X1392384Y3420664D01*
G01X1393485Y3419548D01*
G01X1394586Y3418431D01*
G01X1394960Y3418431D01*
G01X1395335Y3418431D01*
G01X1395335Y3418200D01*
G01X1395335Y3417968D01*
G01X1396062Y3417580D01*
G01X1396789Y3417191D01*
G01X1397186Y3416827D01*
G01X1397583Y3416463D01*
G01X1398323Y3415773D01*
G01X1399063Y3415083D01*
G01X1399578Y3415083D01*
G01X1400093Y3415083D01*
G01X1400093Y3414683D01*
G01X1400093Y3414283D01*
G01X1400649Y3414098D01*
G01X1401203Y3413912D01*
G01X1401706Y3413381D01*
G01X1402209Y3412850D01*
G01X1402674Y3412850D01*
G01X1403139Y3412850D01*
G01X1403469Y3412293D01*
G01X1403799Y3411734D01*
G01X1404165Y3411734D01*
G01X1404531Y3411734D01*
G01X1404670Y3411352D01*
G01X1404809Y3410969D01*
G01X1405546Y3410774D01*
G01X1406282Y3410579D01*
G01X1406640Y3410040D01*
G01X1406997Y3409502D01*
G01X1407584Y3409502D01*
G01X1408171Y3409502D01*
G01X1408624Y3408944D01*
G01X1409076Y3408385D01*
G01X1409447Y3408385D01*
G01X1409818Y3408385D01*
G01X1409957Y3408002D01*
G01X1410097Y3407620D01*
G01X1410845Y3407422D01*
G01X1411593Y3407224D01*
G01X1412066Y3406688D01*
G01X1412539Y3406153D01*
G01X1413131Y3406153D01*
G01X1413722Y3406153D01*
G01X1414175Y3405595D01*
G01X1414628Y3405037D01*
G01X1415228Y3405037D01*
G01X1415828Y3405037D01*
G01X1416158Y3404479D01*
G01X1416488Y3403920D01*
G01X1417215Y3403920D01*
G01X1417942Y3403920D01*
G01X1418273Y3403362D01*
G01X1418603Y3402804D01*
G01X1419261Y3402804D01*
G01X1419920Y3402804D01*
G01X1420449Y3402246D01*
G01X1420977Y3401688D01*
G01X1421580Y3401688D01*
G01X1422182Y3401688D01*
G01X1422635Y3401130D01*
G01X1423087Y3400572D01*
G01X1423751Y3400572D01*
G01X1424414Y3400572D01*
G01X1424943Y3400014D01*
G01X1425471Y3399456D01*
G01X1426157Y3399456D01*
G01X1426842Y3399456D01*
G01X1427514Y3398897D01*
G01X1428186Y3398339D01*
G01X1428931Y3398339D01*
G01X1429675Y3398339D01*
G01X1429908Y3397901D01*
G01X1430140Y3397462D01*
G01X1431242Y3397305D01*
G01X1432345Y3397150D01*
G01X1432345Y3396952D01*
G01X1432345Y3396754D01*
G01X1433018Y3396431D01*
G01X1433692Y3396107D01*
G01X1434385Y3396107D01*
G01X1435079Y3396107D01*
G01X1435542Y3395665D01*
G01X1436004Y3395222D01*
G01X1437148Y3395061D01*
G01X1438292Y3394900D01*
G01X1438583Y3394484D01*
G01X1438874Y3394067D01*
G01X1440368Y3393936D01*
G01X1441861Y3393805D01*
G01X1441861Y3393605D01*
G01X1441861Y3393406D01*
G01X1442535Y3393082D01*
G01X1443208Y3392758D01*
G01X1444290Y3392758D01*
G01X1445372Y3392758D01*
G01X1445696Y3392290D01*
G01X1446020Y3391822D01*
G01X1447708Y3391700D01*
G01X1449396Y3391578D01*
G01X1449873Y3391134D01*
G01X1450351Y3390690D01*
G01X1452120Y3390581D01*
G01X1453890Y3390473D01*
G01X1454220Y3390027D01*
G01X1454551Y3389581D01*
G01X1456993Y3389458D01*
G01X1459434Y3389335D01*
G01X1459743Y3388889D01*
G01X1460052Y3388444D01*
G01X1463050Y3388340D01*
G01X1466050Y3388236D01*
G01X1466540Y3387776D01*
G01X1467030Y3387316D01*
G01X1471810Y3387219D01*
G01X1476592Y3387121D01*
G01X1477257Y3386661D01*
G01X1477922Y3386200D01*
G01X1486658Y3386200D01*
G01X1495393Y3386200D01*
G01X1496293Y3386689D01*
G01X1497192Y3387177D01*
G01X1501315Y3387178D01*
G01X1505438Y3387180D01*
G01X1506429Y3387471D01*
G01X1507421Y3387761D01*
G01X1507421Y3387997D01*
G01X1507421Y3388233D01*
G01X1510484Y3388336D01*
G01X1513547Y3388438D01*
G01X1513862Y3388893D01*
G01X1514177Y3389347D01*
G01X1516504Y3389448D01*
G01X1518831Y3389549D01*
G01X1519145Y3390002D01*
G01X1519458Y3390455D01*
G01X1521399Y3390571D01*
G01X1523340Y3390687D01*
G01X1523645Y3391128D01*
G01X1523951Y3391568D01*
G01X1525758Y3391690D01*
G01X1527565Y3391812D01*
G01X1527816Y3392285D01*
G01X1528067Y3392758D01*
G01X1529340Y3392758D01*
G01X1530613Y3392758D01*
G01X1531243Y3393277D01*
G01X1531873Y3393796D01*
G01X1533306Y3393938D01*
G01X1534738Y3394081D01*
G01X1535024Y3394490D01*
G01X1535310Y3394900D01*
G01X1536454Y3395061D01*
G01X1537598Y3395222D01*
G01X1538061Y3395665D01*
G01X1538524Y3396107D01*
G01X1539230Y3396107D01*
G01X1539936Y3396107D01*
G01X1540465Y3396665D01*
G01X1540994Y3397223D01*
G01X1541919Y3397223D01*
G01X1542844Y3397223D01*
G01X1543373Y3397781D01*
G01X1543901Y3398339D01*
G01X1544697Y3398339D01*
G01X1545493Y3398339D01*
G01X1545946Y3398897D01*
G01X1546398Y3399456D01*
G01X1547097Y3399456D01*
G01X1547795Y3399456D01*
G01X1548468Y3400014D01*
G01X1549140Y3400572D01*
G01X1549693Y3400572D01*
G01X1550246Y3400572D01*
G01X1550775Y3401130D01*
G01X1551303Y3401688D01*
G01X1551967Y3401688D01*
G01X1552630Y3401688D01*
G01X1553083Y3402246D01*
G01X1553536Y3402804D01*
G01X1554140Y3402804D01*
G01X1554745Y3402804D01*
G01X1555198Y3403362D01*
G01X1555651Y3403920D01*
G01X1556242Y3403920D01*
G01X1556834Y3403920D01*
G01X1557307Y3404446D01*
G01X1557780Y3404972D01*
G01X1558639Y3405166D01*
G01X1559498Y3405360D01*
G01X1559498Y3405725D01*
G01X1559498Y3406091D01*
G01X1560438Y3406277D01*
G01X1561376Y3406463D01*
G01X1561523Y3406866D01*
G01X1561670Y3407269D01*
G01X1562134Y3407269D01*
G01X1562599Y3407269D01*
G01X1563271Y3407827D01*
G01X1563944Y3408385D01*
G01X1564230Y3408385D01*
G01X1564517Y3408385D01*
G01X1564846Y3408944D01*
G01X1565177Y3409502D01*
G01X1565642Y3409502D01*
G01X1566107Y3409502D01*
G01X1566636Y3410060D01*
G01X1567164Y3410618D01*
G01X1567520Y3410618D01*
G01X1567876Y3410618D01*
G01X1568354Y3411176D01*
G01X1568832Y3411734D01*
G01X1569191Y3411734D01*
G01X1569549Y3411734D01*
G01X1570002Y3412293D01*
G01X1570454Y3412850D01*
G01X1570712Y3412850D01*
G01X1570969Y3412850D01*
G01X1572041Y3413617D01*
G01X1573112Y3414384D01*
G01X1573324Y3414733D01*
G01X1573535Y3415083D01*
G01X1573878Y3415083D01*
G01X1574220Y3415083D01*
G01X1574698Y3415641D01*
G01X1575177Y3416199D01*
G01X1575494Y3416199D01*
G01X1575811Y3416199D01*
G01X1576524Y3416897D01*
G01X1577237Y3417594D01*
G01X1577488Y3417594D01*
G01X1577738Y3417594D01*
G01X1577738Y3418013D01*
G01X1577738Y3418431D01*
G01X1578055Y3418431D01*
G01X1578371Y3418431D01*
G01X1579440Y3419199D01*
G01X1580507Y3419966D01*
G01X1581318Y3420804D01*
G01X1582129Y3421640D01*
G01X1582842Y3422037D01*
G01X1583554Y3422433D01*
G01X1584282Y3422037D01*
G01X1585008Y3421640D01*
G01X1585354Y3421152D01*
G01X1585699Y3420664D01*
G01X1586080Y3420664D01*
G01X1586462Y3420664D01*
G01X1586462Y3420246D01*
G01X1586462Y3419827D01*
G01X1586754Y3419827D01*
G01X1587047Y3419827D01*
G01X1587832Y3419129D01*
G01X1588617Y3418431D01*
G01X1588994Y3418431D01*
G01X1589370Y3418431D01*
G01X1589370Y3418013D01*
G01X1589370Y3417594D01*
G01X1589621Y3417594D01*
G01X1589871Y3417594D01*
G01X1590585Y3416897D01*
G01X1591298Y3416199D01*
G01X1591615Y3416199D01*
G01X1591932Y3416199D01*
G01X1592410Y3415641D01*
G01X1592889Y3415083D01*
G01X1593231Y3415083D01*
G01X1593573Y3415083D01*
G01X1593785Y3414733D01*
G01X1593996Y3414384D01*
G01X1595068Y3413617D01*
G01X1596139Y3412850D01*
G01X1596397Y3412850D01*
G01X1596655Y3412850D01*
G01X1597108Y3412293D01*
G01X1597560Y3411734D01*
G01X1597918Y3411734D01*
G01X1598276Y3411734D01*
G01X1598755Y3411176D01*
G01X1599233Y3410618D01*
G01X1599589Y3410618D01*
G01X1599944Y3410618D01*
G01X1600473Y3410060D01*
G01X1601002Y3409502D01*
G01X1601530Y3409502D01*
G01X1602059Y3409502D01*
G01X1602059Y3409208D01*
G01X1602059Y3408915D01*
G01X1602939Y3408527D01*
G01X1603820Y3408139D01*
G01X1604161Y3407704D01*
G01X1604503Y3407269D01*
G01X1604971Y3407269D01*
G01X1605439Y3407269D01*
G01X1605582Y3406877D01*
G01X1605725Y3406484D01*
G01X1606562Y3406291D01*
G01X1607400Y3406096D01*
G01X1607902Y3405566D01*
G01X1608404Y3405037D01*
G01X1608873Y3405037D01*
G01X1609343Y3405037D01*
G01X1609796Y3404479D01*
G01X1610249Y3403920D01*
G01X1610854Y3403920D01*
G01X1611459Y3403920D01*
G01X1611911Y3403362D01*
G01X1612364Y3402804D01*
G01X1613160Y3402804D01*
G01X1613955Y3402804D01*
G01X1613955Y3402398D01*
G01X1613955Y3401992D01*
G01X1614917Y3401802D01*
G01X1615878Y3401612D01*
G01X1616371Y3401092D01*
G01X1616863Y3400572D01*
G01X1617429Y3400572D01*
G01X1617994Y3400572D01*
G01X1618297Y3400134D01*
G01X1618599Y3399698D01*
G01X1619754Y3399534D01*
G01X1620908Y3399371D01*
G01X1621397Y3398855D01*
G01X1621885Y3398339D01*
G01X1622679Y3398339D01*
G01X1623471Y3398339D01*
G01X1623471Y3397953D01*
G01X1623471Y3397567D01*
G01X1624067Y3397399D01*
G01X1624661Y3397231D01*
G01X1625388Y3397227D01*
G01X1626115Y3397223D01*
G01X1626644Y3396665D01*
G01X1627173Y3396107D01*
G01X1627990Y3396107D01*
G01X1628808Y3396107D01*
G01X1629480Y3395549D01*
G01X1630152Y3394991D01*
G01X1630946Y3394991D01*
G01X1631740Y3394991D01*
G01X1632055Y3394535D01*
G01X1632371Y3394081D01*
G01X1633803Y3393943D01*
G01X1635235Y3393806D01*
G01X1635695Y3393381D01*
G01X1636155Y3392956D01*
G01X1637546Y3392815D01*
G01X1638937Y3392674D01*
G01X1639235Y3392243D01*
G01X1639533Y3391812D01*
G01X1641346Y3391690D01*
G01X1643159Y3391568D01*
G01X1643464Y3391128D01*
G01X1643769Y3390687D01*
G01X1645710Y3390571D01*
G01X1647650Y3390455D01*
G01X1647965Y3390002D01*
G01X1648278Y3389549D01*
G01X1650605Y3389448D01*
G01X1652932Y3389347D01*
G01X1653247Y3388893D01*
G01X1653561Y3388438D01*
G01X1656625Y3388336D01*
G01X1659688Y3388233D01*
G01X1659688Y3387997D01*
G01X1659688Y3387761D01*
G01X1660679Y3387471D01*
G01X1661671Y3387180D01*
G01X1665793Y3387178D01*
G01X1669916Y3387177D01*
G01X1670816Y3386689D01*
G01X1671716Y3386200D01*
G01X1680451Y3386200D01*
G01X1689187Y3386200D01*
G01X1689852Y3386661D01*
G01X1690518Y3387121D01*
G01X1695298Y3387219D01*
G01X1700079Y3387316D01*
G01X1700569Y3387776D01*
G01X1701059Y3388236D01*
G01X1704058Y3388340D01*
G01X1707057Y3388444D01*
G01X1707366Y3388889D01*
G01X1707674Y3389335D01*
G01X1710117Y3389458D01*
G01X1712558Y3389581D01*
G01X1712889Y3390027D01*
G01X1713220Y3390473D01*
G01X1714989Y3390581D01*
G01X1716758Y3390690D01*
G01X1717236Y3391134D01*
G01X1717714Y3391578D01*
G01X1719401Y3391700D01*
G01X1721089Y3391822D01*
G01X1721385Y3392250D01*
G01X1721681Y3392677D01*
G01X1723196Y3392810D01*
G01X1724710Y3392943D01*
G01X1725177Y3393373D01*
G01X1725644Y3393803D01*
G01X1726949Y3393950D01*
G01X1728255Y3394097D01*
G01X1728536Y3394500D01*
G01X1728816Y3394904D01*
G01X1730122Y3395058D01*
G01X1731428Y3395213D01*
G01X1731737Y3395660D01*
G01X1732047Y3396107D01*
G01X1732732Y3396107D01*
G01X1733418Y3396107D01*
G01X1734091Y3396431D01*
G01X1734764Y3396754D01*
G01X1734764Y3396952D01*
G01X1734764Y3397150D01*
G01X1735866Y3397305D01*
G01X1736969Y3397462D01*
G01X1737202Y3397901D01*
G01X1737434Y3398339D01*
G01X1738069Y3398339D01*
G01X1738704Y3398339D01*
G01X1739378Y3398663D01*
G01X1740051Y3398987D01*
G01X1740051Y3399221D01*
G01X1740051Y3399456D01*
G01X1740844Y3399456D01*
G01X1741637Y3399456D01*
G01X1742166Y3400014D01*
G01X1742695Y3400572D01*
G01X1743359Y3400572D01*
G01X1744022Y3400572D01*
G01X1744475Y3401130D01*
G01X1744927Y3401688D01*
G01X1745659Y3401688D01*
G01X1746391Y3401688D01*
G01X1746721Y3402246D01*
G01X1747052Y3402804D01*
G01X1747779Y3402804D01*
G01X1748506Y3402804D01*
G01X1748836Y3403362D01*
G01X1749166Y3403920D01*
G01X1749893Y3403920D01*
G01X1750621Y3403920D01*
G01X1750951Y3404479D01*
G01X1751281Y3405037D01*
G01X1751878Y3405037D01*
G01X1752476Y3405037D01*
G01X1753005Y3405595D01*
G01X1753533Y3406153D01*
G01X1754051Y3406153D01*
G01X1754570Y3406153D01*
G01X1755043Y3406688D01*
G01X1755516Y3407224D01*
G01X1756264Y3407422D01*
G01X1757013Y3407620D01*
G01X1757152Y3408002D01*
G01X1757291Y3408385D01*
G01X1757750Y3408385D01*
G01X1758209Y3408385D01*
G01X1758688Y3408944D01*
G01X1759167Y3409502D01*
G01X1759652Y3409502D01*
G01X1760138Y3409502D01*
G01X1760468Y3410060D01*
G01X1760798Y3410618D01*
G01X1761263Y3410618D01*
G01X1761728Y3410618D01*
G01X1762257Y3411176D01*
G01X1762785Y3411734D01*
G01X1763048Y3411734D01*
G01X1763310Y3411734D01*
G01X1763640Y3412293D01*
G01X1763970Y3412850D01*
G01X1764435Y3412850D01*
G01X1764901Y3412850D01*
G01X1765403Y3413381D01*
G01X1765905Y3413912D01*
G01X1766461Y3414098D01*
G01X1767015Y3414283D01*
G01X1767015Y3414683D01*
G01X1767015Y3415083D01*
G01X1767544Y3415083D01*
G01X1768073Y3415083D01*
G01X1768601Y3415641D01*
G01X1769130Y3416199D01*
G01X1769392Y3416199D01*
G01X1769654Y3416199D01*
G01X1769985Y3416757D01*
G01X1770314Y3417316D01*
G01X1770628Y3417316D01*
G01X1770940Y3417316D01*
G01X1771725Y3418013D01*
G01X1772511Y3418711D01*
G01X1772803Y3418711D01*
G01X1773095Y3418711D01*
G01X1773095Y3419129D01*
G01X1773095Y3419548D01*
G01X1773490Y3419548D01*
G01X1773884Y3419548D01*
G01X1774214Y3420106D01*
G01X1774544Y3420664D01*
G01X1774773Y3420664D01*
G01X1775002Y3420664D01*
G01X1775833Y3421359D01*
G01X1776664Y3422054D01*
G01X1777279Y3422545D01*
G01X1777895Y3423036D01*
G01X1778919Y3424048D01*
G01X1779942Y3425059D01*
G01X1780352Y3425224D01*
G01X1780761Y3425391D01*
G01X1780761Y3425818D01*
G01X1780761Y3426245D01*
G01X1781062Y3426245D01*
G01X1781362Y3426245D01*
G01X1781927Y3426873D01*
G01X1782492Y3427501D01*
G01X1783258Y3428059D01*
G01X1784023Y3428617D01*
G01X1785679Y3430361D01*
G01X1787336Y3432105D01*
G01X1787587Y3432105D01*
G01X1787838Y3432105D01*
G01X1787975Y3432663D01*
G01X1788114Y3433222D01*
G01X1788505Y3433222D01*
G01X1788895Y3433222D01*
G01X1789033Y3433780D01*
G01X1789172Y3434338D01*
G01X1789562Y3434338D01*
G01X1789952Y3434338D01*
G01X1790091Y3434896D01*
G01X1790228Y3435454D01*
G01X1790650Y3435454D01*
G01X1791071Y3435454D01*
G01X1791071Y3435776D01*
G01X1791071Y3436098D01*
G01X1792074Y3437102D01*
G01X1793076Y3438105D01*
G01X1794320Y3439670D01*
G01X1795565Y3441235D01*
G01X1795565Y3441554D01*
G01X1795565Y3441873D01*
G01X1795970Y3441873D01*
G01X1796375Y3441873D01*
G01X1796532Y3442305D01*
G01X1796689Y3442738D01*
G01X1797714Y3443863D01*
G01X1798738Y3444988D01*
G01X1798738Y3445244D01*
G01X1798738Y3445500D01*
G01X1799134Y3445500D01*
G01X1799531Y3445500D01*
G01X1799531Y3445809D01*
G01X1799531Y3446118D01*
G01X1800192Y3446946D01*
G01X1800852Y3447776D01*
G01X1800852Y3448106D01*
G01X1800852Y3448436D01*
G01X1801381Y3448784D01*
G01X1801910Y3449133D01*
G01X1801910Y3449667D01*
G01X1801910Y3450201D01*
G01X1801097Y3451060D01*
G01X1800283Y3451918D01*
G01X1799935Y3451918D01*
G01X1799587Y3451918D01*
G01X1799441Y3452322D01*
G01X1799294Y3452725D01*
G01X1798373Y3452908D01*
G01X1797453Y3453090D01*
G01X1797310Y3453481D01*
G01X1797168Y3453872D01*
G01X1796491Y3453872D01*
G01X1795813Y3453872D01*
G01X1795661Y3453453D01*
G01X1795509Y3453035D01*
G01X1795116Y3453035D01*
G01X1794722Y3453035D01*
G01X1794585Y3452477D01*
G01X1794446Y3451918D01*
G01X1794072Y3451918D01*
G01X1793699Y3451918D01*
G01X1793546Y3451501D01*
G01X1793394Y3451082D01*
G01X1790117Y3447624D01*
G01X1786841Y3444164D01*
G01X1786445Y3444004D01*
G01X1786049Y3443843D01*
G01X1786049Y3443416D01*
G01X1786049Y3442989D01*
G01X1785760Y3442989D01*
G01X1785471Y3442989D01*
G01X1784683Y3442361D01*
G01X1783893Y3441733D01*
G01X1783288Y3441105D01*
G01X1782684Y3440477D01*
G01X1782384Y3440477D01*
G01X1782083Y3440477D01*
G01X1782083Y3440059D01*
G01X1782083Y3439640D01*
G01X1781689Y3439640D01*
G01X1781295Y3439640D01*
G01X1780965Y3439082D01*
G01X1780634Y3438524D01*
G01X1780293Y3438524D01*
G01X1779952Y3438524D01*
G01X1779796Y3438095D01*
G01X1779640Y3437666D01*
G01X1778747Y3437272D01*
G01X1777854Y3436878D01*
G01X1777854Y3436585D01*
G01X1777854Y3436292D01*
G01X1777459Y3436292D01*
G01X1777065Y3436292D01*
G01X1776735Y3435733D01*
G01X1776405Y3435175D01*
G01X1776175Y3435175D01*
G01X1775945Y3435175D01*
G01X1774652Y3434291D01*
G01X1773360Y3433407D01*
G01X1773360Y3433197D01*
G01X1773360Y3432987D01*
G01X1772549Y3432799D01*
G01X1771738Y3432611D01*
G01X1771604Y3432244D01*
G01X1771471Y3431877D01*
G01X1770829Y3431707D01*
G01X1770187Y3431537D01*
G01X1770187Y3431123D01*
G01X1770187Y3430710D01*
G01X1769524Y3430710D01*
G01X1768860Y3430710D01*
G01X1768408Y3430152D01*
G01X1767955Y3429594D01*
G01X1767485Y3429594D01*
G01X1767015Y3429594D01*
G01X1766487Y3429036D01*
G01X1765958Y3428478D01*
G01X1765597Y3428478D01*
G01X1765236Y3428478D01*
G01X1764564Y3427919D01*
G01X1763892Y3427361D01*
G01X1763506Y3427361D01*
G01X1763121Y3427361D01*
G01X1762491Y3426840D01*
G01X1761861Y3426318D01*
G01X1760983Y3426116D01*
G01X1760106Y3425914D01*
G01X1759976Y3425554D01*
G01X1759845Y3425195D01*
G01X1758804Y3425019D01*
G01X1757763Y3424844D01*
G01X1757763Y3424428D01*
G01X1757763Y3424013D01*
G01X1756835Y3424013D01*
G01X1755907Y3424013D01*
G01X1755455Y3423455D01*
G01X1755002Y3422896D01*
G01X1754135Y3422896D01*
G01X1753269Y3422896D01*
G01X1752740Y3422338D01*
G01X1752211Y3421781D01*
G01X1751322Y3421781D01*
G01X1750432Y3421781D01*
G01X1749802Y3421263D01*
G01X1749171Y3420745D01*
G01X1747866Y3420593D01*
G01X1746560Y3420442D01*
G01X1746251Y3419995D01*
G01X1745941Y3419548D01*
G01X1744715Y3419548D01*
G01X1743488Y3419548D01*
G01X1742991Y3419023D01*
G01X1742493Y3418498D01*
G01X1740631Y3418387D01*
G01X1738769Y3418276D01*
G01X1738286Y3417824D01*
G01X1737804Y3417372D01*
G01X1735650Y3417273D01*
G01X1733496Y3417174D01*
G01X1733007Y3416720D01*
G01X1732517Y3416266D01*
G01X1728615Y3416133D01*
G01X1724713Y3416001D01*
G01X1724233Y3415542D01*
G01X1723752Y3415083D01*
G01X1715466Y3415083D01*
G01X1707181Y3415083D01*
G01X1706703Y3415539D01*
G01X1706226Y3415996D01*
G01X1702452Y3416131D01*
G01X1698680Y3416267D01*
G01X1698210Y3416702D01*
G01X1697740Y3417137D01*
G01X1695434Y3417254D01*
G01X1693128Y3417370D01*
G01X1692814Y3417792D01*
G01X1692499Y3418214D01*
G01X1690699Y3418354D01*
G01X1688899Y3418494D01*
G01X1688578Y3418921D01*
G01X1688256Y3419349D01*
G01X1686860Y3419483D01*
G01X1685462Y3419616D01*
G01X1685002Y3420041D01*
G01X1684542Y3420466D01*
G01X1683218Y3420600D01*
G01X1681894Y3420735D01*
G01X1681894Y3420934D01*
G01X1681894Y3421133D01*
G01X1681220Y3421457D01*
G01X1680547Y3421781D01*
G01X1679874Y3421781D01*
G01X1679201Y3421781D01*
G01X1678529Y3422338D01*
G01X1677857Y3422896D01*
G01X1677100Y3422896D01*
G01X1676342Y3422896D01*
G01X1675814Y3423455D01*
G01X1675285Y3424013D01*
G01X1674520Y3424013D01*
G01X1673756Y3424013D01*
G01X1673609Y3424416D01*
G01X1673462Y3424819D01*
G01X1672470Y3425016D01*
G01X1671477Y3425212D01*
G01X1670952Y3425729D01*
G01X1670427Y3426245D01*
G01X1669923Y3426245D01*
G01X1669420Y3426245D01*
G01X1668748Y3426804D01*
G01X1668076Y3427361D01*
G01X1667704Y3427361D01*
G01X1667332Y3427361D01*
G01X1666765Y3427919D01*
G01X1666197Y3428478D01*
G01X1665826Y3428478D01*
G01X1665455Y3428478D01*
G01X1664783Y3429036D01*
G01X1664111Y3429594D01*
G01X1663750Y3429594D01*
G01X1663389Y3429594D01*
G01X1662860Y3430152D01*
G01X1662331Y3430710D01*
G01X1661867Y3430710D01*
G01X1661402Y3430710D01*
G01X1661071Y3431268D01*
G01X1660741Y3431827D01*
G01X1660214Y3431827D01*
G01X1659688Y3431827D01*
G01X1659688Y3432074D01*
G01X1659688Y3432321D01*
G01X1658763Y3432785D01*
G01X1657837Y3433248D01*
G01X1657837Y3433508D01*
G01X1657837Y3433769D01*
G01X1657196Y3433939D01*
G01X1656555Y3434109D01*
G01X1656098Y3434642D01*
G01X1655641Y3435175D01*
G01X1655299Y3435175D01*
G01X1654956Y3435175D01*
G01X1654745Y3435525D01*
G01X1654533Y3435875D01*
G01X1653462Y3436641D01*
G01X1652390Y3437407D01*
G01X1652074Y3437407D01*
G01X1651757Y3437407D01*
G01X1651757Y3437827D01*
G01X1651757Y3438245D01*
G01X1651506Y3438245D01*
G01X1651256Y3438245D01*
G01X1650594Y3438873D01*
G01X1649932Y3439501D01*
G01X1649325Y3439992D01*
G01X1648717Y3440482D01*
G01X1647886Y3441177D01*
G01X1647055Y3441873D01*
G01X1646763Y3441873D01*
G01X1646471Y3441873D01*
G01X1646471Y3442300D01*
G01X1646471Y3442727D01*
G01X1646020Y3442910D01*
G01X1645569Y3443093D01*
G01X1640782Y3448146D01*
G01X1635995Y3453199D01*
G01X1635822Y3453675D01*
G01X1635649Y3454151D01*
G01X1635243Y3454151D01*
G01X1634839Y3454151D01*
G01X1634838Y3454500D01*
G01X1634838Y3454849D01*
G01X1634189Y3455686D01*
G01X1633540Y3456523D01*
G01X1633066Y3457164D01*
G01X1632592Y3457806D01*
G01X1631997Y3458504D01*
G01X1631402Y3459203D01*
G01X1631402Y3459468D01*
G01X1631402Y3459732D01*
G01X1631005Y3459732D01*
G01X1630609Y3459732D01*
G01X1630609Y3460276D01*
G01X1630609Y3460820D01*
G01X1629955Y3461602D01*
G01X1629302Y3462384D01*
G01X1628957Y3462802D01*
G01X1628611Y3463220D01*
G01X1628244Y3463988D01*
G01X1627876Y3464755D01*
G01X1627657Y3464755D01*
G01X1627437Y3464755D01*
G01X1627437Y3465154D01*
G01X1627437Y3465552D01*
G01X1626993Y3466022D01*
G01X1626549Y3466491D01*
G01X1626083Y3467367D01*
G01X1625617Y3468244D01*
G01X1625312Y3469011D01*
G01X1625006Y3469779D01*
G01X1624636Y3469779D01*
G01X1624265Y3469779D01*
G01X1624265Y3470479D01*
G01X1624265Y3471180D01*
G01X1623736Y3471657D01*
G01X1623207Y3472135D01*
G01X1623207Y3472631D01*
G01X1623207Y3473128D01*
G01X1622705Y3473657D01*
G01X1622204Y3474187D01*
G01X1622020Y3475071D01*
G01X1621836Y3475956D01*
G01X1621490Y3476095D01*
G01X1621145Y3476235D01*
G01X1620972Y3477208D01*
G01X1620799Y3478179D01*
G01X1620417Y3478334D01*
G01X1620035Y3478489D01*
G01X1620035Y3479157D01*
G01X1620035Y3479825D01*
G01X1619506Y3480383D01*
G01X1618978Y3480941D01*
G01X1618978Y3481641D01*
G01X1618978Y3482342D01*
G01X1618449Y3482819D01*
G01X1617920Y3483298D01*
G01X1617920Y3483920D01*
G01X1617920Y3484543D01*
G01X1617614Y3485253D01*
G01X1617307Y3485964D01*
G01X1617119Y3485964D01*
G01X1616933Y3485964D01*
G01X1616785Y3487128D01*
G01X1616637Y3488291D01*
G01X1616221Y3488537D01*
G01X1615805Y3488782D01*
G01X1615802Y3489676D01*
G01X1615798Y3490568D01*
G01X1615639Y3491196D01*
G01X1615479Y3491824D01*
G01X1615113Y3491824D01*
G01X1614748Y3491824D01*
G01X1614748Y3493219D01*
G01X1614748Y3494615D01*
G01X1614253Y3495136D01*
G01X1613759Y3495659D01*
G01X1613639Y3497407D01*
G01X1613520Y3499155D01*
G01X1613116Y3499466D01*
G01X1612714Y3499777D01*
G01X1612576Y3501813D01*
G01X1612438Y3503849D01*
G01X1612035Y3504185D01*
G01X1611632Y3504521D01*
G01X1611508Y3507248D01*
G01X1611385Y3509973D01*
G01X1610985Y3510457D01*
G01X1610586Y3510940D01*
G01X1610443Y3515886D01*
G01X1610300Y3520831D01*
G01X1609881Y3521719D01*
G01X1609461Y3522606D01*
G01X1609461Y3526986D01*
G01X1609461Y3531365D01*
G01X1609881Y3532253D01*
G01X1610300Y3533140D01*
G01X1610443Y3538086D01*
G01X1610586Y3543031D01*
G01X1611000Y3543532D01*
G01X1611414Y3544033D01*
G01X1611525Y3546601D01*
G01X1611635Y3549171D01*
G01X1612031Y3549646D01*
G01X1612428Y3550120D01*
G01X1612564Y3552018D01*
G01X1612700Y3553915D01*
G01X1613108Y3554408D01*
G01X1613516Y3554901D01*
G01X1613641Y3556499D01*
G01X1613767Y3558098D01*
G01X1614152Y3558395D01*
G01X1614537Y3558693D01*
G01X1614676Y3560071D01*
G01X1614816Y3561450D01*
G01X1615200Y3561916D01*
G01X1615586Y3562383D01*
G01X1615738Y3563591D01*
G01X1615891Y3564798D01*
G01X1616262Y3565087D01*
G01X1616633Y3565376D01*
G01X1616788Y3566595D01*
G01X1616943Y3567813D01*
G01X1617432Y3568329D01*
G01X1617920Y3568844D01*
G01X1617920Y3569652D01*
G01X1617920Y3570459D01*
G01X1618302Y3570614D01*
G01X1618684Y3570769D01*
G01X1618871Y3571816D01*
G01X1619057Y3572864D01*
G01X1619546Y3573419D01*
G01X1620035Y3573973D01*
G01X1620035Y3574695D01*
G01X1620035Y3575418D01*
G01X1620564Y3575896D01*
G01X1621093Y3576374D01*
G01X1621093Y3577891D01*
G01X1621093Y3579409D01*
G01X1620677Y3579848D01*
G01X1620262Y3580286D01*
G01X1619683Y3580286D01*
G01X1619105Y3580286D01*
G01X1618775Y3580844D01*
G01X1618444Y3581402D01*
G01X1618158Y3581402D01*
G01X1617871Y3581402D01*
G01X1617199Y3581961D01*
G01X1616527Y3582519D01*
G01X1616034Y3582519D01*
G01X1615541Y3582519D01*
G01X1615541Y3582915D01*
G01X1615541Y3583311D01*
G01X1614721Y3583502D01*
G01X1613901Y3583691D01*
G01X1613400Y3584221D01*
G01X1612898Y3584751D01*
G01X1612428Y3584751D01*
G01X1611958Y3584751D01*
G01X1611505Y3585309D01*
G01X1611052Y3585867D01*
G01X1610682Y3585867D01*
G01X1610311Y3585867D01*
G01X1610164Y3586270D01*
G01X1610017Y3586674D01*
G01X1609097Y3586856D01*
G01X1608176Y3587038D01*
G01X1608034Y3587430D01*
G01X1607891Y3587821D01*
G01X1607346Y3587821D01*
G01X1606801Y3587821D01*
G01X1606649Y3587402D01*
G01X1606496Y3586984D01*
G01X1606195Y3586982D01*
G01X1605892Y3586981D01*
G01X1604367Y3585308D01*
G01X1602842Y3583635D01*
G01X1602592Y3583635D01*
G01X1602342Y3583635D01*
G01X1602059Y3583077D01*
G01X1601776Y3582519D01*
G01X1601389Y3582519D01*
G01X1601002Y3582519D01*
G01X1600499Y3581988D01*
G01X1599996Y3581457D01*
G01X1599442Y3581271D01*
G01X1598887Y3581086D01*
G01X1598887Y3580686D01*
G01X1598887Y3580286D01*
G01X1598224Y3580286D01*
G01X1597560Y3580286D01*
G01X1597108Y3579728D01*
G01X1596655Y3579170D01*
G01X1596052Y3579170D01*
G01X1595450Y3579170D01*
G01X1594961Y3578652D01*
G01X1594470Y3578135D01*
G01X1593228Y3577988D01*
G01X1591985Y3577840D01*
G01X1591669Y3577420D01*
G01X1591353Y3576999D01*
G01X1589038Y3576859D01*
G01X1586723Y3576720D01*
G01X1586073Y3576271D01*
G01X1585424Y3575821D01*
G01X1583554Y3575821D01*
G01X1581686Y3575821D01*
G01X1581036Y3576271D01*
G01X1580386Y3576720D01*
G01X1578071Y3576859D01*
G01X1575756Y3576999D01*
G01X1575440Y3577420D01*
G01X1575124Y3577840D01*
G01X1573881Y3577988D01*
G01X1572638Y3578135D01*
G01X1572149Y3578652D01*
G01X1571658Y3579170D01*
G01X1571056Y3579170D01*
G01X1570454Y3579170D01*
G01X1570002Y3579728D01*
G01X1569549Y3580286D01*
G01X1568949Y3580286D01*
G01X1568349Y3580286D01*
G01X1568019Y3580844D01*
G01X1567689Y3581402D01*
G01X1567295Y3581402D01*
G01X1566900Y3581402D01*
G01X1566900Y3581696D01*
G01X1566900Y3581989D01*
G01X1566007Y3582383D01*
G01X1565114Y3582777D01*
G01X1564958Y3583206D01*
G01X1564802Y3583635D01*
G01X1564544Y3583635D01*
G01X1564286Y3583635D01*
G01X1562950Y3585068D01*
G01X1561613Y3586501D01*
G01X1561613Y3586742D01*
G01X1561613Y3586984D01*
G01X1561113Y3586984D01*
G01X1560612Y3586984D01*
G01X1560460Y3587402D01*
G01X1560308Y3587821D01*
G01X1559763Y3587821D01*
G01X1559217Y3587821D01*
G01X1559065Y3587402D01*
G37*
G36*
G01X1446950Y3629081D02*
G01X1446620Y3628731D01*
G01X1446620Y3626115D01*
G01X1446620Y3623500D01*
G01X1446246Y3623106D01*
G01X1445873Y3622712D01*
G01X1445697Y3620684D01*
G01X1445521Y3618656D01*
G01X1445608Y3605500D01*
G01X1445694Y3592343D01*
G01X1446136Y3591826D01*
G01X1446577Y3591309D01*
G01X1446664Y3587780D01*
G01X1446752Y3584250D01*
G01X1447186Y3583733D01*
G01X1447620Y3583216D01*
G01X1447728Y3580462D01*
G01X1447837Y3577709D01*
G01X1448252Y3577388D01*
G01X1448668Y3577066D01*
G01X1448778Y3575023D01*
G01X1448887Y3572980D01*
G01X1449340Y3572712D01*
G01X1449792Y3572444D01*
G01X1449796Y3570993D01*
G01X1449799Y3569542D01*
G01X1449958Y3568914D01*
G01X1450118Y3568287D01*
G01X1450484Y3568287D01*
G01X1450850Y3568287D01*
G01X1450850Y3566789D01*
G01X1450850Y3565292D01*
G01X1451378Y3564582D01*
G01X1451906Y3563873D01*
G01X1451906Y3563023D01*
G01X1451906Y3562173D01*
G01X1452213Y3561462D01*
G01X1452520Y3560752D01*
G01X1452742Y3560752D01*
G01X1452964Y3560752D01*
G01X1452964Y3559673D01*
G01X1452964Y3558595D01*
G01X1453493Y3557885D01*
G01X1454022Y3557176D01*
G01X1454022Y3556310D01*
G01X1454022Y3555444D01*
G01X1454550Y3554966D01*
G01X1455079Y3554488D01*
G01X1455079Y3553611D01*
G01X1455079Y3552735D01*
G01X1455608Y3552025D01*
G01X1456136Y3551315D01*
G01X1456136Y3550589D01*
G01X1456136Y3549863D01*
G01X1456665Y3549385D01*
G01X1457194Y3548907D01*
G01X1457194Y3548134D01*
G01X1457194Y3547362D01*
G01X1457722Y3547013D01*
G01X1458251Y3546664D01*
G01X1458251Y3545932D01*
G01X1458251Y3545200D01*
G01X1458780Y3544491D01*
G01X1459308Y3543780D01*
G01X1459308Y3543374D01*
G01X1459308Y3542967D01*
G01X1459838Y3542258D01*
G01X1460366Y3541548D01*
G01X1460366Y3541101D01*
G01X1460366Y3540654D01*
G01X1460895Y3540176D01*
G01X1461424Y3539698D01*
G01X1461424Y3539225D01*
G01X1461424Y3538752D01*
G01X1461584Y3538310D01*
G01X1461744Y3537869D01*
G01X1462113Y3537869D01*
G01X1462481Y3537869D01*
G01X1462481Y3537169D01*
G01X1462481Y3536468D01*
G01X1463010Y3535990D01*
G01X1463538Y3535513D01*
G01X1463538Y3535017D01*
G01X1463538Y3534520D01*
G01X1464067Y3533962D01*
G01X1464596Y3533404D01*
G01X1464596Y3533023D01*
G01X1464596Y3532642D01*
G01X1465124Y3531933D01*
G01X1465653Y3531223D01*
G01X1465653Y3530934D01*
G01X1465653Y3530645D01*
G01X1466163Y3530268D01*
G01X1466673Y3529891D01*
G01X1466858Y3529113D01*
G01X1467043Y3528336D01*
G01X1467405Y3528189D01*
G01X1467768Y3528042D01*
G01X1467768Y3527656D01*
G01X1467768Y3527269D01*
G01X1468296Y3526921D01*
G01X1468826Y3526573D01*
G01X1468826Y3526082D01*
G01X1468826Y3525590D01*
G01X1469354Y3525032D01*
G01X1469883Y3524474D01*
G01X1469883Y3524211D01*
G01X1469883Y3523948D01*
G01X1470346Y3523583D01*
G01X1470808Y3523218D01*
G01X1471183Y3522451D01*
G01X1471558Y3521684D01*
G01X1471778Y3521684D01*
G01X1471998Y3521684D01*
G01X1471998Y3521305D01*
G01X1471998Y3520928D01*
G01X1472658Y3520175D01*
G01X1473320Y3519423D01*
G01X1473320Y3519158D01*
G01X1473320Y3518893D01*
G01X1473716Y3518893D01*
G01X1474112Y3518893D01*
G01X1474112Y3518584D01*
G01X1474112Y3518276D01*
G01X1474774Y3517447D01*
G01X1475434Y3516618D01*
G01X1475434Y3516221D01*
G01X1475434Y3515823D01*
G01X1475831Y3515823D01*
G01X1476227Y3515823D01*
G01X1476227Y3515463D01*
G01X1476227Y3515103D01*
G01X1477236Y3514123D01*
G01X1478245Y3513144D01*
G01X1478417Y3512670D01*
G01X1478590Y3512196D01*
G01X1478966Y3512196D01*
G01X1479342Y3512196D01*
G01X1479496Y3511549D01*
G01X1479649Y3510903D01*
G01X1481242Y3509179D01*
G01X1482836Y3507455D01*
G01X1482836Y3507207D01*
G01X1482836Y3506959D01*
G01X1483365Y3506813D01*
G01X1483894Y3506666D01*
G01X1483894Y3506222D01*
G01X1483894Y3505777D01*
G01X1484290Y3505777D01*
G01X1484686Y3505777D01*
G01X1484686Y3505526D01*
G01X1484686Y3505275D01*
G01X1485638Y3504271D01*
G01X1486590Y3503265D01*
G01X1486828Y3503265D01*
G01X1487066Y3503265D01*
G01X1487066Y3502880D01*
G01X1487066Y3502494D01*
G01X1487594Y3502347D01*
G01X1488123Y3502202D01*
G01X1488123Y3501757D01*
G01X1488123Y3501312D01*
G01X1488393Y3501312D01*
G01X1488663Y3501312D01*
G01X1490158Y3499759D01*
G01X1491653Y3498206D01*
G01X1492367Y3497816D01*
G01X1493082Y3497426D01*
G01X1493238Y3496997D01*
G01X1493394Y3496568D01*
G01X1493798Y3496568D01*
G01X1494203Y3496568D01*
G01X1494203Y3496150D01*
G01X1494203Y3495731D01*
G01X1494469Y3495731D01*
G01X1494735Y3495731D01*
G01X1495310Y3495033D01*
G01X1495884Y3494336D01*
G01X1496234Y3494336D01*
G01X1496582Y3494336D01*
G01X1496582Y3493917D01*
G01X1496582Y3493498D01*
G01X1496875Y3493498D01*
G01X1497167Y3493498D01*
G01X1497953Y3492801D01*
G01X1498738Y3492103D01*
G01X1499114Y3492103D01*
G01X1499490Y3492103D01*
G01X1499490Y3491685D01*
G01X1499490Y3491266D01*
G01X1499755Y3491266D01*
G01X1500019Y3491266D01*
G01X1500490Y3490778D01*
G01X1500962Y3490289D01*
G01X1502025Y3489522D01*
G01X1503088Y3488754D01*
G01X1503340Y3488754D01*
G01X1503593Y3488754D01*
G01X1503923Y3488196D01*
G01X1504253Y3487639D01*
G01X1504648Y3487639D01*
G01X1505041Y3487639D01*
G01X1505041Y3487242D01*
G01X1505041Y3486845D01*
G01X1505853Y3486658D01*
G01X1506664Y3486469D01*
G01X1506802Y3486088D01*
G01X1506941Y3485706D01*
G01X1507472Y3485528D01*
G01X1508002Y3485351D01*
G01X1508504Y3484820D01*
G01X1509007Y3484290D01*
G01X1509472Y3484290D01*
G01X1509937Y3484290D01*
G01X1510267Y3483731D01*
G01X1510597Y3483173D01*
G01X1510963Y3483173D01*
G01X1511330Y3483173D01*
G01X1511469Y3482791D01*
G01X1511608Y3482408D01*
G01X1512356Y3482210D01*
G01X1513105Y3482012D01*
G01X1513577Y3481476D01*
G01X1514050Y3480941D01*
G01X1514637Y3480941D01*
G01X1515224Y3480941D01*
G01X1515555Y3480383D01*
G01X1515885Y3479825D01*
G01X1516370Y3479825D01*
G01X1516855Y3479825D01*
G01X1517334Y3479266D01*
G01X1517813Y3478708D01*
G01X1518311Y3478708D01*
G01X1518810Y3478708D01*
G01X1519378Y3478150D01*
G01X1519945Y3477592D01*
G01X1520316Y3477592D01*
G01X1520688Y3477592D01*
G01X1521360Y3477034D01*
G01X1522032Y3476476D01*
G01X1522497Y3476476D01*
G01X1522961Y3476476D01*
G01X1523108Y3476072D01*
G01X1523254Y3475669D01*
G01X1524259Y3475474D01*
G01X1525265Y3475279D01*
G01X1525895Y3474761D01*
G01X1526526Y3474243D01*
G01X1527219Y3474243D01*
G01X1527913Y3474243D01*
G01X1528243Y3473685D01*
G01X1528574Y3473128D01*
G01X1529496Y3473128D01*
G01X1530419Y3473128D01*
G01X1530419Y3472741D01*
G01X1530419Y3472355D01*
G01X1531015Y3472187D01*
G01X1531609Y3472018D01*
G01X1532873Y3472015D01*
G01X1534137Y3472011D01*
G01X1534303Y3472499D01*
G01X1534469Y3472988D01*
G01X1534956Y3473487D01*
G01X1535442Y3473986D01*
G01X1535442Y3474673D01*
G01X1535442Y3475360D01*
G01X1535821Y3475360D01*
G01X1536200Y3475360D01*
G01X1536386Y3475987D01*
G01X1536573Y3476616D01*
G01X1537065Y3477281D01*
G01X1537557Y3477947D01*
G01X1537557Y3478353D01*
G01X1537557Y3478760D01*
G01X1538086Y3479469D01*
G01X1538615Y3480179D01*
G01X1538615Y3480670D01*
G01X1538615Y3481161D01*
G01X1538986Y3481311D01*
G01X1539358Y3481462D01*
G01X1539549Y3482387D01*
G01X1539741Y3483313D01*
G01X1540235Y3483978D01*
G01X1540729Y3484644D01*
G01X1540729Y3485516D01*
G01X1540729Y3486388D01*
G01X1541258Y3486737D01*
G01X1541787Y3487085D01*
G01X1541787Y3487920D01*
G01X1541787Y3488754D01*
G01X1542315Y3489313D01*
G01X1542844Y3489871D01*
G01X1542844Y3490848D01*
G01X1542844Y3491824D01*
G01X1543373Y3492383D01*
G01X1543901Y3492940D01*
G01X1543901Y3494057D01*
G01X1543901Y3495173D01*
G01X1544430Y3495731D01*
G01X1544959Y3496289D01*
G01X1544959Y3497584D01*
G01X1544959Y3498879D01*
G01X1545407Y3499225D01*
G01X1545855Y3499571D01*
G01X1545970Y3501484D01*
G01X1546086Y3503397D01*
G01X1546503Y3503719D01*
G01X1546921Y3504042D01*
G01X1547025Y3505977D01*
G01X1547128Y3507912D01*
G01X1546686Y3508380D01*
G01X1546243Y3508847D01*
G01X1545601Y3508847D01*
G01X1544959Y3508847D01*
G01X1544430Y3509405D01*
G01X1543901Y3509963D01*
G01X1543348Y3509963D01*
G01X1542796Y3509963D01*
G01X1542123Y3510521D01*
G01X1541451Y3511079D01*
G01X1540858Y3511079D01*
G01X1540266Y3511079D01*
G01X1539945Y3511487D01*
G01X1539624Y3511895D01*
G01X1539053Y3512084D01*
G01X1538482Y3512272D01*
G01X1537852Y3512792D01*
G01X1537221Y3513312D01*
G01X1536836Y3513312D01*
G01X1536451Y3513312D01*
G01X1535779Y3513870D01*
G01X1535107Y3514428D01*
G01X1534614Y3514428D01*
G01X1534121Y3514428D01*
G01X1534121Y3514825D01*
G01X1534121Y3515221D01*
G01X1533261Y3515415D01*
G01X1532402Y3515609D01*
G01X1531929Y3516135D01*
G01X1531456Y3516661D01*
G01X1531111Y3516661D01*
G01X1530766Y3516661D01*
G01X1530287Y3517219D01*
G01X1529809Y3517776D01*
G01X1529321Y3517776D01*
G01X1528833Y3517776D01*
G01X1528833Y3518183D01*
G01X1528833Y3518588D01*
G01X1527908Y3518772D01*
G01X1526983Y3518955D01*
G01X1526983Y3519343D01*
G01X1526983Y3519730D01*
G01X1526732Y3519730D01*
G01X1526481Y3519730D01*
G01X1525769Y3520428D01*
G01X1525055Y3521126D01*
G01X1524698Y3521126D01*
G01X1524339Y3521126D01*
G01X1524339Y3521357D01*
G01X1524339Y3521589D01*
G01X1523634Y3521985D01*
G01X1522928Y3522381D01*
G01X1521936Y3523358D01*
G01X1520944Y3524335D01*
G01X1520329Y3524826D01*
G01X1519713Y3525317D01*
G01X1518882Y3526011D01*
G01X1518051Y3526707D01*
G01X1517759Y3526707D01*
G01X1517466Y3526707D01*
G01X1517466Y3527125D01*
G01X1517466Y3527544D01*
G01X1517221Y3527544D01*
G01X1516977Y3527544D01*
G01X1512502Y3532259D01*
G01X1508027Y3536973D01*
G01X1507865Y3537421D01*
G01X1507702Y3537869D01*
G01X1507297Y3537869D01*
G01X1506892Y3537869D01*
G01X1506892Y3538177D01*
G01X1506892Y3538486D01*
G01X1506234Y3539364D01*
G01X1505575Y3540241D01*
G01X1505110Y3540890D01*
G01X1504645Y3541540D01*
G01X1503654Y3542657D01*
G01X1502663Y3543775D01*
G01X1502663Y3543946D01*
G01X1502663Y3544118D01*
G01X1501937Y3545249D01*
G01X1501210Y3546380D01*
G01X1500879Y3546603D01*
G01X1500547Y3546827D01*
G01X1500547Y3547188D01*
G01X1500547Y3547550D01*
G01X1500043Y3548032D01*
G01X1499538Y3548514D01*
G01X1499377Y3549192D01*
G01X1499216Y3549869D01*
G01X1498960Y3549869D01*
G01X1498704Y3549869D01*
G01X1498295Y3550775D01*
G01X1497885Y3551683D01*
G01X1497476Y3552468D01*
G01X1497066Y3553253D01*
G01X1496692Y3553405D01*
G01X1496318Y3553556D01*
G01X1496318Y3554227D01*
G01X1496318Y3554897D01*
G01X1495789Y3555375D01*
G01X1495261Y3555853D01*
G01X1495261Y3556349D01*
G01X1495261Y3556845D01*
G01X1494759Y3557375D01*
G01X1494257Y3557905D01*
G01X1494073Y3558789D01*
G01X1493889Y3559673D01*
G01X1493544Y3559814D01*
G01X1493197Y3559953D01*
G01X1493025Y3560925D01*
G01X1492853Y3561898D01*
G01X1492501Y3562040D01*
G01X1492151Y3562182D01*
G01X1491984Y3563281D01*
G01X1491818Y3564380D01*
G01X1491425Y3564380D01*
G01X1491031Y3564380D01*
G01X1491031Y3565217D01*
G01X1491031Y3566054D01*
G01X1490542Y3566570D01*
G01X1490054Y3567086D01*
G01X1489899Y3568304D01*
G01X1489745Y3569523D01*
G01X1489330Y3569842D01*
G01X1488916Y3570162D01*
G01X1488916Y3570886D01*
G01X1488916Y3571609D01*
G01X1488609Y3572320D01*
G01X1488303Y3573031D01*
G01X1488081Y3573031D01*
G01X1487859Y3573031D01*
G01X1487859Y3573994D01*
G01X1487859Y3574958D01*
G01X1487552Y3575668D01*
G01X1487245Y3576379D01*
G01X1487055Y3576379D01*
G01X1486865Y3576379D01*
G01X1486750Y3578055D01*
G01X1486635Y3579730D01*
G01X1486214Y3580078D01*
G01X1485793Y3580426D01*
G01X1485688Y3582343D01*
G01X1485583Y3584261D01*
G01X1485170Y3584579D01*
G01X1484757Y3584898D01*
G01X1484641Y3587463D01*
G01X1484525Y3590029D01*
G01X1484110Y3590530D01*
G01X1483694Y3591030D01*
G01X1483562Y3595422D01*
G01X1483430Y3599813D01*
G01X1483001Y3600504D01*
G01X1482572Y3601196D01*
G01X1482572Y3607601D01*
G01X1482572Y3614006D01*
G01X1482877Y3614113D01*
G01X1483182Y3614220D01*
G01X1483386Y3615741D01*
G01X1483591Y3617262D01*
G01X1483610Y3620413D01*
G01X1483629Y3623565D01*
G01X1482980Y3624251D01*
G01X1482331Y3624935D01*
G01X1481130Y3624935D01*
G01X1479928Y3624935D01*
G01X1479928Y3625170D01*
G01X1479928Y3625404D01*
G01X1479255Y3625728D01*
G01X1478582Y3626052D01*
G01X1477368Y3626052D01*
G01X1476153Y3626052D01*
G01X1475825Y3626525D01*
G01X1475498Y3626998D01*
G01X1473682Y3627114D01*
G01X1471866Y3627230D01*
G01X1471376Y3627687D01*
G01X1470886Y3628145D01*
G01X1468213Y3628242D01*
G01X1465540Y3628340D01*
G01X1465222Y3628801D01*
G01X1464903Y3629261D01*
G01X1456092Y3629347D01*
G01X1447280Y3629432D01*
G01X1446950Y3629081D01*
G37*
G36*
G01X1702646Y3629200D02*
G01X1702116Y3629064D01*
G01X1701720Y3628700D01*
G01X1701324Y3628336D01*
G01X1698773Y3628240D01*
G01X1696223Y3628145D01*
G01X1695733Y3627691D01*
G01X1695244Y3627237D01*
G01X1693315Y3627099D01*
G01X1691387Y3626962D01*
G01X1691068Y3626535D01*
G01X1690750Y3626109D01*
G01X1689233Y3625988D01*
G01X1687718Y3625867D01*
G01X1687251Y3625437D01*
G01X1686784Y3625006D01*
G01X1685505Y3624863D01*
G01X1684227Y3624719D01*
G01X1683919Y3624393D01*
G01X1683612Y3624066D01*
G01X1683630Y3619346D01*
G01X1683649Y3614627D01*
G01X1684093Y3614108D01*
G01X1684537Y3613590D01*
G01X1684537Y3607286D01*
G01X1684537Y3600983D01*
G01X1684232Y3600876D01*
G01X1683927Y3600769D01*
G01X1683723Y3599248D01*
G01X1683518Y3597727D01*
G01X1683499Y3594401D01*
G01X1683480Y3591074D01*
G01X1683032Y3590552D01*
G01X1682584Y3590029D01*
G01X1682468Y3587463D01*
G01X1682352Y3584898D01*
G01X1681939Y3584579D01*
G01X1681527Y3584261D01*
G01X1681421Y3582343D01*
G01X1681316Y3580426D01*
G01X1680906Y3580087D01*
G01X1680496Y3579747D01*
G01X1680369Y3578273D01*
G01X1680243Y3576798D01*
G01X1679856Y3576331D01*
G01X1679470Y3575864D01*
G01X1679325Y3574657D01*
G01X1679181Y3573449D01*
G01X1678796Y3572982D01*
G01X1678412Y3572516D01*
G01X1678260Y3571308D01*
G01X1678107Y3570100D01*
G01X1677736Y3569811D01*
G01X1677365Y3569523D01*
G01X1677210Y3568304D01*
G01X1677055Y3567086D01*
G01X1676566Y3566570D01*
G01X1676078Y3566054D01*
G01X1676078Y3565217D01*
G01X1676078Y3564380D01*
G01X1675685Y3564380D01*
G01X1675291Y3564380D01*
G01X1675124Y3563281D01*
G01X1674958Y3562182D01*
G01X1674607Y3562040D01*
G01X1674257Y3561898D01*
G01X1674084Y3560925D01*
G01X1673911Y3559953D01*
G01X1673566Y3559814D01*
G01X1673220Y3559673D01*
G01X1673036Y3558789D01*
G01X1672852Y3557905D01*
G01X1672350Y3557375D01*
G01X1671848Y3556845D01*
G01X1671848Y3556349D01*
G01X1671848Y3555853D01*
G01X1671320Y3555375D01*
G01X1670791Y3554897D01*
G01X1670791Y3554227D01*
G01X1670791Y3553556D01*
G01X1670417Y3553405D01*
G01X1670043Y3553253D01*
G01X1669633Y3552468D01*
G01X1669224Y3551683D01*
G01X1668814Y3550775D01*
G01X1668405Y3549869D01*
G01X1668149Y3549869D01*
G01X1667893Y3549869D01*
G01X1667732Y3549192D01*
G01X1667571Y3548514D01*
G01X1667066Y3548032D01*
G01X1666561Y3547550D01*
G01X1666561Y3547188D01*
G01X1666561Y3546827D01*
G01X1666230Y3546603D01*
G01X1665899Y3546380D01*
G01X1665173Y3545249D01*
G01X1664446Y3544118D01*
G01X1664446Y3543784D01*
G01X1664446Y3543451D01*
G01X1664050Y3543451D01*
G01X1663653Y3543451D01*
G01X1663653Y3543186D01*
G01X1663653Y3542921D01*
G01X1663059Y3542222D01*
G01X1662464Y3541523D01*
G01X1661999Y3540882D01*
G01X1661534Y3540241D01*
G01X1660875Y3539364D01*
G01X1660217Y3538486D01*
G01X1660217Y3538177D01*
G01X1660217Y3537869D01*
G01X1659812Y3537869D01*
G01X1659407Y3537869D01*
G01X1659236Y3537398D01*
G01X1659065Y3536928D01*
G01X1654799Y3532426D01*
G01X1650534Y3527922D01*
G01X1650088Y3527742D01*
G01X1649643Y3527562D01*
G01X1649643Y3527134D01*
G01X1649643Y3526707D01*
G01X1649255Y3526707D01*
G01X1648868Y3526707D01*
G01X1648585Y3526149D01*
G01X1648303Y3525590D01*
G01X1647937Y3525590D01*
G01X1647573Y3525590D01*
G01X1646872Y3524963D01*
G01X1646172Y3524335D01*
G01X1645177Y3523358D01*
G01X1644181Y3522381D01*
G01X1643475Y3521985D01*
G01X1642769Y3521589D01*
G01X1642769Y3521357D01*
G01X1642769Y3521126D01*
G01X1642412Y3521126D01*
G01X1642053Y3521126D01*
G01X1641341Y3520428D01*
G01X1640627Y3519730D01*
G01X1640377Y3519730D01*
G01X1640126Y3519730D01*
G01X1640126Y3519343D01*
G01X1640126Y3518955D01*
G01X1639201Y3518772D01*
G01X1638275Y3518588D01*
G01X1638275Y3518183D01*
G01X1638275Y3517776D01*
G01X1637787Y3517776D01*
G01X1637300Y3517776D01*
G01X1636821Y3517219D01*
G01X1636343Y3516661D01*
G01X1635985Y3516661D01*
G01X1635627Y3516661D01*
G01X1635174Y3516102D01*
G01X1634721Y3515544D01*
G01X1634251Y3515544D01*
G01X1633781Y3515544D01*
G01X1633253Y3514986D01*
G01X1632724Y3514428D01*
G01X1632363Y3514428D01*
G01X1632002Y3514428D01*
G01X1631330Y3513870D01*
G01X1630658Y3513312D01*
G01X1630278Y3513312D01*
G01X1629898Y3513312D01*
G01X1629419Y3512753D01*
G01X1628941Y3512196D01*
G01X1628362Y3512196D01*
G01X1627783Y3512196D01*
G01X1627333Y3511671D01*
G01X1626884Y3511147D01*
G01X1625829Y3510968D01*
G01X1624774Y3510790D01*
G01X1624635Y3510409D01*
G01X1624497Y3510029D01*
G01X1623456Y3509853D01*
G01X1622414Y3509678D01*
G01X1622414Y3509262D01*
G01X1622414Y3508847D01*
G01X1621640Y3508847D01*
G01X1620866Y3508847D01*
G01X1620423Y3508380D01*
G01X1619981Y3507912D01*
G01X1620085Y3505977D01*
G01X1620188Y3504042D01*
G01X1620605Y3503719D01*
G01X1621023Y3503397D01*
G01X1621138Y3501484D01*
G01X1621254Y3499571D01*
G01X1621702Y3499225D01*
G01X1622150Y3498879D01*
G01X1622150Y3497584D01*
G01X1622150Y3496289D01*
G01X1622679Y3495731D01*
G01X1623207Y3495173D01*
G01X1623207Y3494057D01*
G01X1623207Y3492940D01*
G01X1623736Y3492383D01*
G01X1624265Y3491824D01*
G01X1624265Y3490848D01*
G01X1624265Y3489871D01*
G01X1624793Y3489313D01*
G01X1625322Y3488754D01*
G01X1625322Y3487915D01*
G01X1625322Y3487075D01*
G01X1625851Y3486597D01*
G01X1626379Y3486119D01*
G01X1626379Y3485382D01*
G01X1626379Y3484644D01*
G01X1626874Y3483978D01*
G01X1627368Y3483313D01*
G01X1627560Y3482387D01*
G01X1627751Y3481462D01*
G01X1628097Y3481321D01*
G01X1628442Y3481181D01*
G01X1628615Y3480209D01*
G01X1628788Y3479237D01*
G01X1629170Y3479083D01*
G01X1629552Y3478928D01*
G01X1629552Y3478437D01*
G01X1629552Y3477947D01*
G01X1630044Y3477281D01*
G01X1630537Y3476616D01*
G01X1630723Y3475987D01*
G01X1630909Y3475360D01*
G01X1631288Y3475360D01*
G01X1631667Y3475360D01*
G01X1631667Y3474673D01*
G01X1631667Y3473986D01*
G01X1632153Y3473487D01*
G01X1632639Y3472988D01*
G01X1632806Y3472499D01*
G01X1632972Y3472011D01*
G01X1634236Y3472015D01*
G01X1635499Y3472018D01*
G01X1636095Y3472187D01*
G01X1636689Y3472355D01*
G01X1636689Y3472741D01*
G01X1636689Y3473128D01*
G01X1637612Y3473128D01*
G01X1638535Y3473128D01*
G01X1638865Y3473685D01*
G01X1639196Y3474243D01*
G01X1639889Y3474243D01*
G01X1640584Y3474243D01*
G01X1641214Y3474761D01*
G01X1641844Y3475279D01*
G01X1642849Y3475474D01*
G01X1643855Y3475669D01*
G01X1644001Y3476072D01*
G01X1644148Y3476476D01*
G01X1644613Y3476476D01*
G01X1645078Y3476476D01*
G01X1645750Y3477034D01*
G01X1646422Y3477592D01*
G01X1646807Y3477592D01*
G01X1647192Y3477592D01*
G01X1647864Y3478150D01*
G01X1648536Y3478708D01*
G01X1648916Y3478708D01*
G01X1649297Y3478708D01*
G01X1649775Y3479266D01*
G01X1650253Y3479825D01*
G01X1650726Y3479825D01*
G01X1651199Y3479825D01*
G01X1651544Y3480345D01*
G01X1651889Y3480866D01*
G01X1652749Y3481065D01*
G01X1653608Y3481264D01*
G01X1653608Y3481630D01*
G01X1653608Y3481995D01*
G01X1654547Y3482181D01*
G01X1655486Y3482367D01*
G01X1655624Y3482745D01*
G01X1655761Y3483123D01*
G01X1656403Y3483293D01*
G01X1657045Y3483463D01*
G01X1657045Y3483845D01*
G01X1657045Y3484228D01*
G01X1657970Y3484411D01*
G01X1658895Y3484594D01*
G01X1658895Y3485000D01*
G01X1658895Y3485406D01*
G01X1659281Y3485406D01*
G01X1659667Y3485406D01*
G01X1660140Y3485941D01*
G01X1660613Y3486477D01*
G01X1661340Y3486669D01*
G01X1662067Y3486861D01*
G01X1662067Y3487250D01*
G01X1662067Y3487639D01*
G01X1662449Y3487639D01*
G01X1662830Y3487639D01*
G01X1663176Y3488156D01*
G01X1663521Y3488675D01*
G01X1664182Y3488888D01*
G01X1664843Y3489103D01*
G01X1665302Y3489556D01*
G01X1665762Y3490010D01*
G01X1666228Y3490453D01*
G01X1666693Y3490896D01*
G01X1667156Y3491072D01*
G01X1667619Y3491249D01*
G01X1667619Y3491676D01*
G01X1667619Y3492103D01*
G01X1667995Y3492103D01*
G01X1668371Y3492103D01*
G01X1669157Y3492801D01*
G01X1669942Y3493498D01*
G01X1670234Y3493498D01*
G01X1670527Y3493498D01*
G01X1670527Y3493917D01*
G01X1670527Y3494336D01*
G01X1670908Y3494336D01*
G01X1671290Y3494336D01*
G01X1671635Y3494843D01*
G01X1671980Y3495349D01*
G01X1672443Y3495531D01*
G01X1672906Y3495714D01*
G01X1672906Y3496141D01*
G01X1672906Y3496568D01*
G01X1673293Y3496568D01*
G01X1673680Y3496568D01*
G01X1673963Y3497127D01*
G01X1674246Y3497685D01*
G01X1674572Y3497685D01*
G01X1674898Y3497685D01*
G01X1676139Y3498940D01*
G01X1677381Y3500196D01*
G01X1677654Y3500196D01*
G01X1677928Y3500196D01*
G01X1677928Y3500641D01*
G01X1677928Y3501085D01*
G01X1678457Y3501232D01*
G01X1678986Y3501377D01*
G01X1678986Y3501763D01*
G01X1678986Y3502150D01*
G01X1679220Y3502150D01*
G01X1679455Y3502150D01*
G01X1681467Y3504274D01*
G01X1683480Y3506398D01*
G01X1683480Y3506646D01*
G01X1683480Y3506894D01*
G01X1683876Y3506894D01*
G01X1684273Y3506894D01*
G01X1684273Y3507197D01*
G01X1684273Y3507501D01*
G01X1685396Y3508684D01*
G01X1686520Y3509867D01*
G01X1687048Y3510676D01*
G01X1687577Y3511485D01*
G01X1688172Y3512082D01*
G01X1688767Y3512678D01*
G01X1688767Y3512864D01*
G01X1688767Y3513050D01*
G01X1689824Y3514076D01*
G01X1690882Y3515103D01*
G01X1690882Y3515324D01*
G01X1690882Y3515544D01*
G01X1691297Y3516032D01*
G01X1691713Y3516521D01*
G01X1692355Y3517358D01*
G01X1692996Y3518196D01*
G01X1692996Y3518395D01*
G01X1692996Y3518595D01*
G01X1693856Y3519515D01*
G01X1694714Y3520435D01*
G01X1695442Y3521563D01*
G01X1696168Y3522690D01*
G01X1696168Y3522957D01*
G01X1696168Y3523224D01*
G01X1696698Y3523573D01*
G01X1697226Y3523921D01*
G01X1697226Y3524197D01*
G01X1697226Y3524474D01*
G01X1697755Y3525032D01*
G01X1698284Y3525590D01*
G01X1698284Y3526082D01*
G01X1698284Y3526573D01*
G01X1698812Y3526921D01*
G01X1699341Y3527269D01*
G01X1699341Y3527656D01*
G01X1699341Y3528042D01*
G01X1699703Y3528189D01*
G01X1700066Y3528336D01*
G01X1700251Y3529113D01*
G01X1700436Y3529891D01*
G01X1700946Y3530268D01*
G01X1701456Y3530645D01*
G01X1701456Y3531060D01*
G01X1701456Y3531474D01*
G01X1701984Y3532073D01*
G01X1702513Y3532672D01*
G01X1702513Y3533038D01*
G01X1702513Y3533404D01*
G01X1703042Y3533962D01*
G01X1703570Y3534520D01*
G01X1703570Y3535017D01*
G01X1703570Y3535513D01*
G01X1704100Y3535990D01*
G01X1704628Y3536468D01*
G01X1704628Y3537101D01*
G01X1704628Y3537735D01*
G01X1705156Y3538084D01*
G01X1705686Y3538432D01*
G01X1705686Y3539065D01*
G01X1705686Y3539698D01*
G01X1706214Y3540176D01*
G01X1706743Y3540654D01*
G01X1706743Y3541293D01*
G01X1706743Y3541931D01*
G01X1707272Y3542409D01*
G01X1707800Y3542887D01*
G01X1707800Y3543334D01*
G01X1707800Y3543780D01*
G01X1708329Y3544491D01*
G01X1708858Y3545200D01*
G01X1708858Y3545860D01*
G01X1708858Y3546520D01*
G01X1709386Y3547078D01*
G01X1709915Y3547636D01*
G01X1709915Y3548474D01*
G01X1709915Y3549310D01*
G01X1710300Y3549310D01*
G01X1710684Y3549310D01*
G01X1710867Y3550357D01*
G01X1711049Y3551403D01*
G01X1711540Y3552069D01*
G01X1712030Y3552735D01*
G01X1712030Y3553611D01*
G01X1712030Y3554488D01*
G01X1712558Y3554966D01*
G01X1713088Y3555444D01*
G01X1713088Y3556310D01*
G01X1713088Y3557176D01*
G01X1713616Y3557885D01*
G01X1714145Y3558595D01*
G01X1714145Y3559559D01*
G01X1714145Y3560524D01*
G01X1714674Y3561234D01*
G01X1715202Y3561943D01*
G01X1715202Y3562908D01*
G01X1715202Y3563873D01*
G01X1715731Y3564582D01*
G01X1716260Y3565292D01*
G01X1716260Y3566689D01*
G01X1716260Y3568085D01*
G01X1716702Y3568427D01*
G01X1717146Y3568770D01*
G01X1717257Y3570552D01*
G01X1717369Y3572333D01*
G01X1717773Y3572669D01*
G01X1718179Y3573006D01*
G01X1718317Y3575041D01*
G01X1718454Y3577077D01*
G01X1718863Y3577393D01*
G01X1719272Y3577709D01*
G01X1719381Y3580462D01*
G01X1719490Y3583216D01*
G01X1719924Y3583734D01*
G01X1720357Y3584251D01*
G01X1720451Y3587910D01*
G01X1720545Y3591570D01*
G01X1720980Y3591905D01*
G01X1721414Y3592241D01*
G01X1721414Y3607303D01*
G01X1721414Y3622365D01*
G01X1720952Y3622905D01*
G01X1720489Y3623445D01*
G01X1720489Y3626088D01*
G01X1720489Y3628731D01*
G01X1720172Y3629066D01*
G01X1719855Y3629400D01*
G01X1711514Y3629368D01*
G01X1703174Y3629336D01*
G01X1702646Y3629200D01*
G37*
G36*
G01X1572944Y3753058D02*
G01X1571719Y3752865D01*
G01X1571358Y3752555D01*
G01X1570998Y3752244D01*
G01X1566812Y3752145D01*
G01X1562627Y3752046D01*
G01X1562315Y3751595D01*
G01X1562003Y3751145D01*
G01X1559595Y3751023D01*
G01X1557186Y3750902D01*
G01X1556552Y3750463D01*
G01X1555918Y3750024D01*
G01X1553978Y3749908D01*
G01X1552039Y3749793D01*
G01X1551733Y3749352D01*
G01X1551428Y3748911D01*
G01X1549616Y3748789D01*
G01X1547803Y3748668D01*
G01X1547503Y3748235D01*
G01X1547203Y3747802D01*
G01X1545680Y3747669D01*
G01X1544156Y3747535D01*
G01X1543830Y3747100D01*
G01X1543505Y3746665D01*
G01X1542115Y3746537D01*
G01X1540724Y3746408D01*
G01X1540243Y3745949D01*
G01X1539763Y3745490D01*
G01X1539069Y3745490D01*
G01X1538375Y3745490D01*
G01X1537702Y3745166D01*
G01X1537029Y3744842D01*
G01X1537029Y3744607D01*
G01X1537029Y3744373D01*
G01X1535986Y3744373D01*
G01X1534943Y3744373D01*
G01X1534598Y3743859D01*
G01X1534253Y3743344D01*
G01X1533073Y3743180D01*
G01X1531892Y3743015D01*
G01X1531589Y3742577D01*
G01X1531286Y3742141D01*
G01X1530459Y3742141D01*
G01X1529631Y3742141D01*
G01X1529301Y3741582D01*
G01X1528971Y3741024D01*
G01X1528277Y3741024D01*
G01X1527583Y3741024D01*
G01X1526953Y3740507D01*
G01X1526322Y3739989D01*
G01X1525317Y3739793D01*
G01X1524311Y3739598D01*
G01X1524175Y3739223D01*
G01X1524038Y3738847D01*
G01X1523118Y3738664D01*
G01X1522197Y3738482D01*
G01X1522060Y3738106D01*
G01X1521924Y3737731D01*
G01X1521003Y3737548D01*
G01X1520082Y3737366D01*
G01X1519935Y3736962D01*
G01X1519789Y3736559D01*
G01X1519324Y3736559D01*
G01X1518859Y3736559D01*
G01X1518187Y3736001D01*
G01X1517515Y3735443D01*
G01X1517127Y3735443D01*
G01X1516738Y3735443D01*
G01X1516396Y3735008D01*
G01X1516054Y3734574D01*
G01X1515174Y3734186D01*
G01X1514294Y3733797D01*
G01X1514294Y3733535D01*
G01X1514294Y3733273D01*
G01X1513369Y3733089D01*
G01X1512443Y3732906D01*
G01X1512443Y3732501D01*
G01X1512443Y3732094D01*
G01X1512018Y3732094D01*
G01X1511592Y3732094D01*
G01X1510300Y3731210D01*
G01X1509007Y3730326D01*
G01X1509007Y3730116D01*
G01X1509007Y3729906D01*
G01X1508196Y3729719D01*
G01X1507385Y3729530D01*
G01X1507242Y3729138D01*
G01X1507100Y3728746D01*
G01X1506734Y3728746D01*
G01X1506368Y3728746D01*
G01X1506038Y3728188D01*
G01X1505708Y3727629D01*
G01X1505455Y3727629D01*
G01X1505202Y3727629D01*
G01X1504131Y3726863D01*
G01X1503059Y3726096D01*
G01X1502847Y3725747D01*
G01X1502637Y3725397D01*
G01X1502262Y3725397D01*
G01X1501888Y3725397D01*
G01X1501605Y3724839D01*
G01X1501322Y3724280D01*
G01X1500949Y3724280D01*
G01X1500575Y3724280D01*
G01X1499919Y3723653D01*
G01X1499262Y3723025D01*
G01X1498319Y3722209D01*
G01X1497375Y3721393D01*
G01X1497375Y3720462D01*
G01X1497375Y3719531D01*
G01X1497904Y3719054D01*
G01X1498433Y3718576D01*
G01X1498433Y3718079D01*
G01X1498433Y3717583D01*
G01X1498961Y3717025D01*
G01X1499490Y3716467D01*
G01X1499490Y3716086D01*
G01X1499490Y3715705D01*
G01X1500019Y3714996D01*
G01X1500547Y3714286D01*
G01X1500547Y3713997D01*
G01X1500547Y3713708D01*
G01X1501057Y3713331D01*
G01X1501567Y3712954D01*
G01X1501752Y3712177D01*
G01X1501937Y3711399D01*
G01X1502300Y3711252D01*
G01X1502663Y3711105D01*
G01X1502663Y3710719D01*
G01X1502663Y3710333D01*
G01X1503191Y3709984D01*
G01X1503720Y3709635D01*
G01X1503720Y3709368D01*
G01X1503720Y3709102D01*
G01X1504447Y3707974D01*
G01X1505174Y3706847D01*
G01X1506033Y3705927D01*
G01X1506892Y3705007D01*
G01X1506892Y3704807D01*
G01X1506893Y3704607D01*
G01X1507542Y3703770D01*
G01X1508191Y3702933D01*
G01X1508665Y3702274D01*
G01X1509139Y3701614D01*
G01X1511164Y3699400D01*
G01X1513190Y3697186D01*
G01X1513337Y3696781D01*
G01X1513484Y3696375D01*
G01X1513859Y3696375D01*
G01X1514232Y3696375D01*
G01X1514371Y3695817D01*
G01X1514509Y3695258D01*
G01X1514930Y3695258D01*
G01X1515351Y3695258D01*
G01X1515351Y3694831D01*
G01X1515351Y3694404D01*
G01X1515783Y3694229D01*
G01X1516215Y3694054D01*
G01X1517700Y3692425D01*
G01X1519185Y3690796D01*
G01X1520204Y3690795D01*
G01X1521223Y3690793D01*
G01X1522055Y3691481D01*
G01X1522885Y3692169D01*
G01X1523348Y3692597D01*
G01X1523811Y3693026D01*
G01X1524073Y3693026D01*
G01X1524335Y3693026D01*
G01X1524665Y3693584D01*
G01X1524995Y3694143D01*
G01X1525248Y3694143D01*
G01X1525500Y3694143D01*
G01X1526572Y3694910D01*
G01X1527644Y3695677D01*
G01X1527734Y3695893D01*
G01X1527825Y3696109D01*
G01X1528659Y3696531D01*
G01X1529495Y3696953D01*
G01X1530238Y3697385D01*
G01X1530982Y3697818D01*
G01X1531126Y3698213D01*
G01X1531269Y3698607D01*
G01X1531770Y3698607D01*
G01X1532270Y3698607D01*
G01X1532799Y3699166D01*
G01X1533327Y3699723D01*
G01X1533688Y3699723D01*
G01X1534049Y3699723D01*
G01X1534680Y3700243D01*
G01X1535310Y3700763D01*
G01X1535881Y3700952D01*
G01X1536452Y3701140D01*
G01X1536773Y3701548D01*
G01X1537093Y3701956D01*
G01X1537592Y3701956D01*
G01X1538091Y3701956D01*
G01X1538544Y3702514D01*
G01X1538996Y3703072D01*
G01X1539563Y3703072D01*
G01X1540129Y3703072D01*
G01X1540802Y3703630D01*
G01X1541474Y3704189D01*
G01X1541991Y3704189D01*
G01X1542509Y3704189D01*
G01X1543139Y3704706D01*
G01X1543769Y3705224D01*
G01X1544735Y3705412D01*
G01X1545701Y3705599D01*
G01X1545836Y3705970D01*
G01X1545971Y3706341D01*
G01X1547072Y3706497D01*
G01X1548172Y3706653D01*
G01X1548635Y3707095D01*
G01X1549098Y3707537D01*
G01X1549901Y3707537D01*
G01X1550703Y3707537D01*
G01X1551376Y3708095D01*
G01X1552048Y3708654D01*
G01X1552853Y3708654D01*
G01X1553657Y3708654D01*
G01X1554331Y3708978D01*
G01X1555004Y3709301D01*
G01X1555004Y3709502D01*
G01X1555004Y3709702D01*
G01X1556591Y3709824D01*
G01X1558179Y3709945D01*
G01X1558508Y3710390D01*
G01X1558838Y3710836D01*
G01X1560735Y3710939D01*
G01X1562632Y3711041D01*
G01X1563114Y3711488D01*
G01X1563596Y3711935D01*
G01X1566218Y3712071D01*
G01X1568839Y3712208D01*
G01X1569126Y3712619D01*
G01X1569412Y3713029D01*
G01X1576152Y3713258D01*
G01X1582894Y3713488D01*
G01X1583554Y3713488D01*
G01X1584216Y3713488D01*
G01X1590956Y3713258D01*
G01X1597698Y3713029D01*
G01X1597986Y3712615D01*
G01X1598275Y3712201D01*
G01X1601026Y3712068D01*
G01X1603778Y3711935D01*
G01X1604255Y3711493D01*
G01X1604732Y3711050D01*
G01X1606502Y3710942D01*
G01X1608271Y3710834D01*
G01X1608601Y3710390D01*
G01X1608930Y3709945D01*
G01X1610517Y3709824D01*
G01X1612105Y3709702D01*
G01X1612105Y3709502D01*
G01X1612105Y3709301D01*
G01X1612778Y3708978D01*
G01X1613451Y3708654D01*
G01X1614256Y3708654D01*
G01X1615061Y3708654D01*
G01X1615733Y3708095D01*
G01X1616405Y3707537D01*
G01X1617187Y3707537D01*
G01X1617969Y3707537D01*
G01X1618641Y3706979D01*
G01X1619313Y3706421D01*
G01X1620212Y3706421D01*
G01X1621109Y3706421D01*
G01X1621262Y3706001D01*
G01X1621415Y3705581D01*
G01X1622427Y3705410D01*
G01X1623439Y3705239D01*
G01X1623574Y3704868D01*
G01X1623708Y3704498D01*
G01X1624713Y3704303D01*
G01X1625719Y3704107D01*
G01X1626349Y3703590D01*
G01X1626980Y3703072D01*
G01X1627546Y3703072D01*
G01X1628113Y3703072D01*
G01X1628565Y3702514D01*
G01X1629018Y3701956D01*
G01X1629517Y3701956D01*
G01X1630016Y3701956D01*
G01X1630337Y3701548D01*
G01X1630657Y3701140D01*
G01X1631228Y3700952D01*
G01X1631799Y3700763D01*
G01X1632430Y3700243D01*
G01X1633060Y3699723D01*
G01X1633553Y3699723D01*
G01X1634046Y3699723D01*
G01X1634046Y3699318D01*
G01X1634046Y3698911D01*
G01X1634971Y3698728D01*
G01X1635896Y3698545D01*
G01X1635896Y3698344D01*
G01X1635896Y3698143D01*
G01X1637189Y3697259D01*
G01X1638482Y3696375D01*
G01X1638762Y3696375D01*
G01X1639042Y3696375D01*
G01X1639253Y3696025D01*
G01X1639465Y3695675D01*
G01X1640537Y3694909D01*
G01X1641608Y3694143D01*
G01X1641861Y3694143D01*
G01X1642114Y3694143D01*
G01X1642443Y3693584D01*
G01X1642774Y3693026D01*
G01X1643036Y3693026D01*
G01X1643298Y3693026D01*
G01X1643761Y3692597D01*
G01X1644223Y3692169D01*
G01X1645055Y3691481D01*
G01X1645886Y3690793D01*
G01X1646905Y3690795D01*
G01X1647925Y3690796D01*
G01X1649060Y3692051D01*
G01X1650195Y3693305D01*
G01X1650448Y3693305D01*
G01X1650700Y3693305D01*
G01X1650700Y3693691D01*
G01X1650700Y3694077D01*
G01X1651229Y3694223D01*
G01X1651757Y3694369D01*
G01X1651757Y3694782D01*
G01X1651757Y3695193D01*
G01X1652286Y3695340D01*
G01X1652815Y3695486D01*
G01X1652815Y3695897D01*
G01X1652815Y3696310D01*
G01X1653343Y3696456D01*
G01X1653873Y3696601D01*
G01X1653873Y3697046D01*
G01X1653873Y3697491D01*
G01X1654269Y3697491D01*
G01X1654665Y3697491D01*
G01X1654665Y3697723D01*
G01X1654665Y3697954D01*
G01X1656317Y3699791D01*
G01X1657970Y3701626D01*
G01X1658435Y3702280D01*
G01X1658900Y3702933D01*
G01X1659558Y3703810D01*
G01X1660217Y3704687D01*
G01X1660217Y3704847D01*
G01X1660217Y3705007D01*
G01X1661076Y3705927D01*
G01X1661935Y3706847D01*
G01X1662662Y3707974D01*
G01X1663389Y3709102D01*
G01X1663389Y3709368D01*
G01X1663389Y3709635D01*
G01X1663918Y3709984D01*
G01X1664446Y3710333D01*
G01X1664446Y3710719D01*
G01X1664446Y3711105D01*
G01X1664809Y3711252D01*
G01X1665171Y3711399D01*
G01X1665356Y3712177D01*
G01X1665541Y3712954D01*
G01X1666051Y3713331D01*
G01X1666561Y3713708D01*
G01X1666561Y3714123D01*
G01X1666561Y3714537D01*
G01X1667090Y3715136D01*
G01X1667619Y3715735D01*
G01X1667619Y3716101D01*
G01X1667619Y3716467D01*
G01X1668147Y3717025D01*
G01X1668676Y3717583D01*
G01X1668676Y3718079D01*
G01X1668676Y3718576D01*
G01X1669205Y3719054D01*
G01X1669733Y3719531D01*
G01X1669731Y3720441D01*
G01X1669728Y3721351D01*
G01X1668844Y3722257D01*
G01X1667959Y3723165D01*
G01X1667656Y3723165D01*
G01X1667354Y3723165D01*
G01X1667354Y3723458D01*
G01X1667354Y3723751D01*
G01X1666461Y3724145D01*
G01X1665568Y3724539D01*
G01X1665412Y3724968D01*
G01X1665256Y3725397D01*
G01X1664864Y3725397D01*
G01X1664473Y3725397D01*
G01X1664261Y3725747D01*
G01X1664050Y3726096D01*
G01X1662978Y3726863D01*
G01X1661907Y3727629D01*
G01X1661654Y3727629D01*
G01X1661402Y3727629D01*
G01X1661071Y3728188D01*
G01X1660741Y3728746D01*
G01X1660375Y3728746D01*
G01X1660009Y3728746D01*
G01X1659866Y3729138D01*
G01X1659724Y3729530D01*
G01X1658935Y3729713D01*
G01X1658146Y3729896D01*
G01X1657999Y3730302D01*
G01X1657851Y3730708D01*
G01X1657249Y3731002D01*
G01X1656648Y3731296D01*
G01X1655818Y3731784D01*
G01X1654987Y3732273D01*
G01X1654543Y3732742D01*
G01X1654099Y3733211D01*
G01X1653521Y3733211D01*
G01X1652942Y3733211D01*
G01X1652612Y3733769D01*
G01X1652281Y3734327D01*
G01X1651796Y3734327D01*
G01X1651311Y3734327D01*
G01X1650833Y3734885D01*
G01X1650354Y3735443D01*
G01X1649894Y3735443D01*
G01X1649435Y3735443D01*
G01X1649288Y3735847D01*
G01X1649142Y3736250D01*
G01X1648221Y3736432D01*
G01X1647300Y3736614D01*
G01X1647164Y3736990D01*
G01X1647027Y3737366D01*
G01X1646106Y3737548D01*
G01X1645185Y3737731D01*
G01X1645048Y3738106D01*
G01X1644912Y3738482D01*
G01X1643991Y3738664D01*
G01X1643070Y3738847D01*
G01X1642934Y3739223D01*
G01X1642797Y3739598D01*
G01X1641792Y3739793D01*
G01X1640787Y3739989D01*
G01X1640156Y3740507D01*
G01X1639526Y3741024D01*
G01X1638832Y3741024D01*
G01X1638138Y3741024D01*
G01X1637808Y3741582D01*
G01X1637478Y3742141D01*
G01X1636687Y3742141D01*
G01X1635896Y3742141D01*
G01X1635367Y3742699D01*
G01X1634839Y3743257D01*
G01X1633845Y3743257D01*
G01X1632851Y3743257D01*
G01X1632521Y3743815D01*
G01X1632191Y3744373D01*
G01X1631355Y3744373D01*
G01X1630519Y3744373D01*
G01X1630056Y3744815D01*
G01X1629593Y3745258D01*
G01X1628449Y3745410D01*
G01X1627305Y3745563D01*
G01X1626853Y3745978D01*
G01X1626401Y3746393D01*
G01X1625134Y3746540D01*
G01X1623868Y3746686D01*
G01X1623238Y3747204D01*
G01X1622608Y3747722D01*
G01X1621284Y3747722D01*
G01X1619961Y3747722D01*
G01X1619634Y3748194D01*
G01X1619306Y3748668D01*
G01X1617494Y3748789D01*
G01X1615681Y3748911D01*
G01X1615373Y3749356D01*
G01X1615065Y3749801D01*
G01X1613056Y3749908D01*
G01X1611047Y3750015D01*
G01X1611047Y3750236D01*
G01X1611047Y3750458D01*
G01X1610215Y3750764D01*
G01X1609382Y3751070D01*
G01X1607261Y3751070D01*
G01X1605141Y3751070D01*
G01X1604631Y3751558D01*
G01X1604121Y3752045D01*
G01X1600127Y3752147D01*
G01X1596132Y3752251D01*
G01X1595473Y3752707D01*
G01X1594814Y3753163D01*
G01X1584492Y3753207D01*
G01X1574170Y3753250D01*
G01X1572944Y3753058D01*
G37*
G04 Image End*

G04 Pad Start*
G54D10*
G01X3746500Y749300D03*
G01X3911600Y749300D03*
G01X4076700Y749300D03*
G01X2870200Y393700D03*
G01X2870200Y228600D03*
G01X2870200Y63500D03*
G54D11*
G01X317500Y-533400D03*
G01X747695Y-533081D03*
G01X3721100Y584200D03*
G01X4099639Y571500D03*
G01X2286000Y2755900D03*
G01X2494087Y2755900D03*
G01X4000500Y635000D03*
G01X2108200Y2730500D03*
G54D12*
G01X-125400Y1066292D03*
G01X74600Y1066292D03*
G01X74600Y592696D03*
G01X-125400Y592696D03*
G01X74600Y353498D03*
G01X-125400Y353498D03*
G01X74600Y114300D03*
G01X-125400Y114300D03*
G01X-125400Y831894D03*
G01X74600Y831894D03*
G54D13*
G01X1168400Y51994D03*
G01X1295400Y51994D03*
G01X1422400Y51994D03*
G01X1549400Y51994D03*
G01X1676400Y51994D03*
G01X1803400Y51994D03*
G01X1930400Y51994D03*
G01X2057400Y51994D03*
G01X2184400Y51994D03*
G01X2311400Y51994D03*
G54D14*
G01X839902Y232486D03*
G54D16*
G01X1589888Y1112495D03*
G54D14*
G01X839902Y359486D03*
G01X839902Y486486D03*
G01X839902Y613486D03*
G01X839902Y740486D03*
G01X839902Y867486D03*
G01X839902Y994486D03*
G01X839902Y1121486D03*
G01X839902Y1248486D03*
G01X839902Y1375486D03*
G01X839902Y1502486D03*
G01X839902Y1629486D03*
G01X839902Y1756486D03*
G01X839902Y1883486D03*
G54D13*
G01X1041400Y51994D03*
G01X2438400Y51994D03*
G54D14*
G01X2649906Y232486D03*
G01X2649906Y359486D03*
G01X2649906Y486486D03*
G01X2649906Y613486D03*
G01X2649906Y740486D03*
G01X2649906Y867486D03*
G01X2649906Y994486D03*
G01X2649906Y1121486D03*
G01X2649906Y1248486D03*
G01X2649906Y1375486D03*
G01X2649906Y1502486D03*
G01X2649906Y1629486D03*
G01X2649906Y1756486D03*
G01X2649906Y1883486D03*
G54D17*
G01X2893619Y2755087D03*
G01X2893619Y2705100D03*
G01X2893619Y2655087D03*
G54D18*
G01X2831694Y2617978D03*
G01X2781706Y2617978D03*
G54D17*
G01X2719781Y2655087D03*
G01X2719781Y2705100D03*
G01X2719781Y2755087D03*
G54D18*
G01X2781706Y2792222D03*
G01X2831694Y2792222D03*
G54D19*
G01X-138100Y2903220D03*
G01X61900Y2903220D03*
G01X-138100Y3192780D03*
G01X61900Y3192780D03*
G54D20*
G01X1839290Y-505600D03*
G01X1564310Y-505600D03*
G01X1839290Y-205600D03*
G01X1564310Y-205600D03*
G01X2008810Y-205600D03*
G01X2283790Y-205600D03*
G01X2008810Y-505600D03*
G01X2283790Y-505600D03*
G54D21*
G01X2819400Y2211400D03*
G01X2819400Y2411400D03*
G54D19*
G01X-138100Y2613660D03*
G01X61900Y2613660D03*
G01X61900Y3482340D03*
G01X-138100Y3482340D03*
G01X61900Y3771900D03*
G01X-138100Y3771900D03*
G54D22*
G01X7929880Y2768600D03*
G01X8064500Y2768600D03*
G01X8199120Y2768600D03*
G54D23*
G01X2286000Y3465500D03*
G01X2286000Y3265500D03*
G54D24*
G01X2286000Y3910000D03*
G01X2286000Y3710000D03*
G54D25*
G01X1102297Y3274111D03*
G01X1102297Y3384118D03*
G01X1102297Y3494100D03*
G01X1102297Y3604108D03*
G01X1102297Y3714115D03*
G01X1102297Y3824122D03*
G01X1102297Y3934104D03*
G01X1102297Y4044112D03*
G54D26*
G01X1672298Y4281602D03*
G01X842302Y4281602D03*
G01X842302Y2906624D03*
G01X1672298Y2906598D03*
G54D27*
G01X2770505Y3644900D03*
G01X2563495Y3549904D03*
G01X2563495Y3739896D03*
G54D23*
G01X2781300Y2973400D03*
G01X2781300Y3173400D03*
G54D28*
G01X914400Y-406400D03*
G54D10*
G01X1054100Y-406400D03*
G01X1193800Y-406400D03*
G01X1333500Y-406400D03*
G01X1333500Y-241300D03*
G01X1193800Y-241300D03*
G01X1054100Y-241300D03*
G01X914400Y-241300D03*
G54D12*
G01X3998900Y2095500D03*
G01X3798900Y2095500D03*
G01X3998900Y2400300D03*
G01X3798900Y2400300D03*
G01X3998900Y2717800D03*
G01X3798900Y2717800D03*
G01X3798900Y1778000D03*
G01X3998900Y1778000D03*
G54D19*
G01X61900Y2324100D03*
G01X-138100Y2324100D03*
G54D12*
G01X75380Y1305490D03*
G01X-124620Y1305490D03*
G54D10*
G01X464220Y-271720D03*
G01X603920Y-271720D03*
G01X743620Y-271720D03*
G54D28*
G01X324520Y-271720D03*
G54D22*
G01X304800Y114300D03*
G01X304800Y239110D03*
G01X304800Y363921D03*
G01X304800Y488731D03*
G01X304800Y613541D03*
G01X304800Y738352D03*
G01X304800Y863162D03*
G01X304800Y987972D03*
G01X304800Y1112783D03*
G01X304800Y1237593D03*
G01X304800Y1362403D03*
G01X304800Y1487214D03*
G01X304800Y1612024D03*
G01X304800Y1736834D03*
G01X304800Y1861645D03*
G01X304800Y1986455D03*
G01X304800Y2111266D03*
G01X304800Y2236076D03*
G01X304800Y2360886D03*
G01X304800Y2485697D03*
G01X304800Y2610507D03*
G01X304800Y2735317D03*
G01X304800Y2860128D03*
G01X304800Y2984938D03*
G01X304800Y3109748D03*
G01X304800Y3234559D03*
G01X304800Y3359369D03*
G01X304800Y3484179D03*
G01X304800Y3608990D03*
G01X304800Y3733800D03*
G04 Pad End*

M02*

