G04 Layer: BottomSolderMaskLayer*
G04 EasyEDA Pro v2.2.45.4, 2026-01-20 19:36:07*
G04 Gerber Generator version 0.3*
G04 Scale: 100 percent, Rotated: No, Reflected: No*
G04 Dimensions in millimeters*
G04 Leading zeros omitted, absolute positions, 4 integers and 5 decimals*
G04 Generated by one-click*
%FSLAX45Y45*%
%MOMM*%
%AMRoundRect*1,1,$1,$2,$3*1,1,$1,$4,$5*1,1,$1,0-$2,0-$3*1,1,$1,0-$4,0-$5*20,1,$1,$2,$3,$4,$5,0*20,1,$1,$4,$5,0-$2,0-$3,0*20,1,$1,0-$2,0-$3,0-$4,0-$5,0*20,1,$1,0-$4,0-$5,$2,$3,0*4,1,4,$2,$3,$4,$5,0-$2,0-$3,0-$4,0-$5,$2,$3,0*%
%ADD10C,1.1016*%
%ADD11RoundRect,0.09691X-1.75234X-1.00234X-1.75234X1.00234*%
%ADD12RoundRect,0.17384X-0.51468X0.78968X0.51468X0.78968*%
%ADD13RoundRect,0.09017X-0.35571X-0.63072X-0.35571X0.63072*%
%ADD14RoundRect,0.09387X-0.69237X-0.57013X-0.69237X0.57013*%
%ADD15RoundRect,0.0960X-0.57013X0.69237X0.57013X0.69237*%
%ADD16RoundRect,0.09387X-0.57013X0.69237X0.57013X0.69237*%
%ADD17O,1.7016X0.7016*%
%ADD18RoundRect,0.09838X-1.50161X1.75161X1.50161X1.75161*%
%ADD19RoundRect,0.08X-0.16X0.46X0.16X0.46*%
%ADD20RoundRect,0.08X-0.46X-0.16X-0.46X0.16*%
%ADD21RoundRect,0.08752X-0.30625X0.50625X0.30625X0.50625*%
%ADD22RoundRect,0.08136X-0.66032X-0.16032X-0.66032X0.16032*%
%ADD23RoundRect,0.16217X-0.32049X0.34551X0.32049X0.34551*%
%ADD24RoundRect,0.09495X-0.70833X0.67833X0.70833X0.67833*%
%ADD25RoundRect,0.17384X-0.78968X-0.51468X-0.78968X0.51468*%
%ADD26RoundRect,0.09495X-0.67833X-0.70833X-0.67833X0.70833*%
%ADD27C,0.8016*%
%ADD28RoundRect,0.09465X-1.73147X-0.64474X-1.73147X0.64474*%
%ADD29RoundRect,0.09302X-0.50429X0.50429X0.50429X0.50429*%
%ADD30RoundRect,0.0918X-0.5049X0.42991X0.5049X0.42991*%
G75*


G04 Pad Start*
G54D10*
G01X3746500Y749300D03*
G01X3911600Y749300D03*
G01X4076700Y749300D03*
G01X2870200Y393700D03*
G01X2870200Y228600D03*
G01X2870200Y63500D03*
G54D11*
G01X1892300Y2870200D03*
G01X1892300Y3789335D03*
G54D12*
G01X2614600Y1460500D03*
G01X2414600Y1460500D03*
G54D13*
G01X2838196Y3202000D03*
G01X2648204Y3202000D03*
G01X2743200Y3402000D03*
G01X2495921Y3202625D03*
G01X2305929Y3202625D03*
G01X2400925Y3402625D03*
G54D14*
G01X2222500Y-192100D03*
G01X2222500Y-392100D03*
G54D16*
G01X1728800Y114300D03*
G01X1928800Y114300D03*
G01X789000Y444500D03*
G01X989000Y444500D03*
G01X789000Y723900D03*
G01X989000Y723900D03*
G54D17*
G01X1478001Y393700D03*
G01X1478001Y520700D03*
G01X1478001Y647700D03*
G01X1478001Y774700D03*
G01X2077999Y393700D03*
G01X2077999Y520700D03*
G01X2077999Y647700D03*
G01X2077999Y774700D03*
G54D18*
G01X1778000Y584200D03*
G54D19*
G01X1661693Y1235100D03*
G01X1611706Y1235100D03*
G01X1561694Y1235100D03*
G01X1511706Y1235100D03*
G01X1461694Y1235100D03*
G01X1411707Y1235100D03*
G54D20*
G01X1336700Y1310107D03*
G01X1336700Y1360094D03*
G01X1336700Y1410106D03*
G01X1336700Y1460094D03*
G01X1336700Y1510106D03*
G01X1336700Y1560093D03*
G54D19*
G01X1411707Y1635100D03*
G01X1461694Y1635100D03*
G01X1511706Y1635100D03*
G01X1561694Y1635100D03*
G01X1611706Y1635100D03*
G01X1661693Y1635100D03*
G54D20*
G01X1736700Y1560093D03*
G01X1736700Y1510106D03*
G01X1736700Y1460094D03*
G01X1736700Y1410106D03*
G01X1736700Y1360094D03*
G01X1736700Y1310107D03*
G54D21*
G01X2311400Y1706093D03*
G01X2216404Y1706093D03*
G01X2406396Y1706093D03*
G01X2216404Y1926107D03*
G01X2406396Y1926107D03*
G54D22*
G01X1289101Y2995600D03*
G01X1289101Y2945613D03*
G01X1289101Y2895625D03*
G01X1289101Y2845613D03*
G01X1289101Y2795600D03*
G01X819099Y2795626D03*
G01X819099Y2845613D03*
G01X819099Y2895600D03*
G01X819099Y2945613D03*
G01X819099Y2995625D03*
G54D23*
G01X1113282Y1701805D03*
G01X1198118Y1701805D03*
G54D24*
G01X2503500Y317500D03*
G01X2703500Y317500D03*
G01X1728800Y-152400D03*
G01X1928800Y-152400D03*
G01X2703500Y1054100D03*
G01X2503500Y1054100D03*
G01X2503500Y558800D03*
G01X2703500Y558800D03*
G01X2503500Y800100D03*
G01X2703500Y800100D03*
G01X1954200Y1892300D03*
G01X1754200Y1892300D03*
G01X2503500Y88900D03*
G01X2703500Y88900D03*
G54D25*
G01X2819400Y2211400D03*
G01X2819400Y2411400D03*
G54D26*
G01X952500Y1246200D03*
G01X952500Y1446200D03*
G54D24*
G01X1271600Y1016000D03*
G01X1471600Y1016000D03*
G54D26*
G01X2019300Y1347800D03*
G01X2019300Y1547800D03*
G01X1473200Y3021000D03*
G01X1473200Y2821000D03*
G54D24*
G01X1728800Y-431800D03*
G01X1928800Y-431800D03*
G54D23*
G01X1113282Y1841505D03*
G01X1198118Y1841505D03*
G01X1354582Y1841505D03*
G01X1439418Y1841505D03*
G54D27*
G01X7929880Y2768600D03*
G01X8064500Y2768600D03*
G01X8199120Y2768600D03*
G54D28*
G01X1892300Y3033471D03*
G01X1892300Y3646729D03*
G54D23*
G01X882101Y1843749D03*
G01X966937Y1843749D03*
G01X884682Y1701805D03*
G01X969518Y1701805D03*
G54D29*
G01X914400Y-406400D03*
G54D10*
G01X1054100Y-406400D03*
G01X1193800Y-406400D03*
G01X1333500Y-406400D03*
G01X1333500Y-241300D03*
G01X1193800Y-241300D03*
G01X1054100Y-241300D03*
G01X914400Y-241300D03*
G54D30*
G01X3761600Y3591890D03*
G01X3761600Y3316910D03*
G01X4061600Y3591890D03*
G01X4061600Y3316910D03*
G01X3760600Y2817190D03*
G01X3760600Y2542210D03*
G01X4060599Y2817190D03*
G01X4060599Y2542210D03*
G01X3760600Y2042490D03*
G01X3760600Y1767510D03*
G01X4060599Y2042490D03*
G01X4060599Y1767510D03*
G01X3761600Y1267790D03*
G01X3761600Y992810D03*
G01X4061600Y1267790D03*
G01X4061600Y992810D03*
G54D13*
G01X2305304Y3770300D03*
G01X2495296Y3770300D03*
G01X2400300Y3570300D03*
G01X2648204Y3770300D03*
G01X2838196Y3770300D03*
G01X2743200Y3570300D03*
G54D10*
G01X464220Y-271720D03*
G01X603920Y-271720D03*
G01X743620Y-271720D03*
G54D29*
G01X324520Y-271720D03*
G54D27*
G01X304800Y114300D03*
G01X304800Y239110D03*
G01X304800Y363921D03*
G01X304800Y488731D03*
G01X304800Y613541D03*
G01X304800Y738352D03*
G01X304800Y863162D03*
G01X304800Y987972D03*
G01X304800Y1112783D03*
G01X304800Y1237593D03*
G01X304800Y1362403D03*
G01X304800Y1487214D03*
G01X304800Y1612024D03*
G01X304800Y1736834D03*
G01X304800Y1861645D03*
G01X304800Y1986455D03*
G01X304800Y2111266D03*
G01X304800Y2236076D03*
G01X304800Y2360886D03*
G01X304800Y2485697D03*
G01X304800Y2610507D03*
G01X304800Y2735317D03*
G01X304800Y2860128D03*
G01X304800Y2984938D03*
G01X304800Y3109748D03*
G01X304800Y3234559D03*
G01X304800Y3359369D03*
G01X304800Y3484179D03*
G01X304800Y3608990D03*
G01X304800Y3733800D03*
G04 Pad End*

M02*

