G04 Layer: TopPasteMaskLayer*
G04 EasyEDA Pro v2.2.45.4, 2026-01-20 19:36:07*
G04 Gerber Generator version 0.3*
G04 Scale: 100 percent, Rotated: No, Reflected: No*
G04 Dimensions in millimeters*
G04 Leading zeros omitted, absolute positions, 4 integers and 5 decimals*
G04 Generated by one-click*
%FSLAX45Y45*%
%MOMM*%
%ADD10R,1.0X2.0*%
%ADD11R,2.0X1.0*%
%ADD12R,3.69999X3.69999*%
%ADD13R,0.5X0.3*%
%ADD14R,0.3X0.5*%
%ADD15R,0.85001X1.0*%
%ADD16R,1.55001X1.0*%
%ADD17R,1.5X0.8*%
%ADD18R,2.0X1.45001*%
%ADD19R,1.0745X0.6*%
%ADD20R,1.07X0.6*%
G75*


G04 PolygonModel Start*
G36*
G01X144602Y1130292D02*
G01X144602Y1002294D01*
G01X139601Y997293D01*
G01X24600Y997293D01*
G01X19601Y1002294D01*
G01X19098Y1043297D01*
G01X64099Y1043297D01*
G01X64099Y1088296D01*
G01X20099Y1088296D01*
G01X19601Y1130292D01*
G01X24600Y1135294D01*
G01X139601Y1135294D01*
G01X144602Y1130292D01*
G37*
G36*
G01X-70399Y1130292D02*
G01X-70401Y1088296D01*
G01X-114899Y1088296D01*
G01X-114899Y1043297D01*
G01X-70902Y1043297D01*
G01X-70399Y1002294D01*
G01X-75400Y997293D01*
G01X-190398Y997293D01*
G01X-195400Y1002294D01*
G01X-195400Y1130292D01*
G01X-190398Y1135294D01*
G01X-75400Y1135294D01*
G01X-70399Y1130292D01*
G37*
G36*
G01X-195402Y528695D02*
G01X-195402Y656694D01*
G01X-190401Y661695D01*
G01X-75400Y661695D01*
G01X-70401Y656694D01*
G01X-69898Y615690D01*
G01X-114899Y615690D01*
G01X-114899Y570692D01*
G01X-70899Y570692D01*
G01X-70401Y528695D01*
G01X-75400Y523694D01*
G01X-190401Y523694D01*
G01X-195402Y528695D01*
G37*
G36*
G01X19599Y528695D02*
G01X19601Y570692D01*
G01X64099Y570692D01*
G01X64099Y615690D01*
G01X20102Y615690D01*
G01X19599Y656694D01*
G01X24600Y661695D01*
G01X139598Y661695D01*
G01X144600Y656694D01*
G01X144600Y528695D01*
G01X139598Y523694D01*
G01X24600Y523694D01*
G01X19599Y528695D01*
G37*
G36*
G01X-195402Y289498D02*
G01X-195402Y417496D01*
G01X-190401Y422497D01*
G01X-75400Y422497D01*
G01X-70401Y417496D01*
G01X-69898Y376493D01*
G01X-114899Y376493D01*
G01X-114899Y331494D01*
G01X-70899Y331494D01*
G01X-70401Y289498D01*
G01X-75400Y284496D01*
G01X-190401Y284496D01*
G01X-195402Y289498D01*
G37*
G36*
G01X19599Y289498D02*
G01X19601Y331494D01*
G01X64099Y331494D01*
G01X64099Y376493D01*
G01X20102Y376493D01*
G01X19599Y417496D01*
G01X24600Y422497D01*
G01X139598Y422497D01*
G01X144600Y417496D01*
G01X144600Y289498D01*
G01X139598Y284496D01*
G01X24600Y284496D01*
G01X19599Y289498D01*
G37*
G36*
G01X-195402Y50300D02*
G01X-195402Y178298D01*
G01X-190401Y183299D01*
G01X-75400Y183299D01*
G01X-70401Y178298D01*
G01X-69898Y137295D01*
G01X-114899Y137295D01*
G01X-114899Y92296D01*
G01X-70899Y92296D01*
G01X-70401Y50300D01*
G01X-75400Y45298D01*
G01X-190401Y45298D01*
G01X-195402Y50300D01*
G37*
G36*
G01X19599Y50300D02*
G01X19601Y92296D01*
G01X64099Y92296D01*
G01X64099Y137295D01*
G01X20102Y137295D01*
G01X19599Y178298D01*
G01X24600Y183299D01*
G01X139598Y183299D01*
G01X144600Y178298D01*
G01X144600Y50300D01*
G01X139598Y45298D01*
G01X24600Y45298D01*
G01X19599Y50300D01*
G37*
G36*
G01X144602Y895894D02*
G01X144602Y767896D01*
G01X139601Y762895D01*
G01X24600Y762895D01*
G01X19601Y767896D01*
G01X19098Y808899D01*
G01X64099Y808899D01*
G01X64099Y853898D01*
G01X20099Y853898D01*
G01X19601Y895894D01*
G01X24600Y900895D01*
G01X139601Y900895D01*
G01X144602Y895894D01*
G37*
G36*
G01X-70399Y895894D02*
G01X-70401Y853898D01*
G01X-114899Y853898D01*
G01X-114899Y808899D01*
G01X-70902Y808899D01*
G01X-70399Y767896D01*
G01X-75400Y762895D01*
G01X-190398Y762895D01*
G01X-195400Y767896D01*
G01X-195400Y895894D01*
G01X-190398Y900895D01*
G01X-75400Y900895D01*
G01X-70399Y895894D01*
G37*
G36*
G01X132398Y2967220D02*
G01X132398Y2839222D01*
G01X127396Y2834221D01*
G01X12395Y2834221D01*
G01X7396Y2839222D01*
G01X6894Y2880225D01*
G01X51895Y2880225D01*
G01X51895Y2925224D01*
G01X7894Y2925224D01*
G01X7396Y2967220D01*
G01X12395Y2972222D01*
G01X127396Y2972222D01*
G01X132398Y2967220D01*
G37*
G36*
G01X-208597Y2839220D02*
G01X-208597Y2967218D01*
G01X-203596Y2972219D01*
G01X-88595Y2972219D01*
G01X-83596Y2967218D01*
G01X-83094Y2926215D01*
G01X-128095Y2926215D01*
G01X-128095Y2881216D01*
G01X-84094Y2881216D01*
G01X-83596Y2839220D01*
G01X-88595Y2834218D01*
G01X-203596Y2834218D01*
G01X-208597Y2839220D01*
G37*
G36*
G01X132398Y3256780D02*
G01X132398Y3128782D01*
G01X127396Y3123781D01*
G01X12395Y3123781D01*
G01X7396Y3128782D01*
G01X6894Y3169785D01*
G01X51895Y3169785D01*
G01X51895Y3214784D01*
G01X7894Y3214784D01*
G01X7396Y3256780D01*
G01X12395Y3261782D01*
G01X127396Y3261782D01*
G01X132398Y3256780D01*
G37*
G36*
G01X-208597Y3128780D02*
G01X-208597Y3256778D01*
G01X-203596Y3261779D01*
G01X-88595Y3261779D01*
G01X-83596Y3256778D01*
G01X-83094Y3215775D01*
G01X-128095Y3215775D01*
G01X-128095Y3170776D01*
G01X-84094Y3170776D01*
G01X-83596Y3128780D01*
G01X-88595Y3123778D01*
G01X-203596Y3123778D01*
G01X-208597Y3128780D01*
G37*
G36*
G01X132398Y2677660D02*
G01X132398Y2549662D01*
G01X127396Y2544661D01*
G01X12395Y2544661D01*
G01X7396Y2549662D01*
G01X6894Y2590665D01*
G01X51895Y2590665D01*
G01X51895Y2635664D01*
G01X7894Y2635664D01*
G01X7396Y2677660D01*
G01X12395Y2682662D01*
G01X127396Y2682662D01*
G01X132398Y2677660D01*
G37*
G36*
G01X-208597Y2549660D02*
G01X-208597Y2677658D01*
G01X-203596Y2682659D01*
G01X-88595Y2682659D01*
G01X-83596Y2677658D01*
G01X-83094Y2636655D01*
G01X-128095Y2636655D01*
G01X-128095Y2591656D01*
G01X-84094Y2591656D01*
G01X-83596Y2549660D01*
G01X-88595Y2544658D01*
G01X-203596Y2544658D01*
G01X-208597Y2549660D01*
G37*
G36*
G01X-208597Y3418340D02*
G01X-208597Y3546338D01*
G01X-203596Y3551339D01*
G01X-88595Y3551339D01*
G01X-83596Y3546338D01*
G01X-83094Y3505335D01*
G01X-128095Y3505335D01*
G01X-128095Y3460336D01*
G01X-84094Y3460336D01*
G01X-83596Y3418340D01*
G01X-88595Y3413338D01*
G01X-203596Y3413338D01*
G01X-208597Y3418340D01*
G37*
G36*
G01X132398Y3546340D02*
G01X132398Y3418342D01*
G01X127396Y3413341D01*
G01X12395Y3413341D01*
G01X7396Y3418342D01*
G01X6894Y3459345D01*
G01X51895Y3459345D01*
G01X51895Y3504344D01*
G01X7894Y3504344D01*
G01X7396Y3546340D01*
G01X12395Y3551342D01*
G01X127396Y3551342D01*
G01X132398Y3546340D01*
G37*
G36*
G01X-208597Y3707900D02*
G01X-208597Y3835898D01*
G01X-203596Y3840899D01*
G01X-88595Y3840899D01*
G01X-83596Y3835898D01*
G01X-83094Y3794895D01*
G01X-128095Y3794895D01*
G01X-128095Y3749896D01*
G01X-84094Y3749896D01*
G01X-83596Y3707900D01*
G01X-88595Y3702898D01*
G01X-203596Y3702898D01*
G01X-208597Y3707900D01*
G37*
G36*
G01X132398Y3835900D02*
G01X132398Y3707902D01*
G01X127396Y3702901D01*
G01X12395Y3702901D01*
G01X7396Y3707902D01*
G01X6894Y3748905D01*
G01X51895Y3748905D01*
G01X51895Y3793904D01*
G01X7894Y3793904D01*
G01X7396Y3835900D01*
G01X12395Y3840902D01*
G01X127396Y3840902D01*
G01X132398Y3835900D01*
G37*
G36*
G01X2350000Y3195498D02*
G01X2222002Y3195498D01*
G01X2217001Y3200499D01*
G01X2217001Y3315500D01*
G01X2222002Y3320499D01*
G01X2263005Y3321002D01*
G01X2263005Y3276001D01*
G01X2308004Y3276001D01*
G01X2308004Y3320001D01*
G01X2350000Y3320499D01*
G01X2355002Y3315500D01*
G01X2355002Y3200499D01*
G01X2350000Y3195498D01*
G37*
G36*
G01X2350000Y3410499D02*
G01X2308004Y3410501D01*
G01X2308004Y3454999D01*
G01X2263005Y3454999D01*
G01X2263005Y3411002D01*
G01X2222002Y3410499D01*
G01X2217001Y3415500D01*
G01X2217001Y3530498D01*
G01X2222002Y3535500D01*
G01X2350000Y3535500D01*
G01X2355002Y3530498D01*
G01X2355002Y3415500D01*
G01X2350000Y3410499D01*
G37*
G36*
G01X2350000Y3639503D02*
G01X2222002Y3639503D01*
G01X2217001Y3644504D01*
G01X2217001Y3759505D01*
G01X2222002Y3764504D01*
G01X2263005Y3765006D01*
G01X2263005Y3720005D01*
G01X2308004Y3720005D01*
G01X2308004Y3764006D01*
G01X2350000Y3764504D01*
G01X2355002Y3759505D01*
G01X2355002Y3644504D01*
G01X2350000Y3639503D01*
G37*
G36*
G01X2222000Y3980498D02*
G01X2349998Y3980498D01*
G01X2354999Y3975496D01*
G01X2354999Y3860495D01*
G01X2349998Y3855496D01*
G01X2308995Y3854994D01*
G01X2308995Y3899995D01*
G01X2263996Y3899995D01*
G01X2263996Y3855994D01*
G01X2222000Y3855496D01*
G01X2216998Y3860495D01*
G01X2216998Y3975496D01*
G01X2222000Y3980498D01*
G37*
G36*
G01X2717300Y3243402D02*
G01X2845298Y3243402D01*
G01X2850299Y3238401D01*
G01X2850299Y3123400D01*
G01X2845298Y3118401D01*
G01X2804295Y3117898D01*
G01X2804295Y3162899D01*
G01X2759296Y3162899D01*
G01X2759296Y3118899D01*
G01X2717300Y3118401D01*
G01X2712298Y3123400D01*
G01X2712298Y3238401D01*
G01X2717300Y3243402D01*
G37*
G36*
G01X2717300Y3028401D02*
G01X2759296Y3028399D01*
G01X2759296Y2983901D01*
G01X2804295Y2983901D01*
G01X2804295Y3027898D01*
G01X2845298Y3028401D01*
G01X2850299Y3023400D01*
G01X2850299Y2908402D01*
G01X2845298Y2903400D01*
G01X2717300Y2903400D01*
G01X2712298Y2908402D01*
G01X2712298Y3023400D01*
G01X2717300Y3028401D01*
G37*
G36*
G01X3728898Y2031500D02*
G01X3728898Y2159498D01*
G01X3733899Y2164499D01*
G01X3848900Y2164499D01*
G01X3853899Y2159498D01*
G01X3854402Y2118495D01*
G01X3809401Y2118495D01*
G01X3809401Y2073496D01*
G01X3853401Y2073496D01*
G01X3853899Y2031500D01*
G01X3848900Y2026498D01*
G01X3733899Y2026498D01*
G01X3728898Y2031500D01*
G37*
G36*
G01X3943899Y2031500D02*
G01X3943901Y2073496D01*
G01X3988399Y2073496D01*
G01X3988399Y2118495D01*
G01X3944402Y2118495D01*
G01X3943899Y2159498D01*
G01X3948900Y2164499D01*
G01X4063898Y2164499D01*
G01X4068900Y2159498D01*
G01X4068900Y2031500D01*
G01X4063898Y2026498D01*
G01X3948900Y2026498D01*
G01X3943899Y2031500D01*
G37*
G36*
G01X3728898Y2336300D02*
G01X3728898Y2464298D01*
G01X3733899Y2469299D01*
G01X3848900Y2469299D01*
G01X3853899Y2464298D01*
G01X3854402Y2423295D01*
G01X3809401Y2423295D01*
G01X3809401Y2378296D01*
G01X3853401Y2378296D01*
G01X3853899Y2336300D01*
G01X3848900Y2331298D01*
G01X3733899Y2331298D01*
G01X3728898Y2336300D01*
G37*
G36*
G01X3943899Y2336300D02*
G01X3943901Y2378296D01*
G01X3988399Y2378296D01*
G01X3988399Y2423295D01*
G01X3944402Y2423295D01*
G01X3943899Y2464298D01*
G01X3948900Y2469299D01*
G01X4063898Y2469299D01*
G01X4068900Y2464298D01*
G01X4068900Y2336300D01*
G01X4063898Y2331298D01*
G01X3948900Y2331298D01*
G01X3943899Y2336300D01*
G37*
G36*
G01X3728898Y2653800D02*
G01X3728898Y2781798D01*
G01X3733899Y2786799D01*
G01X3848900Y2786799D01*
G01X3853899Y2781798D01*
G01X3854402Y2740795D01*
G01X3809401Y2740795D01*
G01X3809401Y2695796D01*
G01X3853401Y2695796D01*
G01X3853899Y2653800D01*
G01X3848900Y2648798D01*
G01X3733899Y2648798D01*
G01X3728898Y2653800D01*
G37*
G36*
G01X3943899Y2653800D02*
G01X3943901Y2695796D01*
G01X3988399Y2695796D01*
G01X3988399Y2740795D01*
G01X3944402Y2740795D01*
G01X3943899Y2781798D01*
G01X3948900Y2786799D01*
G01X4063898Y2786799D01*
G01X4068900Y2781798D01*
G01X4068900Y2653800D01*
G01X4063898Y2648798D01*
G01X3948900Y2648798D01*
G01X3943899Y2653800D01*
G37*
G36*
G01X4068902Y1842000D02*
G01X4068902Y1714002D01*
G01X4063901Y1709001D01*
G01X3948900Y1709001D01*
G01X3943901Y1714002D01*
G01X3943398Y1755005D01*
G01X3988399Y1755005D01*
G01X3988399Y1800004D01*
G01X3944399Y1800004D01*
G01X3943901Y1842000D01*
G01X3948900Y1847002D01*
G01X4063901Y1847002D01*
G01X4068902Y1842000D01*
G37*
G36*
G01X3853901Y1842000D02*
G01X3853899Y1800004D01*
G01X3809401Y1800004D01*
G01X3809401Y1755005D01*
G01X3853398Y1755005D01*
G01X3853901Y1714002D01*
G01X3848900Y1709001D01*
G01X3733902Y1709001D01*
G01X3728900Y1714002D01*
G01X3728900Y1842000D01*
G01X3733902Y1847002D01*
G01X3848900Y1847002D01*
G01X3853901Y1842000D01*
G37*
G36*
G01X-208597Y2260100D02*
G01X-208597Y2388098D01*
G01X-203596Y2393099D01*
G01X-88595Y2393099D01*
G01X-83596Y2388098D01*
G01X-83094Y2347095D01*
G01X-128095Y2347095D01*
G01X-128095Y2302096D01*
G01X-84094Y2302096D01*
G01X-83596Y2260100D01*
G01X-88595Y2255098D01*
G01X-203596Y2255098D01*
G01X-208597Y2260100D01*
G37*
G36*
G01X132398Y2388100D02*
G01X132398Y2260102D01*
G01X127396Y2255101D01*
G01X12395Y2255101D01*
G01X7396Y2260102D01*
G01X6894Y2301105D01*
G01X51895Y2301105D01*
G01X51895Y2346104D01*
G01X7894Y2346104D01*
G01X7396Y2388100D01*
G01X12395Y2393102D01*
G01X127396Y2393102D01*
G01X132398Y2388100D01*
G37*
G36*
G01X-194622Y1241490D02*
G01X-194622Y1369488D01*
G01X-189621Y1374489D01*
G01X-74620Y1374489D01*
G01X-69621Y1369488D01*
G01X-69118Y1328485D01*
G01X-114120Y1328485D01*
G01X-114120Y1283486D01*
G01X-70119Y1283486D01*
G01X-69621Y1241490D01*
G01X-74620Y1236488D01*
G01X-189621Y1236488D01*
G01X-194622Y1241490D01*
G37*
G36*
G01X20378Y1241490D02*
G01X20381Y1283486D01*
G01X64879Y1283486D01*
G01X64879Y1328485D01*
G01X20881Y1328485D01*
G01X20378Y1369488D01*
G01X25380Y1374489D01*
G01X140378Y1374489D01*
G01X145379Y1369488D01*
G01X145379Y1241490D01*
G01X140378Y1236488D01*
G01X25380Y1236488D01*
G01X20378Y1241490D01*
G37*

G04 Pad Start*
G54D10*
G01X1168400Y51994D03*
G01X1295400Y51994D03*
G01X1422400Y51994D03*
G01X1549400Y51994D03*
G01X1676400Y51994D03*
G01X1803400Y51994D03*
G01X1930400Y51994D03*
G01X2057400Y51994D03*
G01X2184400Y51994D03*
G01X2311400Y51994D03*
G54D11*
G01X839902Y232486D03*
G54D12*
G01X1589888Y1112495D03*
G54D11*
G01X839902Y359486D03*
G01X839902Y486486D03*
G01X839902Y613486D03*
G01X839902Y740486D03*
G01X839902Y867486D03*
G01X839902Y994486D03*
G01X839902Y1121486D03*
G01X839902Y1248486D03*
G01X839902Y1375486D03*
G01X839902Y1502486D03*
G01X839902Y1629486D03*
G01X839902Y1756486D03*
G01X839902Y1883486D03*
G54D10*
G01X1041400Y51994D03*
G01X2438400Y51994D03*
G54D11*
G01X2649906Y232486D03*
G01X2649906Y359486D03*
G01X2649906Y486486D03*
G01X2649906Y613486D03*
G01X2649906Y740486D03*
G01X2649906Y867486D03*
G01X2649906Y994486D03*
G01X2649906Y1121486D03*
G01X2649906Y1248486D03*
G01X2649906Y1375486D03*
G01X2649906Y1502486D03*
G01X2649906Y1629486D03*
G01X2649906Y1756486D03*
G01X2649906Y1883486D03*
G54D13*
G01X2893619Y2755087D03*
G01X2893619Y2705100D03*
G01X2893619Y2655087D03*
G54D14*
G01X2831694Y2617978D03*
G01X2781706Y2617978D03*
G54D13*
G01X2719781Y2655087D03*
G01X2719781Y2705100D03*
G01X2719781Y2755087D03*
G54D14*
G01X2781706Y2792222D03*
G01X2831694Y2792222D03*
G54D15*
G01X1839290Y-505600D03*
G01X1564310Y-505600D03*
G01X1839290Y-205600D03*
G01X1564310Y-205600D03*
G01X2008810Y-205600D03*
G01X2283790Y-205600D03*
G01X2008810Y-505600D03*
G01X2283790Y-505600D03*
G54D16*
G01X2819400Y2211400D03*
G01X2819400Y2411400D03*
G54D17*
G01X1102297Y3274111D03*
G01X1102297Y3384118D03*
G01X1102297Y3494100D03*
G01X1102297Y3604108D03*
G01X1102297Y3714115D03*
G01X1102297Y3824122D03*
G01X1102297Y3934104D03*
G01X1102297Y4044112D03*
G54D18*
G01X1672298Y4281602D03*
G01X842302Y4281602D03*
G01X842302Y2906624D03*
G01X1672298Y2906598D03*
G54D20*
G01X2770505Y3644900D03*
G01X2563495Y3549904D03*
G01X2563495Y3739896D03*
G04 Pad End*

M02*

