G04 Layer: TopSolderMaskLayer*
G04 EasyEDA Pro v2.2.45.4, 2026-01-20 19:36:07*
G04 Gerber Generator version 0.3*
G04 Scale: 100 percent, Rotated: No, Reflected: No*
G04 Dimensions in millimeters*
G04 Leading zeros omitted, absolute positions, 4 integers and 5 decimals*
G04 Generated by one-click*
%FSLAX45Y45*%
%MOMM*%
%AMRoundRect*1,1,$1,$2,$3*1,1,$1,$4,$5*1,1,$1,0-$2,0-$3*1,1,$1,0-$4,0-$5*20,1,$1,$2,$3,$4,$5,0*20,1,$1,$4,$5,0-$2,0-$3,0*20,1,$1,0-$2,0-$3,0-$4,0-$5,0*20,1,$1,0-$4,0-$5,$2,$3,0*4,1,4,$2,$3,$4,$5,0-$2,0-$3,0-$4,0-$5,$2,$3,0*%
%ADD10C,1.1016*%
%ADD11C,0.7112*%
%ADD12RoundRect,0.09387X-0.57013X0.69237X0.57013X0.69237*%
%ADD13RoundRect,0.09302X-0.50429X1.00429X0.50429X1.00429*%
%ADD14RoundRect,0.09302X-1.00429X0.50429X1.00429X0.50429*%
%ADD15RoundRect,0.09896X-1.85132X1.85132X1.85132X1.85132*%
%ADD16RoundRect,0.08002X-0.26X-0.16X-0.26X0.16*%
%ADD17RoundRect,0.08002X-0.16X0.26X0.16X0.26*%
%ADD18RoundRect,0.09495X-0.70833X0.67833X0.70833X0.67833*%
%ADD19RoundRect,0.0946X-0.42991X-0.5049X-0.42991X0.5049*%
%ADD20RoundRect,0.0918X-0.42991X-0.5049X-0.42991X0.5049*%
%ADD21RoundRect,0.17384X-0.78968X-0.51468X-0.78968X0.51468*%
%ADD22C,0.8016*%
%ADD23RoundRect,0.09387X-0.69237X-0.57013X-0.69237X0.57013*%
%ADD24RoundRect,0.09495X-0.67833X-0.70833X-0.67833X0.70833*%
%ADD25RoundRect,0.09X-0.755X-0.405X-0.755X0.405*%
%ADD26RoundRect,0.09394X-1.00303X-0.72804X-1.00303X0.72804*%
%ADD27RoundRect,0.08875X-0.54143X0.30643X0.54143X0.30643*%
%ADD28RoundRect,0.09302X-0.50429X0.50429X0.50429X0.50429*%
G75*


G04 Pad Start*
G54D10*
G01X3746500Y749300D03*
G01X3911600Y749300D03*
G01X4076700Y749300D03*
G01X2870200Y393700D03*
G01X2870200Y228600D03*
G01X2870200Y63500D03*
G54D11*
G01X317500Y-533400D03*
G01X747695Y-533081D03*
G01X3721100Y584200D03*
G01X4099639Y571500D03*
G01X2286000Y2755900D03*
G01X2494087Y2755900D03*
G01X4000500Y635000D03*
G01X2108200Y2730500D03*
G54D12*
G01X-125400Y1066292D03*
G01X74600Y1066292D03*
G01X74600Y592696D03*
G01X-125400Y592696D03*
G01X74600Y353498D03*
G01X-125400Y353498D03*
G01X74600Y114300D03*
G01X-125400Y114300D03*
G01X-125400Y831894D03*
G01X74600Y831894D03*
G54D13*
G01X1168400Y51994D03*
G01X1295400Y51994D03*
G01X1422400Y51994D03*
G01X1549400Y51994D03*
G01X1676400Y51994D03*
G01X1803400Y51994D03*
G01X1930400Y51994D03*
G01X2057400Y51994D03*
G01X2184400Y51994D03*
G01X2311400Y51994D03*
G54D14*
G01X839902Y232486D03*
G54D15*
G01X1589888Y1112495D03*
G54D14*
G01X839902Y359486D03*
G01X839902Y486486D03*
G01X839902Y613486D03*
G01X839902Y740486D03*
G01X839902Y867486D03*
G01X839902Y994486D03*
G01X839902Y1121486D03*
G01X839902Y1248486D03*
G01X839902Y1375486D03*
G01X839902Y1502486D03*
G01X839902Y1629486D03*
G01X839902Y1756486D03*
G01X839902Y1883486D03*
G54D13*
G01X1041400Y51994D03*
G01X2438400Y51994D03*
G54D14*
G01X2649906Y232486D03*
G01X2649906Y359486D03*
G01X2649906Y486486D03*
G01X2649906Y613486D03*
G01X2649906Y740486D03*
G01X2649906Y867486D03*
G01X2649906Y994486D03*
G01X2649906Y1121486D03*
G01X2649906Y1248486D03*
G01X2649906Y1375486D03*
G01X2649906Y1502486D03*
G01X2649906Y1629486D03*
G01X2649906Y1756486D03*
G01X2649906Y1883486D03*
G54D16*
G01X2893619Y2755087D03*
G01X2893619Y2705100D03*
G01X2893619Y2655087D03*
G54D17*
G01X2831694Y2617978D03*
G01X2781706Y2617978D03*
G54D16*
G01X2719781Y2655087D03*
G01X2719781Y2705100D03*
G01X2719781Y2755087D03*
G54D17*
G01X2781706Y2792222D03*
G01X2831694Y2792222D03*
G54D18*
G01X-138100Y2903220D03*
G01X61900Y2903220D03*
G01X-138100Y3192780D03*
G01X61900Y3192780D03*
G54D20*
G01X1839290Y-505600D03*
G01X1564310Y-505600D03*
G01X1839290Y-205600D03*
G01X1564310Y-205600D03*
G01X2008810Y-205600D03*
G01X2283790Y-205600D03*
G01X2008810Y-505600D03*
G01X2283790Y-505600D03*
G54D21*
G01X2819400Y2211400D03*
G01X2819400Y2411400D03*
G54D18*
G01X-138100Y2613660D03*
G01X61900Y2613660D03*
G01X61900Y3482340D03*
G01X-138100Y3482340D03*
G01X61900Y3771900D03*
G01X-138100Y3771900D03*
G54D22*
G01X7929880Y2768600D03*
G01X8064500Y2768600D03*
G01X8199120Y2768600D03*
G54D23*
G01X2286000Y3465500D03*
G01X2286000Y3265500D03*
G54D24*
G01X2286000Y3910000D03*
G01X2286000Y3710000D03*
G54D25*
G01X1102297Y3274111D03*
G01X1102297Y3384118D03*
G01X1102297Y3494100D03*
G01X1102297Y3604108D03*
G01X1102297Y3714115D03*
G01X1102297Y3824122D03*
G01X1102297Y3934104D03*
G01X1102297Y4044112D03*
G54D26*
G01X1672298Y4281602D03*
G01X842302Y4281602D03*
G01X842302Y2906624D03*
G01X1672298Y2906598D03*
G54D27*
G01X2770505Y3644900D03*
G01X2563495Y3549904D03*
G01X2563495Y3739896D03*
G54D23*
G01X2781300Y2973400D03*
G01X2781300Y3173400D03*
G54D28*
G01X914400Y-406400D03*
G54D10*
G01X1054100Y-406400D03*
G01X1193800Y-406400D03*
G01X1333500Y-406400D03*
G01X1333500Y-241300D03*
G01X1193800Y-241300D03*
G01X1054100Y-241300D03*
G01X914400Y-241300D03*
G54D12*
G01X3998900Y2095500D03*
G01X3798900Y2095500D03*
G01X3998900Y2400300D03*
G01X3798900Y2400300D03*
G01X3998900Y2717800D03*
G01X3798900Y2717800D03*
G01X3798900Y1778000D03*
G01X3998900Y1778000D03*
G54D18*
G01X61900Y2324100D03*
G01X-138100Y2324100D03*
G54D12*
G01X75380Y1305490D03*
G01X-124620Y1305490D03*
G54D10*
G01X464220Y-271720D03*
G01X603920Y-271720D03*
G01X743620Y-271720D03*
G54D28*
G01X324520Y-271720D03*
G54D22*
G01X304800Y114300D03*
G01X304800Y239110D03*
G01X304800Y363921D03*
G01X304800Y488731D03*
G01X304800Y613541D03*
G01X304800Y738352D03*
G01X304800Y863162D03*
G01X304800Y987972D03*
G01X304800Y1112783D03*
G01X304800Y1237593D03*
G01X304800Y1362403D03*
G01X304800Y1487214D03*
G01X304800Y1612024D03*
G01X304800Y1736834D03*
G01X304800Y1861645D03*
G01X304800Y1986455D03*
G01X304800Y2111266D03*
G01X304800Y2236076D03*
G01X304800Y2360886D03*
G01X304800Y2485697D03*
G01X304800Y2610507D03*
G01X304800Y2735317D03*
G01X304800Y2860128D03*
G01X304800Y2984938D03*
G01X304800Y3109748D03*
G01X304800Y3234559D03*
G01X304800Y3359369D03*
G01X304800Y3484179D03*
G01X304800Y3608990D03*
G01X304800Y3733800D03*
G04 Pad End*

M02*

