G04 Layer: BottomPasteMaskLayer*
G04 EasyEDA Pro v2.2.45.4, 2026-01-20 19:36:07*
G04 Gerber Generator version 0.3*
G04 Scale: 100 percent, Rotated: No, Reflected: No*
G04 Dimensions in millimeters*
G04 Leading zeros omitted, absolute positions, 4 integers and 5 decimals*
G04 Generated by one-click*
%FSLAX45Y45*%
%MOMM*%
%ADD10R,3.5X2.0*%
%ADD11R,1.0X1.55001*%
%ADD12R,0.7X1.25001*%
%ADD13O,1.6X0.6*%
%ADD14R,2.99999X3.49999*%
%ADD15R,0.3X0.9*%
%ADD16R,0.9X0.3*%
%ADD17R,0.6X1.0*%
%ADD18R,1.3X0.3*%
%ADD19R,0.6047X0.64999*%
%ADD20R,0.59995X0.64999*%
%ADD21R,1.55001X1.0*%
%ADD22R,1.0X0.85001*%
G75*


G04 PolygonModel Start*
G36*
G01X2158500Y-462102D02*
G01X2286498Y-462102D01*
G01X2291499Y-457101D01*
G01X2291499Y-342100D01*
G01X2286498Y-337101D01*
G01X2245495Y-336598D01*
G01X2245495Y-381599D01*
G01X2200496Y-381599D01*
G01X2200496Y-337599D01*
G01X2158500Y-337101D01*
G01X2153498Y-342100D01*
G01X2153498Y-457101D01*
G01X2158500Y-462102D01*
G37*
G36*
G01X2158500Y-247101D02*
G01X2200496Y-247099D01*
G01X2200496Y-202601D01*
G01X2245495Y-202601D01*
G01X2245495Y-246598D01*
G01X2286498Y-247101D01*
G01X2291499Y-242100D01*
G01X2291499Y-127102D01*
G01X2286498Y-122100D01*
G01X2158500Y-122100D01*
G01X2153498Y-127102D01*
G01X2153498Y-242100D01*
G01X2158500Y-247101D01*
G37*
G36*
G01X1998802Y50300D02*
G01X1998802Y178298D01*
G01X1993801Y183299D01*
G01X1878800Y183299D01*
G01X1873801Y178298D01*
G01X1873298Y137295D01*
G01X1918299Y137295D01*
G01X1918299Y92296D01*
G01X1874299Y92296D01*
G01X1873801Y50300D01*
G01X1878800Y45298D01*
G01X1993801Y45298D01*
G01X1998802Y50300D01*
G37*
G36*
G01X1783801Y50300D02*
G01X1783799Y92296D01*
G01X1739301Y92296D01*
G01X1739301Y137295D01*
G01X1783298Y137295D01*
G01X1783801Y178298D01*
G01X1778800Y183299D01*
G01X1663802Y183299D01*
G01X1658800Y178298D01*
G01X1658800Y50300D01*
G01X1663802Y45298D01*
G01X1778800Y45298D01*
G01X1783801Y50300D01*
G37*
G36*
G01X1059002Y380500D02*
G01X1059002Y508498D01*
G01X1054001Y513499D01*
G01X939000Y513499D01*
G01X934001Y508498D01*
G01X933498Y467495D01*
G01X978499Y467495D01*
G01X978499Y422496D01*
G01X934499Y422496D01*
G01X934001Y380500D01*
G01X939000Y375498D01*
G01X1054001Y375498D01*
G01X1059002Y380500D01*
G37*
G36*
G01X844001Y380500D02*
G01X843999Y422496D01*
G01X799501Y422496D01*
G01X799501Y467495D01*
G01X843498Y467495D01*
G01X844001Y508498D01*
G01X839000Y513499D01*
G01X724002Y513499D01*
G01X719000Y508498D01*
G01X719000Y380500D01*
G01X724002Y375498D01*
G01X839000Y375498D01*
G01X844001Y380500D01*
G37*
G36*
G01X1059002Y659900D02*
G01X1059002Y787898D01*
G01X1054001Y792899D01*
G01X939000Y792899D01*
G01X934001Y787898D01*
G01X933498Y746895D01*
G01X978499Y746895D01*
G01X978499Y701896D01*
G01X934499Y701896D01*
G01X934001Y659900D01*
G01X939000Y654898D01*
G01X1054001Y654898D01*
G01X1059002Y659900D01*
G37*
G36*
G01X844001Y659900D02*
G01X843999Y701896D01*
G01X799501Y701896D01*
G01X799501Y746895D01*
G01X843498Y746895D01*
G01X844001Y787898D01*
G01X839000Y792899D01*
G01X724002Y792899D01*
G01X719000Y787898D01*
G01X719000Y659900D01*
G01X724002Y654898D01*
G01X839000Y654898D01*
G01X844001Y659900D01*
G37*
G36*
G01X2773998Y253500D02*
G01X2773998Y381498D01*
G01X2768996Y386499D01*
G01X2653995Y386499D01*
G01X2648996Y381498D01*
G01X2648494Y340495D01*
G01X2693495Y340495D01*
G01X2693495Y295496D01*
G01X2649494Y295496D01*
G01X2648996Y253500D01*
G01X2653995Y248498D01*
G01X2768996Y248498D01*
G01X2773998Y253500D01*
G37*
G36*
G01X2433003Y381500D02*
G01X2433003Y253502D01*
G01X2438004Y248501D01*
G01X2553005Y248501D01*
G01X2558004Y253502D01*
G01X2558506Y294505D01*
G01X2513505Y294505D01*
G01X2513505Y339504D01*
G01X2557506Y339504D01*
G01X2558004Y381500D01*
G01X2553005Y386502D01*
G01X2438004Y386502D01*
G01X2433003Y381500D01*
G37*
G36*
G01X1999298Y-216400D02*
G01X1999298Y-88402D01*
G01X1994296Y-83401D01*
G01X1879295Y-83401D01*
G01X1874296Y-88402D01*
G01X1873794Y-129405D01*
G01X1918795Y-129405D01*
G01X1918795Y-174404D01*
G01X1874794Y-174404D01*
G01X1874296Y-216400D01*
G01X1879295Y-221402D01*
G01X1994296Y-221402D01*
G01X1999298Y-216400D01*
G37*
G36*
G01X1658303Y-88400D02*
G01X1658303Y-216398D01*
G01X1663304Y-221399D01*
G01X1778305Y-221399D01*
G01X1783304Y-216398D01*
G01X1783806Y-175395D01*
G01X1738805Y-175395D01*
G01X1738805Y-130396D01*
G01X1782806Y-130396D01*
G01X1783304Y-88400D01*
G01X1778305Y-83398D01*
G01X1663304Y-83398D01*
G01X1658303Y-88400D01*
G37*
G36*
G01X2433003Y1118100D02*
G01X2433003Y990102D01*
G01X2438004Y985101D01*
G01X2553005Y985101D01*
G01X2558004Y990102D01*
G01X2558506Y1031105D01*
G01X2513505Y1031105D01*
G01X2513505Y1076104D01*
G01X2557506Y1076104D01*
G01X2558004Y1118100D01*
G01X2553005Y1123102D01*
G01X2438004Y1123102D01*
G01X2433003Y1118100D01*
G37*
G36*
G01X2773998Y990100D02*
G01X2773998Y1118098D01*
G01X2768996Y1123099D01*
G01X2653995Y1123099D01*
G01X2648996Y1118098D01*
G01X2648494Y1077095D01*
G01X2693495Y1077095D01*
G01X2693495Y1032096D01*
G01X2649494Y1032096D01*
G01X2648996Y990100D01*
G01X2653995Y985098D01*
G01X2768996Y985098D01*
G01X2773998Y990100D01*
G37*
G36*
G01X2773998Y494800D02*
G01X2773998Y622798D01*
G01X2768996Y627799D01*
G01X2653995Y627799D01*
G01X2648996Y622798D01*
G01X2648494Y581795D01*
G01X2693495Y581795D01*
G01X2693495Y536796D01*
G01X2649494Y536796D01*
G01X2648996Y494800D01*
G01X2653995Y489798D01*
G01X2768996Y489798D01*
G01X2773998Y494800D01*
G37*
G36*
G01X2433003Y622800D02*
G01X2433003Y494802D01*
G01X2438004Y489801D01*
G01X2553005Y489801D01*
G01X2558004Y494802D01*
G01X2558506Y535805D01*
G01X2513505Y535805D01*
G01X2513505Y580804D01*
G01X2557506Y580804D01*
G01X2558004Y622800D01*
G01X2553005Y627802D01*
G01X2438004Y627802D01*
G01X2433003Y622800D01*
G37*
G36*
G01X2773998Y736100D02*
G01X2773998Y864098D01*
G01X2768996Y869099D01*
G01X2653995Y869099D01*
G01X2648996Y864098D01*
G01X2648494Y823095D01*
G01X2693495Y823095D01*
G01X2693495Y778096D01*
G01X2649494Y778096D01*
G01X2648996Y736100D01*
G01X2653995Y731098D01*
G01X2768996Y731098D01*
G01X2773998Y736100D01*
G37*
G36*
G01X2433003Y864100D02*
G01X2433003Y736102D01*
G01X2438004Y731101D01*
G01X2553005Y731101D01*
G01X2558004Y736102D01*
G01X2558506Y777105D01*
G01X2513505Y777105D01*
G01X2513505Y822104D01*
G01X2557506Y822104D01*
G01X2558004Y864100D01*
G01X2553005Y869102D01*
G01X2438004Y869102D01*
G01X2433003Y864100D01*
G37*
G36*
G01X1683703Y1956300D02*
G01X1683703Y1828302D01*
G01X1688704Y1823301D01*
G01X1803705Y1823301D01*
G01X1808704Y1828302D01*
G01X1809206Y1869305D01*
G01X1764205Y1869305D01*
G01X1764205Y1914304D01*
G01X1808206Y1914304D01*
G01X1808704Y1956300D01*
G01X1803705Y1961302D01*
G01X1688704Y1961302D01*
G01X1683703Y1956300D01*
G37*
G36*
G01X2024698Y1828300D02*
G01X2024698Y1956298D01*
G01X2019696Y1961299D01*
G01X1904695Y1961299D01*
G01X1899696Y1956298D01*
G01X1899194Y1915295D01*
G01X1944195Y1915295D01*
G01X1944195Y1870296D01*
G01X1900194Y1870296D01*
G01X1899696Y1828300D01*
G01X1904695Y1823298D01*
G01X2019696Y1823298D01*
G01X2024698Y1828300D01*
G37*
G36*
G01X2773998Y24900D02*
G01X2773998Y152898D01*
G01X2768996Y157899D01*
G01X2653995Y157899D01*
G01X2648996Y152898D01*
G01X2648494Y111895D01*
G01X2693495Y111895D01*
G01X2693495Y66896D01*
G01X2649494Y66896D01*
G01X2648996Y24900D01*
G01X2653995Y19898D01*
G01X2768996Y19898D01*
G01X2773998Y24900D01*
G37*
G36*
G01X2433003Y152900D02*
G01X2433003Y24902D01*
G01X2438004Y19901D01*
G01X2553005Y19901D01*
G01X2558004Y24902D01*
G01X2558506Y65905D01*
G01X2513505Y65905D01*
G01X2513505Y110904D01*
G01X2557506Y110904D01*
G01X2558004Y152900D01*
G01X2553005Y157902D01*
G01X2438004Y157902D01*
G01X2433003Y152900D01*
G37*
G36*
G01X1016500Y1516698D02*
G01X888502Y1516698D01*
G01X883501Y1511696D01*
G01X883501Y1396695D01*
G01X888502Y1391696D01*
G01X929505Y1391194D01*
G01X929505Y1436195D01*
G01X974504Y1436195D01*
G01X974504Y1392194D01*
G01X1016500Y1391696D01*
G01X1021502Y1396695D01*
G01X1021502Y1511696D01*
G01X1016500Y1516698D01*
G37*
G36*
G01X888500Y1175703D02*
G01X1016498Y1175703D01*
G01X1021499Y1180704D01*
G01X1021499Y1295705D01*
G01X1016498Y1300704D01*
G01X975495Y1301206D01*
G01X975495Y1256205D01*
G01X930496Y1256205D01*
G01X930496Y1300206D01*
G01X888500Y1300704D01*
G01X883498Y1295705D01*
G01X883498Y1180704D01*
G01X888500Y1175703D01*
G37*
G36*
G01X1542098Y952000D02*
G01X1542098Y1079998D01*
G01X1537096Y1084999D01*
G01X1422095Y1084999D01*
G01X1417096Y1079998D01*
G01X1416594Y1038995D01*
G01X1461595Y1038995D01*
G01X1461595Y993996D01*
G01X1417594Y993996D01*
G01X1417096Y952000D01*
G01X1422095Y946998D01*
G01X1537096Y946998D01*
G01X1542098Y952000D01*
G37*
G36*
G01X1201103Y1080000D02*
G01X1201103Y952002D01*
G01X1206104Y947001D01*
G01X1321105Y947001D01*
G01X1326104Y952002D01*
G01X1326606Y993005D01*
G01X1281605Y993005D01*
G01X1281605Y1038004D01*
G01X1325606Y1038004D01*
G01X1326104Y1080000D01*
G01X1321105Y1085002D01*
G01X1206104Y1085002D01*
G01X1201103Y1080000D01*
G37*
G36*
G01X2083300Y1618298D02*
G01X1955302Y1618298D01*
G01X1950301Y1613296D01*
G01X1950301Y1498295D01*
G01X1955302Y1493296D01*
G01X1996305Y1492794D01*
G01X1996305Y1537795D01*
G01X2041304Y1537795D01*
G01X2041304Y1493794D01*
G01X2083300Y1493296D01*
G01X2088302Y1498295D01*
G01X2088302Y1613296D01*
G01X2083300Y1618298D01*
G37*
G36*
G01X1955300Y1277303D02*
G01X2083298Y1277303D01*
G01X2088299Y1282304D01*
G01X2088299Y1397305D01*
G01X2083298Y1402304D01*
G01X2042295Y1402806D01*
G01X2042295Y1357805D01*
G01X1997296Y1357805D01*
G01X1997296Y1401806D01*
G01X1955300Y1402304D01*
G01X1950298Y1397305D01*
G01X1950298Y1282304D01*
G01X1955300Y1277303D01*
G37*
G36*
G01X1409200Y2750503D02*
G01X1537198Y2750503D01*
G01X1542199Y2755504D01*
G01X1542199Y2870505D01*
G01X1537198Y2875504D01*
G01X1496195Y2876006D01*
G01X1496195Y2831005D01*
G01X1451196Y2831005D01*
G01X1451196Y2875006D01*
G01X1409200Y2875504D01*
G01X1404198Y2870505D01*
G01X1404198Y2755504D01*
G01X1409200Y2750503D01*
G37*
G36*
G01X1537200Y3091498D02*
G01X1409202Y3091498D01*
G01X1404201Y3086496D01*
G01X1404201Y2971495D01*
G01X1409202Y2966496D01*
G01X1450205Y2965994D01*
G01X1450205Y3010995D01*
G01X1495204Y3010995D01*
G01X1495204Y2966994D01*
G01X1537200Y2966496D01*
G01X1542202Y2971495D01*
G01X1542202Y3086496D01*
G01X1537200Y3091498D01*
G37*
G36*
G01X1999298Y-495800D02*
G01X1999298Y-367802D01*
G01X1994296Y-362801D01*
G01X1879295Y-362801D01*
G01X1874296Y-367802D01*
G01X1873794Y-408805D01*
G01X1918795Y-408805D01*
G01X1918795Y-453804D01*
G01X1874794Y-453804D01*
G01X1874296Y-495800D01*
G01X1879295Y-500802D01*
G01X1994296Y-500802D01*
G01X1999298Y-495800D01*
G37*
G36*
G01X1658303Y-367800D02*
G01X1658303Y-495798D01*
G01X1663304Y-500799D01*
G01X1778305Y-500799D01*
G01X1783304Y-495798D01*
G01X1783806Y-454795D01*
G01X1738805Y-454795D01*
G01X1738805Y-409796D01*
G01X1782806Y-409796D01*
G01X1783304Y-367800D01*
G01X1778305Y-362798D01*
G01X1663304Y-362798D01*
G01X1658303Y-367800D01*
G37*
G36*
G01X2055099Y3097601D02*
G01X1961053Y3097601D01*
G01X1951053Y3087601D01*
G01X1951053Y3063994D01*
G01X1941053Y3053994D01*
G01X1843547Y3053994D01*
G01X1833547Y3063994D01*
G01X1833547Y3087601D01*
G01X1823547Y3097601D01*
G01X1729501Y3097601D01*
G01X1719501Y3087601D01*
G01X1719501Y2979346D01*
G01X1729501Y2969346D01*
G01X2055099Y2969346D01*
G01X2065099Y2979346D01*
G01X2065099Y3087601D01*
G01X2055099Y3097601D01*
G37*
G36*
G01X2055099Y3582599D02*
G01X1961053Y3582599D01*
G01X1951053Y3592599D01*
G01X1951053Y3616206D01*
G01X1941053Y3626206D01*
G01X1843547Y3626206D01*
G01X1833547Y3616206D01*
G01X1833547Y3592599D01*
G01X1823547Y3582599D01*
G01X1729501Y3582599D01*
G01X1719501Y3592599D01*
G01X1719501Y3700854D01*
G01X1729501Y3710854D01*
G01X2055099Y3710854D01*
G01X2065099Y3700854D01*
G01X2065099Y3592599D01*
G01X2055099Y3582599D01*
G37*

G04 Pad Start*
G54D10*
G01X1892300Y2870200D03*
G01X1892300Y3789335D03*
G54D11*
G01X2614600Y1460500D03*
G01X2414600Y1460500D03*
G54D12*
G01X2838196Y3202000D03*
G01X2648204Y3202000D03*
G01X2743200Y3402000D03*
G01X2495921Y3202625D03*
G01X2305929Y3202625D03*
G01X2400925Y3402625D03*
G54D13*
G01X1478001Y393700D03*
G01X1478001Y520700D03*
G01X1478001Y647700D03*
G01X1478001Y774700D03*
G01X2077999Y393700D03*
G01X2077999Y520700D03*
G01X2077999Y647700D03*
G01X2077999Y774700D03*
G54D14*
G01X1778000Y584200D03*
G54D15*
G01X1661693Y1235100D03*
G01X1611706Y1235100D03*
G01X1561694Y1235100D03*
G01X1511706Y1235100D03*
G01X1461694Y1235100D03*
G01X1411707Y1235100D03*
G54D16*
G01X1336700Y1310107D03*
G01X1336700Y1360094D03*
G01X1336700Y1410106D03*
G01X1336700Y1460094D03*
G01X1336700Y1510106D03*
G01X1336700Y1560093D03*
G54D15*
G01X1411707Y1635100D03*
G01X1461694Y1635100D03*
G01X1511706Y1635100D03*
G01X1561694Y1635100D03*
G01X1611706Y1635100D03*
G01X1661693Y1635100D03*
G54D16*
G01X1736700Y1560093D03*
G01X1736700Y1510106D03*
G01X1736700Y1460094D03*
G01X1736700Y1410106D03*
G01X1736700Y1360094D03*
G01X1736700Y1310107D03*
G54D17*
G01X2311400Y1706093D03*
G01X2216404Y1706093D03*
G01X2406396Y1706093D03*
G01X2216404Y1926107D03*
G01X2406396Y1926107D03*
G54D18*
G01X1289101Y2995600D03*
G01X1289101Y2945613D03*
G01X1289101Y2895625D03*
G01X1289101Y2845613D03*
G01X1289101Y2795600D03*
G01X819099Y2795626D03*
G01X819099Y2845613D03*
G01X819099Y2895600D03*
G01X819099Y2945613D03*
G01X819099Y2995625D03*
G54D20*
G01X1113282Y1701805D03*
G01X1198118Y1701805D03*
G54D21*
G01X2819400Y2211400D03*
G01X2819400Y2411400D03*
G54D20*
G01X1113282Y1841505D03*
G01X1198118Y1841505D03*
G01X1354582Y1841505D03*
G01X1439418Y1841505D03*
G01X882101Y1843749D03*
G01X966937Y1843749D03*
G01X884682Y1701805D03*
G01X969518Y1701805D03*
G54D22*
G01X3761600Y3591890D03*
G01X3761600Y3316910D03*
G01X4061600Y3591890D03*
G01X4061600Y3316910D03*
G01X3760600Y2817190D03*
G01X3760600Y2542210D03*
G01X4060599Y2817190D03*
G01X4060599Y2542210D03*
G01X3760600Y2042490D03*
G01X3760600Y1767510D03*
G01X4060599Y2042490D03*
G01X4060599Y1767510D03*
G01X3761600Y1267790D03*
G01X3761600Y992810D03*
G01X4061600Y1267790D03*
G01X4061600Y992810D03*
G54D12*
G01X2305304Y3770300D03*
G01X2495296Y3770300D03*
G01X2400300Y3570300D03*
G01X2648204Y3770300D03*
G01X2838196Y3770300D03*
G01X2743200Y3570300D03*
G04 Pad End*

M02*

